<?xml version="1.0" encoding="UTF-8" standalone="no"?>
<!-- Created with Inkscape (http://www.inkscape.org/) -->

<svg
   width="300mm"
   height="150mm"
   viewBox="0 0 300 150"
   version="1.1"
   id="svg2407"
   inkscape:version="1.1 (c68e22c387, 2021-05-23)"
   sodipodi:docname="Flag_of_Taliban.svg"
   xmlns:inkscape="http://www.inkscape.org/namespaces/inkscape"
   xmlns:sodipodi="http://sodipodi.sourceforge.net/DTD/sodipodi-0.dtd"
   xmlns="http://www.w3.org/2000/svg"
   xmlns:svg="http://www.w3.org/2000/svg"
   xmlns:rdf="http://www.w3.org/1999/02/22-rdf-syntax-ns#"
   xmlns:cc="http://creativecommons.org/ns#"
   xmlns:dc="http://purl.org/dc/elements/1.1/">
  <title
     id="title858">Flag of Taliban</title>
  <defs
     id="defs2401" />
  <sodipodi:namedview
     id="base"
     pagecolor="#ffffff"
     bordercolor="#666666"
     borderopacity="1.0"
     inkscape:pageopacity="0.0"
     inkscape:pageshadow="2"
     inkscape:zoom="0.49497475"
     inkscape:cx="571.74634"
     inkscape:cy="457.5991"
     inkscape:document-units="mm"
     inkscape:current-layer="layer1"
     showgrid="false"
     fit-margin-top="0"
     fit-margin-left="0"
     fit-margin-right="0"
     fit-margin-bottom="0"
     inkscape:window-width="1309"
     inkscape:window-height="639"
     inkscape:window-x="690"
     inkscape:window-y="345"
     inkscape:window-maximized="0"
     inkscape:snap-global="false"
     inkscape:pagecheckerboard="0" />
  <metadata
     id="metadata2404">
    <rdf:RDF>
      <cc:Work
         rdf:about="">
        <dc:format>image/svg+xml</dc:format>
        <dc:type
           rdf:resource="http://purl.org/dc/dcmitype/StillImage" />
        <dc:title>Flag of Taliban</dc:title>
        <dc:publisher>
          <cc:Agent>
            <dc:title>Lexicon on Wikimedia Commons</dc:title>
          </cc:Agent>
        </dc:publisher>
        <cc:license
           rdf:resource="http://creativecommons.org/publicdomain/zero/1.0/" />
      </cc:Work>
      <cc:License
         rdf:about="http://creativecommons.org/publicdomain/zero/1.0/">
        <cc:permits
           rdf:resource="http://creativecommons.org/ns#Reproduction" />
        <cc:permits
           rdf:resource="http://creativecommons.org/ns#Distribution" />
        <cc:permits
           rdf:resource="http://creativecommons.org/ns#DerivativeWorks" />
      </cc:License>
    </rdf:RDF>
  </metadata>
  <g
     inkscape:label="Layer 1"
     inkscape:groupmode="layer"
     id="layer1"
     transform="translate(332.18451,-79.880943)">
    <rect
       style="opacity:1;fill:#ffffff;fill-opacity:1;stroke:none;stroke-width:0.26178819;stroke-linecap:square;stroke-linejoin:miter;stroke-miterlimit:4;stroke-dasharray:none;stroke-opacity:1"
       id="rect1562-0"
       width="300"
       height="150"
       x="-332.18451"
       y="79.880943" />
    <g
       id="g941"
       transform="translate(0,-0.52507887)">
      <g
         id="g989"
         transform="translate(1.0809739,-1.354835)">
        <g
           id="g1038"
           transform="matrix(0.35426787,0,0,0.28407894,-224.48191,135.33791)">
          <path
             sodipodi:nodetypes="csccscccsccccccccccccccc"
             inkscape:connector-curvature="0"
             id="path1909-2-5-3-2-5"
             d="m -229.37547,-131.70044 c -2.11146,0.57747 -5.30232,8.24619 -4.11327,10.99545 0.99024,2.28963 3.08877,3.28146 5.53734,3.80799 -1.51377,5.50581 -14.23707,10.16106 -16.74609,14.8524 -0.1809,3.466138 0.0333,10.246528 6.13503,11.253418 13.1859,2.17569 25.02606,-10.163818 29.38197,-24.587098 -3.32361,3.58488 -12.03102,12.44859 -16.92153,15.678958 -5.9874,3.83061 -11.70558,3.31572 -15.33258,1.55814 0.86769,-1.40187 4.7202,-3.810538 9.97959,-7.442488 5.25945,-3.63198 5.77035,-4.60215 7.28331,-10.08483 3.05169,1.15224 7.38795,0.55554 8.25735,-0.246 1.7733,-2.32653 2.50929,-5.0031 1.96212,-7.70985 -0.92835,-1.96512 -6.52932,-8.78883 -9.27636,-9.38775 0.002,-2.37834 -6.51339,-5.1879 -7.76658,-2.91735 -0.47718,0.92289 1.93659,2.53437 1.6197,4.22856 z m 3.98829,4.11735 c 0.7305,1.57824 0.58812,3.33597 -0.30372,4.26402 -7.8183,0.34818 -4.29546,-5.42427 0.30372,-4.26402 z m 2.96583,2.22147 c 1.83789,0.36978 3.79128,2.62806 5.22621,3.96141 -3.08571,0.42291 -4.09086,0.291 -5.72196,-0.2052 -0.1614,-1.27251 0.0501,-2.57934 0.49575,-3.75633 z"
             style="opacity:1;fill:#000000;fill-opacity:1;stroke:none;stroke-width:0.867467;stroke-linecap:square;stroke-linejoin:miter;stroke-miterlimit:4;stroke-dasharray:none;stroke-opacity:1" />
          <path
             sodipodi:nodetypes="ccccccscccsccscccccccccczccscccc"
             inkscape:connector-curvature="0"
             id="path966-4-7-0-4-3"
             d="m 138.40623,9.8958681 c -3.84777,1.2020099 -4.74273,1.7216399 -10.18806,3.9692099 -2.90982,-4.9817399 -3.65385,-5.3089199 -5.09679,-7.0701299 1.35432,-1.64415 14.00478,-0.81045 15.28485,3.10092 z M 124.46934,70.969748 C 109.78962,77.632358 99.633659,86.568038 100.23975,103.29313 83.335739,96.633248 78.852059,78.761288 76.657319,69.695738 73.249559,55.619798 64.733579,-0.69254186 46.409429,-11.278192 l -0.44319,22.31313 c 6.34569,10.60584 17.27199,40.78035 20.95263,58.21956 -6.47619,16.0299 -42.63513,44.920682 -59.2504804,43.966202 -11.85621,-0.68112 -10.40229,-15.887432 -2.42997,-44.276072 -12.29115,12.62964 -18.9461096,54.288992 -1.13541,61.415612 11.2608304,3.90543 27.1761304,-6.47502 42.2689504,-18.46245 22.28094,-17.696552 20.05482,-25.554692 22.48665,-34.849412 4.60599,20.3631 18.31932,48.281852 59.484601,49.106882 l 0.3231,-15.58884 c -7.42881,-0.68523 -20.73486,-11.863802 -20.9058,-15.378002 4.54506,-6.21081 28.59576,-19.12569 64.07217,-27.02652 4.82775,-7.48566 8.20038,-11.50689 10.05396,-15.64419 -8.99808,1.69788 -41.3871,2.90949 -49.84383,3.15627 -24.14889,-0.0354 -24.72789,0.38889 -39.625261,-0.0915 0.95937,-4.11834 24.324361,-23.01249 30.791911,-25.53219 1.18299,1.71765 1.60995,5.54964 2.42199,8.87727 7.33314,-4.6035 6.07929,-11.71341 6.22308,-12.29298 0.144,-0.57957 14.18226,-5.08836 19.24692,-7.43196 l 6.51147,-13.8558299 c -7.42299,-9.14415 -22.99797,-15.30564 -29.09337,-13.43316 -19.48821,5.98686 -12.0993,18.7148099 -9.44625,26.6242799 -19.188661,17.18808 -41.704771,23.04525 -42.367771,54.26178 8.04534,-2.05581 36.463501,-1.51146 47.763721,-1.8303 z"
             style="opacity:1;fill:#000000;fill-opacity:1;stroke:none;stroke-width:0.766661;stroke-linecap:square;stroke-linejoin:miter;stroke-miterlimit:4;stroke-dasharray:none;stroke-opacity:1" />
          <path
             sodipodi:nodetypes="ccsccssccscccsccscsccscccscc"
             inkscape:connector-curvature="0"
             id="path1012-1-0-9-8-9"
             d="m -30.570121,-13.590562 -2.67948,-0.0019 c -8.00859,12.5726401 -10.55079,23.3309101 -22.26,26.11239 -8.87706,2.10879 -18.38043,-0.47382 -14.67069,-23.03559 -10.62882,-2.5602 -38.393369,13.9119001 -46.145849,15.7676401 -2.27262,-12.66747 -9.39975,-19.7951101 -16.76655,-24.1788301 -23.84571,-14.18991 -36.79371,44.22426 -15.18507,44.84781 8.2242,0.2367 10.90701,0.1512 23.62446,0.021 1.7901,3.14124 5.502,10.56687 4.46988,16.34325 -11.5248,16.62141 -43.35492,41.83506 -64.0629,39.32055 -23.92056,-2.90451 -36.99942,-19.32213 -26.22627,-59.07117 l -1.16277,-0.009 c -4.67769,12.29346 -25.6551,65.23965 18.10158,77.541122 18.56592,3.46416 50.34003,-4.037942 75.58425,-39.611882 5.78412,-8.151 5.6724,-26.97864 5.13381,-36.85014 17.040899,-5.33718 23.919029,-13.01304 32.150669,-15.9056399 1.82169,21.5103299 14.38833,24.7331699 21.06612,24.4938599 14.14125,-0.50673 21.32442,-13.7211 24.21414,-20.07444 1.94835,7.75701 8.73945,13.3248 17.59653,11.71431 18.26036955,-3.32028 24.1794596,-34.14909 13.4066396,-47.07693 l -7.7004296,15.5261101 c 9.0513596,12.60708 2.0457,13.43142 -1.95084,14.38572 -12.37788,2.95557 -15.65397,-10.43316 -16.53723,-20.2619101 z M -131.66781,7.3165581 c -6.92433,0.60267 -13.57602,0.53955 -18.4812,0.1119 -1.1169,-2.29575 1.00371,-8.06801996 4.65168,-9.38712 4.54257,-1.64256 10.12647,2.30706004 13.82952,9.27522 z"
             style="opacity:1;fill:#000000;fill-opacity:1;stroke:none;stroke-width:0.766661;stroke-linecap:square;stroke-linejoin:miter;stroke-miterlimit:4;stroke-dasharray:none;stroke-opacity:1" />
          <path
             sodipodi:nodetypes="ccccc"
             inkscape:connector-curvature="0"
             id="path1476-2-2-2-8-2"
             d="m 21.820229,-130.30451 c 11.2347,6.78837 23.89191,25.4253 9.79416,53.312368 l -1.6863,0.0027 c 0.98373,-8.79978 7.57746,-25.407598 -8.166,-38.802328 z"
             style="opacity:1;fill:#000000;fill-opacity:1;stroke:none;stroke-width:0.766661;stroke-linecap:square;stroke-linejoin:miter;stroke-miterlimit:4;stroke-dasharray:none;stroke-opacity:1" />
          <path
             sodipodi:nodetypes="cccsscccccc"
             inkscape:connector-curvature="0"
             id="path1759-6-8-3-5-1"
             d="m 40.437299,14.724278 -0.1929,4.81101 -10.05888,-4.01883 c 6.47199,13.99143 13.59822,24.83889 10.76652,41.96331 -3.07992,18.62562 -59.85528,59.301392 -79.98507,64.655942 -16.19436,4.30779 -37.64823,4.59387 -60.57516,4.89003 47.25297,-11.27715 106.1078096,-45.960542 136.80192,-74.069192 -4.91913,-6.25911 -14.40024,-19.46769 -16.07769,-31.48644 -3.96426,-7.4448 -7.20171,-12.9473399 -7.20171,-12.9473399 l 2.85714,-17.52816 z"
             style="opacity:1;fill:#000000;fill-opacity:1;stroke:none;stroke-width:0.766661;stroke-linecap:square;stroke-linejoin:miter;stroke-miterlimit:4;stroke-dasharray:none;stroke-opacity:1" />
          <path
             sodipodi:nodetypes="cccscccscccc"
             inkscape:connector-curvature="0"
             id="path1813-3-4-4-4-2"
             d="m 396.6269,98.278268 c 0.25992,4.744922 10.05263,6.322562 17.69343,-1.08045 0.87648,-0.2409 2.61924,-0.2415 3.57312,-0.3546 -1.29939,6.459482 -9.62819,10.936352 -12.12469,12.505292 -3.92026,2.4636 -9.42035,6.83331 -14.90864,8.2959 l 0.075,-4.15485 c 1.42585,-1.01661 2.37424,-1.68216 4.73979,-3.73845 -6.4902,-3.4038 -6.62861,-7.44876 -5.21771,-10.267022 3.8798,-7.75011 12.30186,-16.3581 19.22656,-10.962 0.85256,4.15506 -2.13588,11.861342 -6.35496,5.98365 -2.98408,0.2196 -6.17804,1.84281 -6.70193,3.77253 z"
             style="opacity:1;fill:#000000;fill-opacity:1;stroke:none;stroke-width:1.29342;stroke-linecap:square;stroke-linejoin:miter;stroke-miterlimit:4;stroke-dasharray:none;stroke-opacity:1" />
          <path
             sodipodi:nodetypes="cccssccc"
             inkscape:connector-curvature="0"
             id="path1658-5-2-7-8-4-0"
             d="m 139.20789,-119.19719 c -1.86357,-1.60725 -9.92391,-0.42405 -12.70113,-1.12707 0.0864,-3.86256 1.08819,-8.11158 5.57958,-10.86087 6.55866,-1.88415 18.97224,2.03697 20.59839,4.24329 1.62627,2.20635 -4.58097,9.3066 -7.41255,11.00436 -9.80127,5.87667 -16.01859,6.68637 -19.1346,7.15296 -1.43223,-0.39504 -2.78286,-1.05555 -4.13343,-1.67529 8.0763,-2.04681 17.0091,-6.75849 17.20374,-8.73738 z"
             style="opacity:1;fill:#000000;fill-opacity:1;stroke:none;stroke-width:0.766661;stroke-linecap:square;stroke-linejoin:miter;stroke-miterlimit:4;stroke-dasharray:none;stroke-opacity:1" />
          <path
             sodipodi:nodetypes="sccccscccc"
             inkscape:connector-curvature="0"
             id="path1915-6-4-2-0-5"
             d="m 169.57122,94.738988 c -4.57905,-0.1083 -9.17718,14.860562 -23.28105,27.720662 -15.47667,12.49158 -23.17875,15.21108 -35.79066,20.81976 22.00506,-1.22268 43.2573,-13.52385 51.37272,-34.03548 1.81602,1.55085 7.05996,4.5489 10.52115,3.22335 7.03506,-8.98557 -1.03038,-17.685872 -2.82216,-17.728292 z m 1.71384,10.926782 c -0.47028,0.2907 -4.17342,-1.06947 -5.48208,-2.30082 0.2556,-1.24053 1.87128,-2.07567 2.85807,-1.70292 2.71575,1.86999 3.63435,3.12447 2.62401,4.00374 z"
             style="opacity:1;fill:#000000;fill-opacity:1;stroke:none;stroke-width:0.766661;stroke-linecap:square;stroke-linejoin:miter;stroke-miterlimit:4;stroke-dasharray:none;stroke-opacity:1" />
          <path
             sodipodi:nodetypes="ccccccsc"
             inkscape:connector-curvature="0"
             id="path1963-1-6-5-8-7"
             d="m -167.57397,16.752848 c -10.82679,-4.26042 -13.7565,19.14084 -16.86774,31.25076 -6.29658,-18.11034 -13.44612,-18.95919 -17.03961,-17.39268 -13.67874,6.11331 1.64625,28.0038 8.86857,14.9253 2.30652,2.75745 3.87858,8.03412 9.77568,19.11546 2.01372,-14.89566 4.1067,-39.4422 15.17598,-29.4045 7.14633,-7.61133 2.85438,-17.26509 0.0882,-18.49434 z"
             style="opacity:1;fill:#000000;fill-opacity:1;stroke:none;stroke-width:0.766661;stroke-linecap:square;stroke-linejoin:miter;stroke-miterlimit:4;stroke-dasharray:none;stroke-opacity:1" />
          <path
             sodipodi:nodetypes="csccccccscczcc"
             inkscape:connector-curvature="0"
             id="path1913-4-6-6-1-1-4"
             d="m -200.01012,-32.849662 c -2.36013,-0.1881 -5.42001,4.04223 -6.96804,9.12393 -1.71417,5.62695 -2.24877,8.90814 7.99077,14.8147501 -7.44075,17.48547 -35.94732,36.2951099 -42.84987,40.9734299 24.17445,-2.09649 44.34906,-27.4565699 46.04535,-38.4365099 2.86863,2.51688 5.3037,2.72358 4.28181,12.57825 1.1961,-1.85394 4.72464,-5.41937996 3.51993,-12.22353 -2.19315,-7.3519801 -4.81053,-7.3518301 -6.05652,-9.3482701 1.0506,-6.8115 -0.77754,-17.06916 -5.96496,-17.48205 z m 1.86462,14.53173 c -0.68082,-0.51516 -4.54101,-3.5889 -5.52417,-5.27763 0.72927,-1.80963 3.13692,-1.58598 4.38909,-0.66732 1.25202,0.91869 1.22271,5.79909 1.13508,5.94495 z"
             style="opacity:1;fill:#000000;fill-opacity:1;stroke:none;stroke-width:0.91532;stroke-linecap:square;stroke-linejoin:miter;stroke-miterlimit:4;stroke-dasharray:none;stroke-opacity:1" />
          <path
             sodipodi:nodetypes="cccccccccscccc"
             inkscape:connector-curvature="0"
             id="path1917-9-1-7-8-3-4"
             d="m 69.286979,-115.36076 c 1.33806,0.59244 -1.77006,12.84048 2.84979,12.56235 4.27989,-0.63993 1.70136,-7.83135 1.38582,-11.46765 0.64389,-1.44087 1.34559,-2.47737 2.27835,-3.28293 0.96783,1.39554 1.34871,2.41848 2.25372,4.4625 -0.0354,1.55385 -1.09506,7.46931 2.62542,7.9911 3.70038,0.2904 0.45357,-7.38549 0.2469,-9.98121 0.63081,-2.39349 2.25093,-4.15326 2.25093,-4.15326 7.56369,20.987128 -1.64937,24.305458 -7.17399,18.35856 -2.77956,5.046268 -4.56051,4.732948 -5.89302,4.697488 -5.33937,-0.1416 -3.83232,-10.566958 -4.20882,-10.825468 -0.90618,0.50412 -1.49274,1.01325 -2.3721,2.08791 l -0.1656,-2.98266 z"
             style="opacity:1;fill:#000000;fill-opacity:1;stroke:none;stroke-width:0.595557;stroke-linecap:square;stroke-linejoin:miter;stroke-miterlimit:4;stroke-dasharray:none;stroke-opacity:1" />
          <path
             sodipodi:nodetypes="ccccsccscccccc"
             inkscape:connector-curvature="0"
             id="path1882"
             d="m -126.9582,-131.08973 -6.12576,16.21857 4.97895,16.996948 24.48285,160.35687 c -6.82578,9.27606 -43.41612,52.952192 -83.15469,49.900772 -62.88507,-4.82883 -33.66333,-76.986482 -34.40646,-83.673842 l -0.74907,-0.024 c -34.54536,77.061122 6.88488,102.645152 33.28038,103.500662 35.05083,1.13607 66.92226,-21.23883 86.55081,-50.687462 12.417569,-21.42915 0.42315,-76.6336799 -3.03036,-98.6202 -3.20601,-23.47167 -8.18544,-52.26921 -12.4923,-78.59874 3.51573,2.44992 7.3509,4.06557 7.3509,4.06557 v -5.13393 z"
             style="fill:#000000;fill-opacity:1;stroke:none;stroke-width:0.92406px;stroke-linecap:butt;stroke-linejoin:miter;stroke-opacity:1" />
          <path
             sodipodi:nodetypes="ccccccccc"
             inkscape:connector-curvature="0"
             id="path1008-5-2-0-4-7-5"
             d="m 184.09188,-90.687322 -7.17456,-6.69222 c 2.8719,19.95507 9.38301,63.60306 16.12278,105.5583901 1.10178,13.5659099 17.22297,77.8173299 0.64572,91.6243199 1.44762,-25.77609 -14.98284,-107.2581599 -19.78614,-144.69348 -0.80421,-6.72015 -7.91061,-56.458708 -12.10089,-70.580728 l 5.03061,-17.76966 17.26194,35.727568 z"
             style="opacity:1;fill:#000000;fill-opacity:1;stroke:none;stroke-width:0.766661;stroke-linecap:square;stroke-linejoin:miter;stroke-miterlimit:4;stroke-dasharray:none;stroke-opacity:1" />
          <path
             sodipodi:nodetypes="ccscccccc"
             inkscape:connector-curvature="0"
             id="path1008-5-2-0-4-7-5-8"
             d="m 155.28681,-73.571392 -11.28645,-1.02066 c 21.77331,26.59389 34.90497,42.87264 67.16406,77.8314601 31.42365,34.0534499 37.98462,40.9706399 32.75673,69.9069599 -2.88264,-26.02884 -19.82574,-34.43352 -50.74422,-69.4297499 -4.2255,-5.13885 -43.05612,-46.0513801 -70.77453,-88.6311901 l 2.556,-18.161158 30.23382,25.885138 z"
             style="opacity:1;fill:#000000;fill-opacity:1;stroke:none;stroke-width:0.766661;stroke-linecap:square;stroke-linejoin:miter;stroke-miterlimit:4;stroke-dasharray:none;stroke-opacity:1" />
          <path
             sodipodi:nodetypes="ccscccccc"
             inkscape:connector-curvature="0"
             id="path1008-5-2-0-4-7-5-5"
             d="m 301.50207,-88.469062 -7.1745,-6.69234 c 2.87193,19.95516 9.56826,62.76192 15.71859,104.8077001 7.54518,51.5822099 20.18199,99.7683319 7.44087,125.3878519 C 313.16391,95.221868 303.86592,43.567358 298.76013,6.1297881 297.95598,-0.59036186 283.56276,-97.905712 279.20901,-113.25287 l 5.03061,-17.76963 17.26197,35.727508 z"
             style="opacity:1;fill:#000000;fill-opacity:1;stroke:none;stroke-width:0.766661;stroke-linecap:square;stroke-linejoin:miter;stroke-miterlimit:4;stroke-dasharray:none;stroke-opacity:1" />
          <path
             sodipodi:nodetypes="ccscccccc"
             inkscape:connector-curvature="0"
             id="path1008-5-2-0-4-7-5-6"
             d="m 411.92992,-88.429462 -7.17451,-6.69228 c 2.87188,19.95513 8.60123,63.42513 15.77631,105.67398 6.91451,40.71447 6.27825,55.46355 0.0544,74.91717 -4.85935,-34.74609 -13.23622,-88.4838899 -19.13721,-128.21742 -0.80418,-6.72012 -7.40064,-54.42498 -11.75436,-69.772138 l 4.74188,-18.9825 17.49291,36.247288 z"
             style="opacity:1;fill:#000000;fill-opacity:1;stroke:none;stroke-width:0.766661;stroke-linecap:square;stroke-linejoin:miter;stroke-miterlimit:4;stroke-dasharray:none;stroke-opacity:1" />
          <path
             sodipodi:nodetypes="ccssccccccc"
             inkscape:connector-curvature="0"
             id="path1008-5-2-0-4-7-5-9"
             d="m 247.73238,-89.115982 -6.94353,-6.37464 c 4.83549,33.0075 9.34803,62.80959 16.18062,104.7499201 3.39717,20.8531199 10.33983,64.9302599 -14.1537,91.2851719 -21.59076,23.23158 -49.23672,25.57416 -64.60104,25.96212 25.63593,-14.78682 71.96637,-37.000172 75.06999,-66.481082 -1.70562,-20.74785 -10.53705,-67.2087899 -15.80238,-103.83564 -0.80418,-6.72006 -7.57386,-52.54788 -11.69664,-68.934688 l 4.85742,-18.49164 17.08863,36.276208 z"
             style="opacity:1;fill:#000000;fill-opacity:1;stroke:none;stroke-width:0.766661;stroke-linecap:square;stroke-linejoin:miter;stroke-miterlimit:4;stroke-dasharray:none;stroke-opacity:1" />
          <path
             sodipodi:nodetypes="ccccccccc"
             inkscape:connector-curvature="0"
             id="path1008-5-2-0-4-7-5-8-0"
             d="m 342.81564,-101.41763 -10.63293,-1.10226 c 30.62076,37.022728 62.51366,70.424398 94.34995,104.8388681 31.81938,32.9285999 39.97926,45.0255899 33.77866,70.5876599 1.52806,-23.74449 -49.35629,-63.9472499 -77.23686,-97.11822 -30.11687,-34.70571 -44.52641,-47.52162 -72.81653,-88.386238 l 2.06595,-17.83443 c 9.31167,5.56425 30.56052,25.23171 30.56052,25.23171 z"
             style="opacity:1;fill:#000000;fill-opacity:1;stroke:none;stroke-width:0.766661;stroke-linecap:square;stroke-linejoin:miter;stroke-miterlimit:4;stroke-dasharray:none;stroke-opacity:1" />
          <path
             sodipodi:nodetypes="ccccc"
             inkscape:connector-curvature="0"
             id="path1476-2-2-2-8-2-3"
             d="m 342.9063,-6.4539519 c 11.23467,6.78840004 23.89191,25.4253299 9.79413,53.3123999 l -1.68624,0.0027 c 0.98367,-8.79972 7.57743,-25.40751 -8.16603,-38.8022699 z"
             style="opacity:1;fill:#000000;fill-opacity:1;stroke:none;stroke-width:0.766661;stroke-linecap:square;stroke-linejoin:miter;stroke-miterlimit:4;stroke-dasharray:none;stroke-opacity:1" />
          <path
             sodipodi:nodetypes="ccccc"
             inkscape:connector-curvature="0"
             id="path1476-2-2-2-8-2-1"
             d="m 429.18211,-70.810612 c 11.23463,6.78843 23.89187,25.42545 9.79411,53.31243 l -1.68625,0.0028 c 0.98366,-8.79972 7.57742,-25.40754 -8.16605,-38.80224 z"
             style="opacity:1;fill:#000000;fill-opacity:1;stroke:none;stroke-width:0.766661;stroke-linecap:square;stroke-linejoin:miter;stroke-miterlimit:4;stroke-dasharray:none;stroke-opacity:1" />
          <path
             sodipodi:nodetypes="ccccc"
             inkscape:connector-curvature="0"
             id="path1476-2-2-2-8-2-5"
             d="m -175.90035,-127.5095 c 11.23458,6.78831 23.89185,25.42533 9.7941,53.312368 l -1.68624,0.0026 c 0.98364,-8.79978 7.57743,-25.4076 -8.16606,-38.802268 z"
             style="opacity:1;fill:#000000;fill-opacity:1;stroke:none;stroke-width:0.766661;stroke-linecap:square;stroke-linejoin:miter;stroke-miterlimit:4;stroke-dasharray:none;stroke-opacity:1" />
          <path
             sodipodi:nodetypes="cccssccc"
             inkscape:connector-curvature="0"
             id="path1658-5-2-7-8-4-0-7"
             d="m 206.38266,-119.00516 c -1.86351,-1.60722 -9.92391,-0.42402 -12.70116,-1.12701 0.0864,-3.86253 1.08822,-8.11161 5.57964,-10.86093 6.5586,-1.88418 18.97224,2.03697 20.59845,4.24332 1.62618,2.20638 -4.58103,9.30663 -7.41261,11.00439 -9.80133,5.87664 -16.01865,6.68634 -19.13466,7.1529 -1.43223,-0.39501 -2.7828,-1.05558 -4.13337,-1.67529 8.07633,-2.04678 17.00904,-6.75849 17.20371,-8.73738 z"
             style="opacity:1;fill:#000000;fill-opacity:1;stroke:none;stroke-width:0.766661;stroke-linecap:square;stroke-linejoin:miter;stroke-miterlimit:4;stroke-dasharray:none;stroke-opacity:1" />
          <path
             sodipodi:nodetypes="cccssccc"
             inkscape:connector-curvature="0"
             id="path1658-5-2-7-8-4-0-6"
             d="m 263.90538,-119.35166 c -1.86354,-1.60728 -9.92391,-0.42405 -12.70116,-1.12704 0.0864,-3.86256 1.08822,-8.11158 5.57961,-10.86096 6.5586,-1.88412 18.97224,2.03697 20.59845,4.24335 1.62624,2.20635 -4.58106,9.30657 -7.41261,11.00436 -9.80127,5.87667 -16.01865,6.68637 -19.13463,7.15293 -1.43223,-0.39507 -2.78283,-1.05558 -4.13337,-1.67523 8.0763,-2.04687 17.00907,-6.75852 17.20371,-8.73741 z"
             style="opacity:1;fill:#000000;fill-opacity:1;stroke:none;stroke-width:0.766661;stroke-linecap:square;stroke-linejoin:miter;stroke-miterlimit:4;stroke-dasharray:none;stroke-opacity:1" />
          <path
             sodipodi:nodetypes="cccssccc"
             inkscape:connector-curvature="0"
             id="path1658-5-2-7-8-4-0-8"
             d="m 424.69182,-119.00516 c -1.86356,-1.60722 -9.92396,-0.42402 -12.70117,-1.12701 0.0866,-3.86253 1.0882,-8.11161 5.5796,-10.86093 6.55862,-1.88418 18.97225,2.03697 20.59844,4.24332 1.62621,2.20638 -4.58103,9.30663 -7.41261,11.00439 -9.80128,5.87664 -16.01864,6.68634 -19.13462,7.1529 -1.43224,-0.39501 -2.78283,-1.05558 -4.13339,-1.67529 8.07633,-2.04678 17.00908,-6.75849 17.20375,-8.73738 z"
             style="opacity:1;fill:#000000;fill-opacity:1;stroke:none;stroke-width:0.766661;stroke-linecap:square;stroke-linejoin:miter;stroke-miterlimit:4;stroke-dasharray:none;stroke-opacity:1" />
          <path
             sodipodi:nodetypes="cccssccc"
             inkscape:connector-curvature="0"
             id="path1658-5-2-7-8-4-0-0"
             d="m -226.29681,-2.5336719 c -1.8636,-1.60725 -9.92397,-0.42408 -12.70116,-1.12704 0.0864,-3.86259 1.08819,-8.1115801 5.57955,-10.8609601 6.55866,-1.88415 18.97227,2.037 20.59845,4.24335 1.62621,2.2063201 -4.58103,9.30657014 -7.41261,11.00433014 -9.80127,5.87663996 -16.01865,6.68636996 -19.1346,7.15292996 -1.43226,-0.39501 -2.78289,-1.05555 -4.13337,-1.67529 8.07627,-2.04678 17.00904,-6.75848996 17.20374,-8.73732 z"
             style="opacity:1;fill:#000000;fill-opacity:1;stroke:none;stroke-width:0.766661;stroke-linecap:square;stroke-linejoin:miter;stroke-miterlimit:4;stroke-dasharray:none;stroke-opacity:1" />
          <path
             sodipodi:nodetypes="ccccsscsscccsccssccccscccc"
             inkscape:connector-curvature="0"
             id="path1438-35-3-4-1-4-8-7-5"
             d="m -107.45619,-134.27708 c 4.34916,6.73689 11.840009,16.25493 16.005569,23.72352 0.0579,1.96479 -0.1716,3.20478 -0.0795,5.02188 -7.38216,-4.2621 -2.01372,-1.21035 -6.55374,-3.69966 5.34858,10.576678 16.31097,34.377598 15.00561,49.271398 -1.72383,19.66812 -22.816259,34.32546 -43.515119,25.24812 -10.97616,-4.81353 -15.22164,-21.78435 -15.22164,-21.78435 0,0 -2.33583,8.76495 -4.72215,14.30523 -5.83443,13.54575 -31.8285,23.07207 -44.99661,8.32059 -18.36837,-20.57685 -4.06839,-47.20134 -8.33184,-57.55146 -15.27903,29.51961 -6.89736,63.13515 -26.66337,63.33246 -10.77417,-1.49958 -24.31509,-31.92633 -13.72557,-60.74472 -0.95034,20.52138 2.17542,43.74477 13.99374,44.25909 2.89413,0.126 4.55094,-2.48652 7.76235,-9.69744 6.91938,-17.5965 8.19219,-49.949428 29.55729,-60.121348 1.50663,9.58077 -0.0633,23.505178 -2.36529,36.187948 -3.11052,17.13777 5.06007,38.32362 26.44524,32.02911 3.96078,-1.1658 9.80958,-3.73584 17.92305,-18.35472 2.91258,-10.91559 -4.55907,-33.65892 -6.82824,-48.817708 1.33752,-3.38511 3.94488,-11.34282 5.74554,-14.18112 1.68387,1.62561 6.59508,11.01345 6.74439,12.76824 2.9022,16.179058 3.52008,52.623328 18.60624,62.968438 7.98933,5.47851 28.160789,1.2276 34.062719,-7.64205 -4.67343,-7.24356 -18.193259,-33.71535 -19.558349,-51.044788 -0.53574,-3.20934 -2.34954,-7.21608 -2.79033,-8.63091 z"
             style="opacity:1;fill:#000000;fill-opacity:1;stroke:none;stroke-width:0.766661;stroke-linecap:square;stroke-linejoin:miter;stroke-miterlimit:4;stroke-dasharray:none;stroke-opacity:1" />
          <path
             sodipodi:nodetypes="ccssccccccc"
             inkscape:connector-curvature="0"
             id="path1008-5-2-0-4-7-5-9-4"
             d="m 464.39983,-88.692112 -6.94348,-6.37467 c 4.83552,33.0075 9.34798,62.80962 16.18058,104.7499501 3.3972,20.8530899 11.09146,66.5744699 -14.43872,91.9265119 -20.16561,20.02482 -40.68529,23.65008 -65.52745,25.107 23.85441,-12.93363 73.24905,-37.214162 76.2814,-66.267332 -1.7056,-20.74785 -10.53704,-67.2087899 -15.80238,-103.83558 -0.80415,-6.72012 -7.57392,-52.54803 -11.69662,-68.934718 l 4.85738,-18.49167 17.08867,36.276238 z"
             style="opacity:1;fill:#000000;fill-opacity:1;stroke:none;stroke-width:0.766661;stroke-linecap:square;stroke-linejoin:miter;stroke-miterlimit:4;stroke-dasharray:none;stroke-opacity:1" />
          <path
             sodipodi:nodetypes="ccssssccssscccccc"
             inkscape:connector-curvature="0"
             id="path1008-5-2-0-4-7-5-9-4-5"
             d="m 376.62017,-89.019052 -6.9435,-6.37464 c 4.83546,33.00741 8.93956,61.58436 15.77218,103.5246901 3.39722,20.8531499 9.51322,51.7150199 3.00792,68.4284699 -6.07098,15.59766 -10.60209,28.805972 -31.2543,30.076862 -31.64763,1.94757 -25.87551,-42.576272 -44.61558,-42.173732 -29.70048,0.63792 -39.13857,80.750912 -56.43504,82.077272 -22.61787,1.29858 -38.19591,-47.098082 -23.8596,-77.015702 -3.61899,31.414592 6.3267,57.226202 19.9764,57.594542 18.88227,0.50952 26.88354,-83.360282 65.39106,-82.163852 18.31545,0.56904 12.09675,42.14718 40.96953,43.03494 12.54717,0.38586 22.46825,-8.41713 23.61093,-16.71129 -1.70564,-20.74788 -10.6864,-75.0982199 -15.95177,-111.72498 -0.8042,-6.72012 -7.49224,-55.81506 -11.61499,-72.201808 l 4.85742,-18.49158 17.08867,36.276238 z"
             style="opacity:1;fill:#000000;fill-opacity:1;stroke:none;stroke-width:0.766661;stroke-linecap:square;stroke-linejoin:miter;stroke-miterlimit:4;stroke-dasharray:none;stroke-opacity:1" />
          <path
             sodipodi:nodetypes="csccccccccccccccccc"
             inkscape:connector-curvature="0"
             id="path1909-2-5-3-2-5-6"
             d="m -13.597981,-130.27103 c -2.2656,-0.1188 -5.85279,6.41061 -5.45247,8.92719 0.42327,2.66076 1.011,2.91396 3.08289,3.67362 -15.82884,15.52977 -22.30617,14.29671 -38.31915,19.559818 29.26599,2.47974 37.5243,-12.665728 41.4531,-18.118138 2.52141,1.37946 7.8363896,1.9248 8.6932796,1.33185 1.83255,-1.81245 2.80911,-4.10154 2.66361,-6.53028 -0.56904,-1.82841 -4.27374,-8.37561 -6.59712,-9.23508 0.2931,-2.07492 -5.0468096,-5.32521 -6.4187396,-3.49785 -0.52953,0.74685 1.37892,2.44872 0.89469,3.88827 z m 2.97498,4.08144 c 0.44382,1.46667 0.1044,2.98287 -0.78795,3.68319 -6.86433,-0.65487 -3.08271,-5.25948 0.78795,-3.68319 z m 2.3153096,2.30208 c 1.55823,0.54804 2.57736,2.59452 3.66588,3.93378 -2.74425,-0.009 -3.1968,-0.0828 -4.55904,-0.71718 0.012,-1.13016 0.36012,-2.24442 0.89316,-3.21663 z"
             style="opacity:1;fill:#000000;fill-opacity:1;stroke:none;stroke-width:0.764319;stroke-linecap:square;stroke-linejoin:miter;stroke-miterlimit:4;stroke-dasharray:none;stroke-opacity:1" />
          <path
             sodipodi:nodetypes="csccccccscczcc"
             inkscape:connector-curvature="0"
             id="path1913-4-6-6-1-1-4-8"
             d="m 131.24976,-54.825622 c -1.93062,-0.1536 -4.43349,3.30639 -5.69979,7.46319 -1.40214,4.60278 -1.83948,7.2867 6.53637,12.1182 1.5147,6.64452 -22.76628,23.6298 -30.89217,28.8343801 22.69662,-4.2996301 30.24183,-16.4893801 33.50577,-26.7591901 2.34648,2.05872 4.33833,2.22786 3.50241,10.2888 0.97839,-1.5165 3.86466,-4.43298 2.87928,-9.99873 -1.79394,-6.0138 -3.93495,-6.01365 -4.9542,-7.64664 0.85944,-5.57175 -0.63591,-13.9623 -4.8792,-14.30001 z m 1.5252,11.88666 c -0.55692,-0.42135 -3.71448,-2.93565 -4.51869,-4.31697 0.59655,-1.48029 2.56599,-1.29735 3.59019,-0.54591 1.02414,0.75144 1.00011,4.74357 0.9285,4.86288 z"
             style="opacity:1;fill:#000000;fill-opacity:1;stroke:none;stroke-width:0.748717;stroke-linecap:square;stroke-linejoin:miter;stroke-miterlimit:4;stroke-dasharray:none;stroke-opacity:1" />
          <path
             sodipodi:nodetypes="cccccccccscccc"
             inkscape:connector-curvature="0"
             id="path1917-9-1-7-8-3-4-9"
             d="m 77.048489,0.08445814 c 1.2012,1.21781996 -2.08575,15.12989986 3.35778,14.80220986 5.04309,-0.75405 2.00472,-9.2276699 1.63287,-13.5123299 0.75876,-1.69772996 1.58556,-2.91915 2.68461,-3.86829 1.14057,1.64439004 1.58925,2.84973004 2.65557,5.25807 -0.0411,1.83099 -1.29024,8.8012199 3.09348,9.4159799 4.36026,0.34263 0.5346,-8.7023099 0.2904,-11.76074986 0.74322,-2.82030004 2.91225,-5.06709004 2.91225,-5.06709004 8.912131,24.7290899 -2.03016,29.1299099 -8.5398,22.1227199 -3.27516,5.946 -5.37363,5.57679 -6.94374,5.53506 -6.29142,-0.1668 -4.68885,-12.7686 -5.13258,-13.0733699 -1.06776,0.5941199 -1.81659,1.5693899 -2.85276,2.8356899 l 0.1512,-4.4096999 z"
             style="opacity:1;fill:#000000;fill-opacity:1;stroke:none;stroke-width:0.701743;stroke-linecap:square;stroke-linejoin:miter;stroke-miterlimit:4;stroke-dasharray:none;stroke-opacity:1" />
          <path
             sodipodi:nodetypes="cccccccccscccc"
             inkscape:connector-curvature="0"
             id="path1917-9-1-7-8-3-4-9-0"
             d="m 200.62365,-79.594702 c 1.20129,1.21788 -2.08566,15.12993 3.35781,14.80224 5.04303,-0.75402 2.00472,-9.22773 1.63284,-13.51239 0.75876,-1.69776 1.58565,-2.91909 2.68467,-3.86823 1.14045,1.64436 1.58925,2.84976 2.65557,5.2581 -0.0411,1.83093 -1.2903,8.80113 3.09339,9.41595 4.36029,0.34266 0.53463,-8.70234 0.2904,-11.76084 0.74328,-2.82021 2.91219,-5.06706 2.91219,-5.06706 8.91222,24.72915 -2.03019,29.12991 -8.53968,22.12281 -3.27516,5.94597 -5.37372,5.57676 -6.94383,5.53506 -6.29142,-0.1671 -4.68882,-12.7686 -5.13261,-13.0734 -1.06773,0.59412 -1.8165,1.56939 -2.85261,2.83572 l 0.1512,-4.4097 z"
             style="opacity:1;fill:#000000;fill-opacity:1;stroke:none;stroke-width:0.701743;stroke-linecap:square;stroke-linejoin:miter;stroke-miterlimit:4;stroke-dasharray:none;stroke-opacity:1" />
          <path
             sodipodi:nodetypes="ccccccccc"
             inkscape:connector-curvature="0"
             id="path1008-5-2-0-4-7-5-1"
             d="m -57.511141,-91.889242 -7.17453,-6.69222 c 2.8719,19.95504 9.38301,63.60306 16.12275,105.5583901 1.10178,13.5659099 17.22297,77.8173299 0.64572,91.6242899 1.44765,-25.77606 -14.98281,-107.2581299 -19.78614,-144.69348 -0.80418,-6.72012 -7.91058,-56.458678 -12.10089,-70.580698 l 5.03064,-17.76966 17.26191,35.727568 z"
             style="opacity:1;fill:#000000;fill-opacity:1;stroke:none;stroke-width:0.766661;stroke-linecap:square;stroke-linejoin:miter;stroke-miterlimit:4;stroke-dasharray:none;stroke-opacity:1" />
          <path
             sodipodi:nodetypes="ccccsscsscccsccssccccscccc"
             inkscape:connector-curvature="0"
             id="path1438-35-3-4-1-4-8-7-5-0"
             d="m 92.635709,-134.28407 c 4.34919,6.73689 11.840011,16.2549 16.005571,23.72352 0.0579,1.96476 -0.1716,3.20478 -0.0798,5.02185 -7.38216,-4.26207 -2.01369,-1.21032 -6.55371,-3.69963 5.34858,10.576648 16.31097,34.377568 15.00561,49.271398 -1.72386,19.66812 -22.816291,34.32546 -43.515151,25.24812 -10.97613,-4.81353 -15.22161,-21.78435 -15.22161,-21.78435 0,0 -2.33586,8.76495 -4.72215,14.30523 -5.83446,13.54575 -31.82853,23.07204 -44.9966404,8.32059 -18.36837,-20.57685 -4.06836,-47.20137 -8.33181005,-57.55149 -15.27902955,29.51964 -6.89738995,63.13518 -26.66339955,63.33249 -10.77414,-1.49961 -24.25605,-29.24877 -13.524,-63.76815 -0.95031,20.52141 1.97385,46.7682 13.79217,47.28252 2.89416,0.126 4.55094,-2.48652 7.76235,-9.69744 6.91938,-17.5965 8.19219,-49.949458 29.55729,-60.121348 1.50663,9.58077 -0.0633,23.505178 -2.3652604,36.187918 -3.11052,17.1378 5.0600704,38.32365 26.4452104,32.02914 3.96081,-1.1658 9.80958,-3.73587 17.92305,-18.35475 2.91258,-10.91556 -4.55907,-33.65892 -6.82821,-48.817708 1.33752,-3.38511 3.94485,-11.34279 5.74551,-14.18109 1.68387,1.62558 6.59508,11.01345 6.74442,12.76824 2.90217,16.179028 3.52005,52.623328 18.60621,62.968438 7.98933,5.47848 28.160821,1.2276 34.062751,-7.64205 -4.67343,-7.24356 -18.193291,-33.71538 -19.558381,-51.044788 -0.53571,-3.20934 -2.34951,-7.21608 -2.7903,-8.63091 z"
             style="opacity:1;fill:#000000;fill-opacity:1;stroke:none;stroke-width:0.766661;stroke-linecap:square;stroke-linejoin:miter;stroke-miterlimit:4;stroke-dasharray:none;stroke-opacity:1" />
          <path
             sodipodi:nodetypes="scsccs"
             inkscape:connector-curvature="0"
             id="path1284-4-03-84-8-3-7-2-2"
             d="M 163.79082,45.752138 C 147.03855,43.883648 169.33011,6.8245281 178.52403,5.9554581 164.90355,21.818738 165.71637,27.566348 165.76287,29.694428 c 0.0537,2.43645 2.80674,5.92599 6.3714,2.1945 l 1.31148,0.87399 c -0.2904,1.23441 -3.20958,13.70811 -9.65493,12.98922 z"
             style="opacity:1;fill:#000000;fill-opacity:1;stroke:none;stroke-width:0.646118;stroke-linecap:square;stroke-linejoin:miter;stroke-miterlimit:4;stroke-dasharray:none;stroke-opacity:1" />
          <path
             sodipodi:nodetypes="scsccs"
             inkscape:connector-curvature="0"
             id="path1284-4-03-84-8-3-7-2-2-1"
             d="m 217.68906,-6.9287319 c -16.75227,-1.86849 5.53929,-38.9276101 14.73321,-39.7966801 -13.62048,15.86328 -12.80766,21.61089 -12.76116,23.73897 0.0537,2.43645 2.80674,5.92599 6.3714,2.1945 l 1.31148,0.87399 c -0.2904,1.23441 -3.20958,13.7081101 -9.65493,12.9892201 z"
             style="opacity:1;fill:#000000;fill-opacity:1;stroke:none;stroke-width:0.646118;stroke-linecap:square;stroke-linejoin:miter;stroke-miterlimit:4;stroke-dasharray:none;stroke-opacity:1" />
          <path
             sodipodi:nodetypes="scsccs"
             inkscape:connector-curvature="0"
             id="path1284-4-03-84-8-3-7-2-2-9"
             d="m 263.9931,-25.219372 c -20.15067,-2.24751 6.663,-46.82448 17.72196,-47.86986 -16.38351,19.08129 -15.40578,25.99488 -15.34989,28.55466 0.0648,2.93073 3.37614,7.12815 7.66392,2.6397 l 1.57752,1.05129 c -0.34929,1.48482 -3.86067,16.48893 -11.61351,15.62421 z"
             style="opacity:1;fill:#000000;fill-opacity:1;stroke:none;stroke-width:0.77719;stroke-linecap:square;stroke-linejoin:miter;stroke-miterlimit:4;stroke-dasharray:none;stroke-opacity:1" />
          <path
             sodipodi:nodetypes="scsccs"
             inkscape:connector-curvature="0"
             id="path1284-4-03-84-8-3-7-2-2-9-7"
             d="m 275.20719,50.399468 c -20.15067,-2.24751 6.663,-46.8244799 17.72196,-47.8698599 -16.38351,19.0812899 -15.40578,25.9948799 -15.34989,28.5546599 0.0648,2.93073 3.37614,7.12815 7.66392,2.6397 l 1.57752,1.05129 c -0.34929,1.48482 -3.86067,16.48893 -11.61351,15.62421 z"
             style="opacity:1;fill:#000000;fill-opacity:1;stroke:none;stroke-width:0.77719;stroke-linecap:square;stroke-linejoin:miter;stroke-miterlimit:4;stroke-dasharray:none;stroke-opacity:1" />
          <path
             sodipodi:nodetypes="scsccs"
             inkscape:connector-curvature="0"
             id="path1284-4-03-84-8-3-7-2-2-9-8"
             d="m 323.29254,-13.003912 c -20.15067,-2.24751 6.663,-46.82448 17.72196,-47.86986 -16.38351,19.08129 -15.40578,25.99488 -15.34989,28.55466 0.0648,2.93073 3.37614,7.12815 7.66392,2.6397 l 1.57752,1.05129 c -0.34929,1.48482 -3.86067,16.48893 -11.61351,15.62421 z"
             style="opacity:1;fill:#000000;fill-opacity:1;stroke:none;stroke-width:0.77719;stroke-linecap:square;stroke-linejoin:miter;stroke-miterlimit:4;stroke-dasharray:none;stroke-opacity:1" />
          <path
             sodipodi:nodetypes="scsccs"
             inkscape:connector-curvature="0"
             id="path1284-4-03-84-8-3-7-2-2-9-88"
             d="m 290.21793,136.73386 c -20.15067,-2.24751 6.663,-46.824482 17.72196,-47.869862 -16.38351,19.081292 -15.40578,25.994882 -15.34989,28.554662 0.0648,2.93073 3.37614,7.12815 7.66392,2.6397 l 1.57752,1.05129 c -0.34929,1.48482 -3.86067,16.48893 -11.61351,15.62421 z"
             style="opacity:1;fill:#000000;fill-opacity:1;stroke:none;stroke-width:0.77719;stroke-linecap:square;stroke-linejoin:miter;stroke-miterlimit:4;stroke-dasharray:none;stroke-opacity:1" />
          <path
             sodipodi:nodetypes="scsccs"
             inkscape:connector-curvature="0"
             id="path1284-4-03-84-8-3-7-2-2-9-6"
             d="m -18.077461,72.789638 c -20.15067,-2.24751 6.663,-46.82448 17.72195955,-47.86986 -16.38350955,19.08129 -15.40577955,25.99488 -15.34988955,28.55466 0.0648,2.93073 3.37614,7.12815 7.6639196,2.6397 l 1.57752,1.05129 c -0.34929,1.48482 -3.8606696,16.48893 -11.6135096,15.62421 z"
             style="opacity:1;fill:#000000;fill-opacity:1;stroke:none;stroke-width:0.77719;stroke-linecap:square;stroke-linejoin:miter;stroke-miterlimit:4;stroke-dasharray:none;stroke-opacity:1" />
          <path
             sodipodi:nodetypes="scsccs"
             inkscape:connector-curvature="0"
             id="path1284-4-03-84-8-3-7-2-2-6"
             d="m 58.973549,140.51791 c -16.75227,-1.86849 5.53929,-38.92761 14.73321,-39.79668 -13.62048,15.86328 -12.80766,21.61089 -12.76116,23.73897 0.0537,2.43645 2.80674,5.92599 6.3714,2.1945 l 1.31148,0.87399 c -0.2904,1.23441 -3.20958,13.70811 -9.65493,12.98922 z"
             style="opacity:1;fill:#000000;fill-opacity:1;stroke:none;stroke-width:0.646118;stroke-linecap:square;stroke-linejoin:miter;stroke-miterlimit:4;stroke-dasharray:none;stroke-opacity:1" />
          <path
             sodipodi:nodetypes="scsccs"
             inkscape:connector-curvature="0"
             id="path1284-4-03-84-8-3-7-2-2-16"
             d="m -117.02343,141.52018 c -16.75227,-1.86849 5.53929,-38.92761 14.73321,-39.79668 -13.62048,15.86328 -12.80766,21.61089 -12.76116,23.73897 0.0537,2.43645 2.80674,5.92599 6.3714,2.1945 l 1.31148,0.87399 c -0.2904,1.23441 -3.20958,13.70811 -9.65493,12.98922 z"
             style="opacity:1;fill:#000000;fill-opacity:1;stroke:none;stroke-width:0.646118;stroke-linecap:square;stroke-linejoin:miter;stroke-miterlimit:4;stroke-dasharray:none;stroke-opacity:1" />
          <path
             sodipodi:nodetypes="scsccs"
             inkscape:connector-curvature="0"
             id="path1284-4-03-84-8-3-7-2-2-68"
             d="m -83.925331,107.23186 c -22.907369,-2.55498 7.57449,-53.230352 20.14641,-54.418712 -18.62484,21.69177 -17.5134,29.55114 -17.4498,32.46111 0.0732,3.33162 3.83796,8.10327 8.71233,3.00078 l 1.7934,1.19511 c -0.39711,1.68795 -4.38888,18.744722 -13.20234,17.761712 z"
             style="opacity:1;fill:#000000;fill-opacity:1;stroke:none;stroke-width:0.883514;stroke-linecap:square;stroke-linejoin:miter;stroke-miterlimit:4;stroke-dasharray:none;stroke-opacity:1" />
        </g>
        <path
           id="rect4336-7"
           style="display:inline;fill:#000000;fill-rule:evenodd;stroke:none;stroke-width:0.1087;enable-background:new"
           d="m -171.14998,185.34255 c -0.67506,0 -2.01022,0.72604 -3.07615,1.6726 -1.05659,0.93825 -1.42856,0.92623 -1.99263,-0.0651 -0.25071,-0.44058 -0.59223,-0.80191 -0.75906,-0.80266 -0.51004,-0.003 -2.23875,2.10312 -2.23875,2.72728 0,0.51929 0.10901,0.46709 0.94976,-0.45084 l 0.95049,-1.03696 0.39246,0.75758 c 0.21621,0.41678 0.32285,0.98073 0.2365,1.25279 -0.16102,0.50737 0.50425,0.73097 0.79159,0.26606 0.0776,-0.12557 0.99547,-0.30794 2.03994,-0.40503 1.99859,-0.18575 3.82511,-0.91995 4.1057,-1.65116 0.49855,-1.29916 -0.0982,-2.26461 -1.39985,-2.26461 z m -127.09563,0.0259 c -1.2313,-0.009 -1.41366,1.4189 -0.59571,4.5344 0.48015,1.82886 0.54596,2.88165 0.10645,1.69995 -0.23785,-0.6395 -1.13148,-1.44348 -1.60461,-1.44348 -0.20606,0 -0.36066,0.28643 -0.36066,0.66889 0,0.36794 0.0983,0.66891 0.21803,0.66891 0.11985,0 0.62424,0.54247 1.12048,1.20472 1.24355,1.65968 1.60534,1.57842 1.60534,-0.3592 0,-0.85964 -0.17922,-2.15414 -0.39837,-2.87657 -0.21918,-0.72248 -0.39976,-1.52446 -0.40135,-1.78199 -0.003,-0.54546 0.79887,-0.62983 1.2927,-0.13602 0.26461,0.2646 0.38195,0.25195 0.5765,-0.0629 0.34457,-0.55754 -0.54063,-1.98624 -1.2986,-2.09611 -0.0914,-0.0129 -0.17809,-0.0203 -0.26018,-0.0207 z m 43.8858,0.0296 c -0.093,-0.005 -0.21806,0.0186 -0.38212,0.0695 -0.33113,0.10269 -1.20429,0.35196 -1.94014,0.55434 -6.26422,1.72277 -8.47988,2.34084 -9.63349,2.68663 -2.1731,0.6514 -2.09774,0.68672 -2.55359,-1.22396 -0.46416,-1.94537 -1.17589,-2.50405 -1.47231,-1.15596 -0.0911,0.41449 -0.20665,0.88934 -0.25647,1.05544 -0.0497,0.16612 0.01,0.74579 0.13159,1.28754 0.20492,0.90857 0.16682,1.00682 -0.48929,1.27051 -0.39119,0.15721 -1.13236,0.37774 -1.64746,0.49002 -3.98093,0.86781 -9.45537,2.96184 -10.63127,4.06656 -0.62645,0.5885 -0.81245,1.65731 -0.33926,1.94976 0.14761,0.0912 0.8402,-0.13531 1.53883,-0.50334 0.69864,-0.36808 1.93262,-0.92851 2.74206,-1.24538 0.80946,-0.31689 1.75839,-0.69069 2.10941,-0.83002 2.8352,-1.12544 7.10555,-2.34685 7.27057,-2.07985 0.26212,0.42413 0.50304,4.21037 0.5595,8.80568 l 0.0474,3.87957 -4.3171,4.30455 c -4.62857,4.61452 -5.93715,5.52501 -7.14935,4.97269 -1.46956,-0.66957 -1.48067,-2.85883 -0.0334,-6.69777 l 0.84331,-2.23727 1.70512,-0.63933 c 0.93773,-0.35151 2.00363,-0.63931 2.3681,-0.63931 h 0.66223 l -0.49446,0.77901 c -0.272,0.42828 -0.9528,1.2882 -1.51295,1.91132 -1.07914,1.20046 -2.32597,3.42336 -2.32597,4.14638 0,0.67645 0.62285,0.31222 1.11236,-0.65041 0.24414,-0.4801 0.96644,-1.47516 1.60534,-2.2114 1.79811,-2.07206 3.42057,-4.57649 3.42872,-5.29199 0.0114,-0.98833 -0.72773,-1.62604 -1.88401,-1.62604 -0.56696,0 -2.15482,0.47525 -3.63785,1.08871 -4.91849,2.03456 -9.92611,3.58379 -12.93359,4.00227 -4.10544,0.57122 -4.93162,0.58806 -7.08282,0.14044 -3.40775,-0.70914 -4.96191,-2.03206 -4.95498,-4.21732 0.005,-1.66577 0.24254,-2.31139 0.88398,-2.40432 0.77134,-0.1117 1.78789,-1.70181 1.78789,-2.79678 0,-1.00553 -0.14713,-1.08938 -0.83149,-0.47005 -0.84185,0.76185 -1.12604,0.20307 -0.96676,-1.90319 0.0805,-1.06454 0.26898,-2.16161 0.41834,-2.43756 1.29242,-2.38772 1.73692,-4.31198 0.63784,-2.76057 -1.69139,2.38756 -2.26379,4.28292 -2.34073,7.74435 -0.0376,1.69246 -0.20239,3.41647 -0.36586,3.83076 -0.46545,1.17972 -0.35838,3.48166 0.22248,4.77684 0.66291,1.47814 1.22507,2.12076 2.55729,2.92315 1.01229,0.60969 1.30271,0.64451 5.35186,0.64451 4.84641,0 7.3714,-0.49408 13.09618,-2.56248 1.16905,-0.42238 2.15952,-0.73481 2.20033,-0.69403 0.0407,0.0408 -0.28422,0.95501 -0.72211,2.03106 -1.45399,3.57283 -1.29455,6.17058 0.48188,7.84338 1.26021,1.18669 2.72889,1.18314 4.34372,-0.01 0.51512,-0.38071 1.77913,-1.59521 2.80934,-2.6992 2.92911,-3.13896 4.73387,-4.84483 5.12569,-4.84483 0.26517,0 0.36155,0.47431 0.36585,1.80562 0.006,2.08992 0.61374,3.68773 1.73616,4.57061 0.83095,0.65364 3.21149,0.81245 4.20476,0.28087 1.06421,-0.56954 2.33975,-1.92088 2.89507,-3.06801 0.37474,-0.77413 0.68296,-1.10297 0.94162,-1.00371 0.21157,0.0812 0.38507,0.23999 0.38507,0.35328 0,0.38191 2.63241,1.34223 3.67926,1.34223 0.92481,0 1.08683,-0.10279 1.48857,-0.94533 0.59188,-1.24122 0.57598,-3.96522 -0.0304,-5.19959 -0.58113,-1.18317 -1.57879,-1.76044 -2.60017,-1.50409 -1.20627,0.30276 -3.4592,2.9502 -4.00521,4.70589 -0.45296,1.45647 -2.54064,2.6703 -4.59797,2.67407 -1.77673,0.003 -2.32471,-0.71091 -2.6046,-3.39693 -0.20294,-1.94751 0.0561,-2.221 2.10866,-2.221 0.95937,0 1.38307,0.1495 1.9032,0.66964 0.91911,0.91912 1.11987,0.84723 1.31635,-0.46859 0.40569,-2.71701 -1.58778,-4.06423 -4.48489,-3.03033 l -1.0037,0.35846 -0.004,-0.83815 c -0.003,-0.46095 -0.11455,-2.52426 -0.24981,-4.58464 -0.13516,-2.06042 -0.28381,-4.5842 -0.33038,-5.60833 l -0.085,-1.86181 0.80268,-0.19809 c 0.44151,-0.10912 1.46552,-0.39185 2.27495,-0.62823 2.63125,-0.76835 5.45995,-1.51915 6.62608,-1.75758 0.62757,-0.12831 1.37229,-0.35654 1.65485,-0.50778 0.28257,-0.15122 0.75397,-0.27493 1.04731,-0.27493 0.58014,0 1.64229,-1.16903 1.64229,-1.80711 0,-0.18009 -0.0645,-0.26968 -0.21952,-0.27865 z m 3.72214,0.21212 c -0.12029,0 -0.41439,0.51245 -0.65338,1.13822 -0.35257,0.9232 -0.3846,1.44046 -0.17146,2.74281 0.14445,0.88273 0.38697,4.13341 0.53953,7.224 0.15256,3.0906 0.40491,6.58248 0.56025,7.75986 0.15535,1.17737 0.29793,4.08881 0.31706,6.46938 0.0192,2.38056 0.13145,4.26858 0.24908,4.19588 0.11757,-0.0726 0.40337,-0.57568 0.63565,-1.11752 0.73567,-1.71613 0.90062,-4.22666 0.62749,-9.54774 -0.14354,-2.79625 -0.37631,-6.10756 -0.51738,-7.35852 -0.14101,-1.25097 -0.31547,-3.0867 -0.38802,-4.07988 l -0.1323,-1.80562 0.70436,0.4612 0.70437,0.46196 -0.18329,-0.93055 c -0.31883,-1.61263 -1.95238,-5.61348 -2.29196,-5.61348 z m 52.86072,0 c -1.23955,0 -4.32722,2.60259 -6.13087,5.16782 -1.31928,1.87633 -7.39248,8.74728 -7.73177,8.74728 -0.12243,0 -0.43798,-0.21104 -0.7014,-0.46859 -0.26345,-0.25754 -1.6679,-1.55204 -3.12125,-2.87658 -2.73769,-2.49507 -5.83269,-5.61906 -5.98821,-6.0444 -0.0491,-0.13415 0.16197,-0.24391 0.46859,-0.24391 0.3066,0 0.55729,-0.16016 0.55729,-0.35626 0,-0.51013 -3.98499,-3.45808 -4.43907,-3.28383 -0.24641,0.0945 -0.37767,0.55685 -0.37767,1.33188 0,0.9678 0.17561,1.39731 0.949,2.323 0.5218,0.62453 1.3637,1.76027 1.87066,2.52403 0.85413,1.2868 4.17646,4.65733 7.59726,7.70664 l 1.43756,1.28086 -0.77605,0.74281 c -1.09607,1.04837 -4.76075,3.95537 -6.87886,5.45681 -1.71112,1.21292 -2.18839,1.80786 -1.45086,1.80786 0.50443,0 6.95632,-3.8181 7.68743,-4.5492 0.0735,-0.0736 0.70929,-0.5962 1.41317,-1.16187 l 1.28013,-1.02884 0.92757,0.70807 c 0.51029,0.38922 0.92832,0.81038 0.92832,0.93645 0,0.126 -0.48227,1.15501 -1.07096,2.28605 -0.93691,1.80004 -1.07023,2.27901 -1.07023,3.84482 0,2.9994 1.19414,3.7423 3.7066,2.306 1.41396,-0.80832 1.37765,-0.80651 1.37918,-0.0635 10e-4,0.88004 1.06279,2.01229 2.13896,2.28237 1.12188,0.28152 3.09898,-0.16887 4.20106,-0.95641 0.41209,-0.29449 1.10997,-0.96868 1.55065,-1.49889 0.94796,-1.14058 1.20548,-1.202 1.20548,-0.28605 0,1.61208 1.47646,2.57368 3.56765,2.32374 0.7244,-0.0865 1.34792,-0.4285 2.12198,-1.16483 l 1.09609,-1.04287 0.70289,0.67332 c 0.81544,0.78123 2.09995,0.88961 3.06285,0.25869 0.89499,-0.58644 1.8507,-2.92322 1.66446,-4.07099 -0.14938,-0.92053 -0.59281,-1.66889 -0.98893,-1.66889 -0.3593,0 -0.85254,1.85939 -0.67775,2.55582 0.14993,0.59743 0.086,0.65484 -0.73541,0.65484 -1.24966,0 -1.8146,-0.68524 -1.60903,-1.95197 0.2311,-1.42406 -0.26071,-1.2601 -1.40947,0.47008 -1.20134,1.80932 -1.90518,2.28457 -3.38141,2.28457 -1.69255,0 -2.3437,-0.56177 -2.3437,-2.0222 0,-0.77764 -0.11528,-1.18559 -0.33407,-1.17962 -0.18397,0.005 -1.09004,0.70968 -2.01332,1.56543 -1.7542,1.6259 -2.97335,2.17812 -4.77461,2.16336 -1.80395,-0.0146 -2.40971,-0.93845 -1.5743,-2.39986 0.21034,-0.36794 0.38651,-0.99739 0.39174,-1.39914 0.0114,-0.86456 -0.67533,-2.71823 -1.39025,-3.75169 l -0.50925,-0.73539 1.00813,-1.27128 c 0.55431,-0.69916 1.14258,-1.39163 1.30748,-1.5388 0.8531,-0.76144 7.1925,-9.26279 7.65934,-10.27134 0.67609,-1.46061 0.93906,-3.75345 0.52033,-4.53588 -0.17945,-0.33529 -0.56782,-0.57945 -0.92315,-0.57945 z m -93.58832,0.005 c -0.49872,0.0165 -0.59972,0.17895 -0.80342,0.62602 -0.17707,0.38863 -0.4103,0.70659 -0.5181,0.70659 -0.10779,0 -0.25757,0.16106 -0.33334,0.35846 -0.10581,0.27573 0.21316,0.35359 1.37621,0.33483 0.83266,-0.0129 1.5496,0.096 1.59351,0.24316 0.0439,0.14717 -0.97936,0.7859 -2.27423,1.41982 -1.29487,0.63389 -2.76592,1.35754 -3.26906,1.60755 -1.19516,0.59386 -1.44003,1.21166 -0.38284,0.96675 0.41911,-0.0971 1.11148,-0.34328 1.53881,-0.54694 0.42734,-0.20367 0.91516,-0.3703 1.08353,-0.3703 0.73716,0 4.10457,-1.96398 4.89655,-2.85589 1.50671,-1.6968 1.18725,-2.14344 -1.72506,-2.41538 -0.40116,-0.0375 -0.70593,-0.0646 -0.94308,-0.0732 -0.089,-0.003 -0.16824,-0.004 -0.23948,-10e-4 z m 185.81742,0.0525 c -0.20334,0.0129 -0.36269,0.22255 -0.46562,0.63269 -0.13631,0.54284 -0.0307,0.87652 0.43533,1.37325 0.54799,0.58393 0.61491,0.91227 0.60163,2.97564 -0.01,1.65848 -0.14409,2.54788 -0.46712,3.12197 -0.24842,0.4415 -0.45232,1.01534 -0.45307,1.27569 -0.001,0.56022 0.3982,0.48882 3.46935,-0.61864 5.186323,-1.87018 6.045175,-2.20161 6.282395,-2.42499 0.139744,-0.13173 0.422365,-0.23946 0.62823,-0.23946 0.205876,0 0.754294,-0.16266 1.218045,-0.36143 1.830958,-0.78481 3.81321,-1.51146 4.122751,-1.51146 0.393884,0 1.745851,-2.07006 1.554322,-2.37992 -0.113997,-0.1845 -1.218507,0.11885 -3.09463,0.84923 -0.220751,0.086 -1.304961,0.46113 -2.40875,0.83371 -2.570334,0.86759 -8.048613,2.95445 -8.773173,3.34222 -0.90894,0.48646 -1.1447,0.37942 -0.85292,-0.38803 0.5068,-1.33296 0.30763,-3.40639 -0.47524,-4.952 -0.52243,-1.03142 -0.98262,-1.55094 -1.32153,-1.52847 z m -54.67891,0.0304 c -0.10042,0.009 -0.20261,0.0277 -0.30378,0.06 -0.50487,0.16025 -0.5456,0.32469 -0.41611,1.68665 0.079,0.83029 0.23257,1.75076 0.34147,2.0451 0.16273,0.43989 0.13444,0.47597 -0.16186,0.20104 -0.44056,-0.40876 -1.32374,-0.44201 -1.32374,-0.0495 0,0.43322 1.69179,2.38034 2.07319,2.38584 0.21441,0.003 0.3348,-0.39213 0.3348,-1.10127 0,-0.60841 -0.13658,-1.56257 -0.30376,-2.12048 -0.35092,-1.17128 -0.13516,-2.13597 0.36586,-1.63491 0.48855,0.48855 0.74058,0.37025 0.74058,-0.34739 0,-0.68207 -0.6435,-1.1824 -1.34665,-1.12489 z m -23.38452,0.1796 c -0.55215,0 -1.21596,2.28067 -0.94975,3.26388 0.13157,0.48576 0.42467,4.13435 0.6519,8.10797 0.2272,3.97362 0.5452,8.60991 0.70584,10.30237 0.16065,1.69248 0.23053,4.18318 0.15521,5.53516 -0.15833,2.84206 0.18563,3.11047 1.03918,0.81006 0.45392,-1.22333 0.51079,-2.02102 0.46045,-6.47899 -0.0315,-2.79627 -0.24215,-6.83061 -0.46784,-8.96459 -0.22568,-2.13401 -0.41066,-4.5164 -0.41095,-5.29422 -3.6e-4,-1.36342 0.0199,-1.40271 0.57354,-1.10643 0.55662,0.2979 0.56917,0.27189 0.39026,-0.84701 -0.1015,-0.63485 -0.29144,-1.28315 -0.42203,-1.44053 -0.13058,-0.15734 -0.50413,-1.09671 -0.82927,-2.08722 -0.32517,-0.99052 -0.72824,-1.80045 -0.89654,-1.80045 z m -7.25653,0.0273 c -0.7924,0.01 -1.01136,0.16882 -1.56247,0.89137 -0.38539,0.50526 -0.70066,0.99062 -0.70066,1.07907 0,0.0886 0.5722,0.0918 1.27126,0.006 1.09544,-0.13243 2.31319,0.16706 1.93202,0.47525 -0.0694,0.0561 -1.45061,0.74256 -3.06951,1.52478 -3.2321,1.56168 -3.67223,1.83526 -3.47083,2.16114 0.12988,0.21008 2.37919,-0.41506 2.93573,-0.81597 0.14716,-0.10602 0.59406,-0.27054 0.99335,-0.36586 1.19605,-0.28551 3.78016,-1.93241 4.44276,-2.83151 1.11196,-1.50882 0.5038,-2.04793 -2.39396,-2.12195 -0.13931,-0.004 -0.26448,-0.005 -0.37769,-0.004 z m -28.26925,0.009 c -0.20314,0.0211 -0.34564,0.22074 -0.52254,0.60903 -0.25085,0.55053 -0.1946,0.75404 0.38507,1.37916 0.37393,0.4033 0.81231,1.25685 0.97339,1.89655 0.30279,1.20244 0.64333,1.47479 0.92537,0.73983 0.0894,-0.23278 0.16253,-0.62442 0.16259,-0.86991 1e-4,-0.39235 0.41322,-0.4492 3.41171,-0.46787 2.721,-0.0169 3.76092,-0.1366 5.13899,-0.59129 1.83878,-0.60664 2.17111,-0.58913 1.61347,0.0828 -0.23726,0.28587 -0.26142,0.50577 -0.0746,0.69254 0.37891,0.3789 2.48259,-2.10576 2.48487,-2.93497 0.001,-0.58435 -0.0732,-0.6182 -0.99262,-0.44568 -0.5468,0.10258 -1.29958,0.34352 -1.67259,0.5351 -0.37301,0.19157 -1.91484,0.56355 -3.4265,0.82705 -2.64752,0.46152 -2.82386,0.46171 -4.81599,-0.005 -1.13745,-0.26699 -2.35562,-0.7102 -2.7066,-0.98448 -0.41738,-0.32618 -0.68084,-0.48318 -0.88398,-0.46194 z m 73.33171,7.5e-4 c -0.006,-0.003 -0.0152,-10e-4 -0.0252,0.001 -0.0481,0.0156 -0.1353,0.0955 -0.26905,0.22913 -0.87409,0.87426 -1.30196,3.34403 -0.68588,3.96011 0.39962,0.39962 0.3605,0.40375 0.86402,-0.0998 0.54716,-0.54719 0.53825,-1.18481 -0.0164,-1.18481 -0.44379,0 -0.42915,-0.5833 0.06,-2.40797 0.0871,-0.32518 0.11956,-0.48164 0.0724,-0.49816 z m 81.72718,0.003 c -0.467807,0.0381 -3.476074,1.17203 -5.5625,2.10792 -0.588693,0.26408 -1.913651,0.80705 -2.943848,1.20623 -4.509666,1.74744 -6.287568,3.01794 -6.287568,4.49302 0,0.75671 0.01835,0.76823 0.60164,0.3592 0.331131,-0.23221 1.384868,-0.89561 2.341478,-1.47452 2.032564,-1.23 5.659072,-2.94548 8.294958,-3.92315 2.561857,-0.95023 3.088076,-1.24787 3.408753,-1.92981 0.182457,-0.38793 0.274823,-0.76212 0.20547,-0.83149 -0.0071,-0.006 -0.02718,-0.01 -0.05835,-0.006 z m -88.354,0.0114 c -0.21545,0.003 -0.39845,0.17761 -0.53365,0.53142 -0.17834,0.46683 -0.11541,0.75574 0.2513,1.15745 1.22744,1.34429 1.36156,3.29207 0.41391,6.00447 -0.65872,1.88541 -0.63906,2.29886 0.0961,2.01111 0.22843,-0.0894 1.43864,-0.50919 2.68959,-0.93201 1.25095,-0.42284 3.83996,-1.38595 5.75319,-2.14045 1.91322,-0.75451 3.84012,-1.49474 4.28162,-1.64525 0.44152,-0.1505 1.18223,-0.44272 1.64599,-0.64894 0.46376,-0.2062 0.94911,-0.37472 1.07908,-0.37472 0.30601,0 1.15449,-1.43511 1.15449,-1.9527 0,-0.42363 -1.45242,-0.0287 -5.75245,1.5632 -1.0302,0.38139 -2.17458,0.79274 -2.54252,0.91428 -0.36791,0.12156 -1.92645,0.71562 -3.46343,1.32004 -3.27611,1.2883 -3.61729,1.33929 -3.31119,0.49666 0.4448,-1.22439 0.21603,-3.56549 -0.48115,-4.9202 -0.47212,-0.9174 -0.9218,-1.38953 -1.28087,-1.38436 z m 43.29819,0.0114 c -0.0999,0.004 -0.20887,0.0658 -0.33628,0.17147 -0.57156,0.47434 -0.68806,1.88552 -0.26756,3.24466 0.53781,1.73829 0.85365,5.5406 1.1663,14.0415 0.35853,9.74816 0.66617,10.82525 3.29863,11.55368 0.61261,0.16951 1.15142,0.31961 1.19734,0.33408 0.046,0.0144 0.70806,-0.17191 1.47158,-0.41465 0.7635,-0.24274 1.57844,-0.60387 1.81078,-0.80266 0.23235,-0.19878 0.54446,-0.36143 0.69402,-0.36143 0.149583,0 0.490467,-0.2415 0.756845,-0.53584 0.672135,-0.74268 1.075427,-0.67572 2.379926,0.39319 0.768943,0.63012 1.683001,1.05663 2.847024,1.32818 1.528091,0.35648 1.930296,0.35521 3.699966,-0.01 2.76014,-0.57011 4.617835,-1.84835 5.679269,-3.90763 0.669767,-1.29935 0.676775,-4.41433 0.01292,-6.04884 -0.989372,-2.43744 -3.477547,-4.1668 -4.998567,-3.47378 -1.071433,0.48817 -2.112826,2.27262 -2.262397,3.8766 l -0.133738,1.43461 -1.070971,-0.59204 c -0.944595,-0.52241 -1.478568,-0.59396 -4.548453,-0.60902 -4.459084,-0.022 -6.032494,0.43961 -6.830054,2.00298 -0.69824,1.36867 -0.69597,1.97421 0.006,1.75759 0.29433,-0.0907 0.7454,-0.22744 1.00295,-0.30378 0.25755,-0.0764 1.12462,0.24067 1.9261,0.70437 l 1.45679,0.84332 -0.60903,0.49299 c -1.18238,0.95743 -4.00813,1.3629 -4.86701,0.69845 -0.90963,-0.70374 -1.1065,-2.13043 -1.33482,-9.69113 -0.24246,-8.02967 -0.58777,-11.96726 -1.25499,-14.31572 -0.3778,-1.32978 -0.59395,-1.82484 -0.89358,-1.8108 z m 27.4097,0.0129 c -0.149498,-0.0498 -0.464367,0.40029 -0.699937,0.99999 -0.335024,0.85291 -0.375377,1.39341 -0.184036,2.48266 0.373211,2.12479 1.13555,14.63929 1.26239,20.72596 0.06207,2.98022 0.202911,5.41838 0.313377,5.41838 0.110456,0 0.355192,-0.33143 0.543988,-0.73615 1.057041,-2.26603 1.271611,-5.07033 0.82631,-10.82271 -0.140166,-1.81088 -0.385313,-5.09847 -0.544723,-7.30605 -0.159408,-2.20757 -0.355202,-4.31163 -0.434589,-4.67558 -0.137162,-0.62855 -0.11942,-0.6394 0.350341,-0.21433 0.293301,0.26545 0.63441,0.36169 0.838134,0.23578 0.26399,-0.16316 0.07174,-0.88371 -0.828534,-3.1146 -0.644243,-1.59629 -1.293234,-2.94353 -1.442721,-2.99335 z m -152.87632,0.0185 c -0.0664,0.004 -0.13186,0.0149 -0.1966,0.031 -0.39192,0.0985 -0.87245,0.3812 -1.06726,0.62897 -0.4638,0.58996 -0.30301,3.39356 0.31706,5.53443 0.25577,0.88301 0.51733,2.08759 0.58169,2.67629 l 0.11757,1.07022 -0.44272,-0.85958 c -0.44507,-0.86402 -1.97619,-2.21732 -2.50853,-2.21731 -0.15698,0 -0.28529,0.40724 -0.28529,0.9054 0,0.65601 0.17332,1.01951 0.62972,1.31856 0.34659,0.2271 1.07976,1.0898 1.62898,1.91722 1.10462,1.66419 1.59411,1.66857 1.90394,0.017 0.09,-0.47934 -0.0396,-1.82147 -0.28825,-2.98302 -0.66095,-3.08703 -0.81136,-5.72437 -0.32594,-5.72437 0.21001,0 0.59985,0.24078 0.86621,0.53512 0.7528,0.83181 1.204,0.67358 1.204,-0.42203 0,-1.24159 -1.13901,-2.4908 -2.13451,-2.42795 z m 78.56012,0.0208 c -0.0857,-0.003 -0.1789,0.0551 -0.29342,0.15003 -0.64217,0.53297 -0.68968,2.00996 -0.15078,4.68888 0.36621,1.82045 0.57665,4.25206 0.68146,7.87146 0.337,11.63655 0.84443,15.11934 2.33999,16.05335 0.84883,0.53011 1.86189,0.8071 2.47675,0.67702 0.29435,-0.0622 0.67056,-0.11485 0.83592,-0.11671 0.33139,-0.004 2.50926,-1.915 2.50926,-2.20179 0,-0.0987 0.25808,-0.61856 0.57429,-1.1545 l 0.57501,-0.97412 0.72802,1.15966 c 0.66539,1.05996 2.07622,2.35103 2.59352,2.37325 0.11628,0.004 0.69293,0.24189 1.2816,0.52624 0.76613,0.37007 1.65727,0.51974 3.13456,0.52624 2.29177,0.01 4.03283,-0.53365 6.03034,-1.88175 0.64016,-0.43204 1.20861,-0.78567 1.26314,-0.78567 0.0545,0 0.17186,0.33143 0.26089,0.73615 0.21717,0.98729 1.65455,1.94014 2.92684,1.94014 1.2087,0 3.10982,-1.04749 4.02591,-2.21805 l 0.6482,-0.82779 0.46342,0.97265 c 0.54983,1.153 1.60397,1.66995 2.95863,1.45013 1.14984,-0.18659 1.83731,-0.75722 2.43758,-2.02218 l 0.44346,-0.9335 0.32151,0.78789 c 0.51261,1.25629 1.35497,1.8544 2.61419,1.8544 1.33787,0 2.04811,-0.57408 2.82266,-2.28161 0.65335,-1.44035 0.69554,-2.8568 0.14258,-4.81822 -0.22684,-0.80472 -0.53487,-1.94496 -0.68439,-2.53363 -0.14954,-0.5887 -0.3853,-1.18467 -0.52403,-1.32449 -0.43111,-0.43447 -0.27743,-0.94975 0.28307,-0.94975 0.73944,0 0.68005,-0.26046 -0.43458,-1.90984 -1.57948,-2.33722 -1.62574,-2.36284 -2.12197,-1.17518 -0.39604,0.94788 -0.39485,1.18935 0.0146,3.06064 0.50259,2.29588 1.43221,5.37553 1.74355,5.77757 0.11398,0.14719 0.39311,0.71706 0.62084,1.26682 0.36977,0.89276 0.3708,1.04314 0.009,1.40504 -0.23549,0.23549 -0.88389,0.40504 -1.54842,0.40504 -1.43066,0 -2.1307,-0.67598 -2.08059,-2.0089 0.0481,-1.28413 -0.45795,-1.18066 -1.34073,0.27421 -1.77972,2.93311 -5.12367,3.0307 -4.66078,0.13603 0.0946,-0.59246 0.0952,-1.07689 7.4e-4,-1.07689 -0.0942,0 -1.00147,0.78249 -2.01552,1.73911 l -1.84334,1.7391 h -1.72506 c -1.99666,0 -2.50294,-0.44611 -2.0015,-1.76496 0.44667,-1.1748 -0.0497,-1.23163 -1.75611,-0.20029 -3.02913,1.83075 -3.74461,2.04897 -6.81602,2.07539 -2.61884,0.0225 -2.9044,-0.0286 -4.20106,-0.74724 -1.80756,-1.0017 -2.4232,-1.68376 -2.6933,-2.98376 -0.12129,-0.5838 -0.33059,-1.06135 -0.46489,-1.06135 -0.1343,0 -0.84343,0.85279 -1.57579,1.8958 -1.47262,2.09749 -2.41568,2.78641 -3.8145,2.78641 -2.30492,0 -2.6825,-1.04899 -2.88696,-8.0274 -0.26687,-9.11003 -0.6306,-13.98665 -1.19511,-16.02378 -0.48731,-1.75851 -0.67566,-2.31648 -0.93276,-2.32522 z m 41.09197,0.003 c -0.31856,0.015 -0.78696,0.12686 -1.38582,0.33483 -0.40283,0.13987 -5.80902,1.64523 -8.56252,2.38434 -0.80944,0.21727 -2.10394,0.57117 -2.8766,0.78641 -0.77263,0.21523 -2.03668,0.56041 -2.80933,0.76719 -10.86147,2.90688 -12.69392,3.75048 -13.96095,6.42872 -0.829,1.7524 -0.83691,1.87781 -0.15446,2.56025 0.61507,0.61508 1.03512,0.6617 2.00076,0.22174 0.95183,-0.43368 1.83746,-1.93816 1.66667,-2.8315 -0.13987,-0.7316 0.37376,-1.37809 1.10867,-1.39543 0.19852,-0.004 0.74023,-0.18718 1.204,-0.40576 1.10009,-0.51856 10.16927,-3.50393 12.75103,-4.19739 1.10377,-0.29646 2.36781,-0.63655 2.80933,-0.7561 4.19976,-1.1372 6.33318,-1.65062 6.43537,-1.54842 0.067,0.067 -0.11915,0.82261 -0.41389,1.67924 -0.71511,2.07851 -0.69436,3.40128 0.0665,4.28237 0.52585,0.60893 0.66348,0.65195 1.08796,0.33999 0.27953,-0.20543 0.55145,-0.84972 0.64082,-1.51591 0.14869,-1.10871 0.13216,-1.14541 -0.40061,-0.86031 -0.46574,0.24925 -0.58385,0.2125 -0.72285,-0.22543 -0.33558,-1.05731 0.69607,-4.34405 1.59871,-5.09317 0.22245,-0.18463 0.40428,-0.50399 0.40428,-0.70954 0,-0.17971 -0.16851,-0.26111 -0.48707,-0.24612 z m -130.23531,0.0776 c -0.1336,-0.001 -0.39966,0.23571 -0.74725,0.74723 -0.78008,1.14801 -0.99448,3.22211 -0.39542,3.82118 0.52072,0.52072 1.52787,0.36942 2.23284,-0.33557 0.49934,-0.49933 0.65706,-0.94055 0.65706,-1.84035 0,-1.19421 -0.51232,-1.99576 -1.05913,-1.65782 -0.36932,0.22825 -0.35755,1.29364 0.0185,1.66965 0.42336,0.42336 0.0527,0.87953 -0.71472,0.87953 -0.52171,0 -0.65337,-0.13731 -0.65337,-0.6822 0,-0.37525 0.1879,-1.04585 0.4176,-1.49002 0.36919,-0.71393 0.41574,-1.10973 0.2439,-1.11163 z m 111.27507,0.1626 c -0.0882,0.0271 -0.2338,0.23107 -0.43163,0.6216 -0.56817,1.12164 -0.77348,2.60479 -0.47007,3.40283 0.32626,0.85813 0.6553,0.88812 1.20179,0.108 0.55156,-0.78746 0.5257,-1.01107 -0.11829,-1.01107 -0.60526,0 -0.63199,-0.19381 -0.25203,-1.84186 0.20316,-0.88125 0.21709,-1.32478 0.0702,-1.27939 z m -37.4807,0.3836 c 0.10602,0.003 0.20833,0.0175 0.30081,0.0451 0.24939,0.0741 0.3457,0.17819 0.39838,0.43091 0.0285,0.13659 0.016,0.1624 -0.12487,0.24834 -0.0864,0.0527 -0.20352,0.096 -0.25941,0.0961 -0.056,1e-4 -0.22214,0.0636 -0.36955,0.14116 -0.2616,0.1376 -0.72907,0.24264 -1.37326,0.30821 -0.15609,0.0159 -0.33164,0.039 -0.39024,0.051 -0.0817,0.0169 -0.12871,-0.0144 -0.20105,-0.13301 -0.052,-0.0851 -0.0945,-0.16862 -0.0946,-0.18625 -2.7e-4,-0.0492 0.24135,-0.22838 0.30821,-0.22838 0.0326,0 0.16323,-0.07 0.28973,-0.15597 0.12644,-0.086 0.30437,-0.18571 0.39542,-0.22099 0.0911,-0.0354 0.20814,-0.10021 0.26017,-0.14486 0.19377,-0.16598 0.54221,-0.26068 0.86032,-0.25129 z m -100.78351,0.5972 c -0.36108,0 -5.00856,1.44286 -5.91579,1.83668 -1.08305,0.4701 -3.49451,1.37399 -3.66521,1.37399 -0.0968,0 -1.11773,0.43569 -2.26905,0.96822 -1.15134,0.53252 -2.72266,1.24686 -3.49152,1.5876 -1.39864,0.61982 -2.2983,1.64581 -2.66005,3.03402 -0.36195,1.38895 0.73242,2.69163 2.26905,2.70142 0.53777,0.003 0.60796,-0.10979 0.53512,-0.86549 -0.0656,-0.67967 -0.27281,-0.95756 -0.94754,-1.27125 -0.47483,-0.22075 -0.82909,-0.52174 -0.78714,-0.66891 0.0961,-0.33723 3.89356,-2.26532 6.05178,-3.07243 0.89686,-0.33542 1.69544,-0.71454 1.77459,-0.8426 0.0791,-0.128 0.32992,-0.2328 0.55654,-0.2328 0.22662,0 0.79125,-0.16888 1.255,-0.37547 0.46375,-0.20658 2.26638,-0.82532 4.00595,-1.37548 2.33179,-0.73744 3.26927,-1.16361 3.5684,-1.62011 0.42491,-0.64849 0.29918,-1.17739 -0.28013,-1.17739 z m 185.811533,0.26756 c -0.693544,0 -2.401549,3.76186 -2.408739,5.30529 -0.0032,0.69221 1.337456,2.18701 1.961596,2.187 0.220138,0 0.761054,-0.20679 1.201771,-0.45972 0.440728,-0.25294 1.006507,-0.80766 1.257214,-1.23209 0.638645,-1.08112 0.625696,-3.11116 -0.02519,-4.00225 -0.634097,-0.8682 -0.870358,-0.82095 -1.327414,0.26608 -0.326052,0.77546 -0.301845,0.90385 0.299336,1.59721 l 0.653363,0.75314 -0.569848,0.4686 c -0.313383,0.25755 -0.853115,0.46858 -1.199564,0.46859 -1.287438,0 -1.346821,-1.5408 -0.154469,-3.99782 0.664364,-1.36906 0.660898,-1.35403 0.311888,-1.35403 z m -112.079973,0.9416 c 0.65843,0.0143 0.51157,0.87685 -0.45529,2.33189 -0.47964,0.72181 -1.0862,1.5416 -1.34814,1.82114 -0.26192,0.27955 -0.57187,0.67531 -0.68883,0.87953 -0.117,0.20425 -0.93321,1.248 -1.81377,2.32007 -0.88055,1.07205 -1.89492,2.33661 -2.25427,2.81006 -0.35933,0.47345 -0.7937,0.98878 -0.96454,1.14488 -0.1708,0.1561 -0.43286,0.46218 -0.58315,0.67997 -0.62373,0.9039 -1.76691,2.15819 -1.96675,2.15819 -0.11799,0 -0.58838,-0.38092 -1.0451,-0.84628 -0.94897,-0.96694 -1.03631,-0.69711 0.8485,-2.62824 0.52174,-0.53456 1.24546,-1.34562 1.60829,-1.80194 0.36282,-0.45633 1.40503,-1.70828 2.31563,-2.78273 0.91057,-1.07445 1.65558,-2.02458 1.65558,-2.11088 0,-0.28386 3.59699,-3.65233 4.1072,-3.8463 0.23752,-0.0902 0.43269,-0.1326 0.58464,-0.1293 z m -30.32694,0.53069 c -0.4054,0.0471 -1.05472,2.04937 -0.87953,2.84703 0.19002,0.86513 1.02611,1.05745 1.31562,0.30303 0.10678,-0.2786 0.0129,-0.58125 -0.23873,-0.76496 -0.47831,-0.34976 -0.53408,-0.99673 -0.14782,-1.71843 0.15502,-0.28967 0.16671,-0.56398 0.028,-0.64968 -0.0244,-0.0152 -0.0506,-0.02 -0.0776,-0.017 z m 17.08366,1.83741 c -0.0534,0.0194 -0.1808,0.16152 -0.40208,0.43311 -0.64558,0.79243 -0.94353,2.15765 -0.70658,3.23655 0.20236,0.92132 0.78594,1.01662 1.22322,0.19955 0.25646,-0.47919 0.22824,-0.64139 -0.16111,-0.9261 -0.47011,-0.34375 -0.46818,-1.24474 0.005,-2.64082 0.074,-0.21839 0.0949,-0.32159 0.0414,-0.30229 z m 145.531098,0.29934 c -0.103977,-0.038 -0.3765,0.34945 -0.793062,1.17148 -0.975805,1.92567 -0.853832,3.782 0.24908,3.782 0.16189,0 0.439073,-0.14417 0.61568,-0.32078 0.442163,-0.44215 0.404462,-1.28456 -0.05764,-1.28456 -0.583171,0 -0.64842,-0.54841 -0.232816,-1.96675 0.25786,-0.87995 0.322793,-1.34342 0.218771,-1.38139 z m -101.124238,0.40429 c -1.06518,0 -1.27768,0.11102 -2.02219,1.051 -0.84318,1.06476 -0.73511,1.64415 0.19808,1.06136 0.67703,-0.42281 2.62123,-0.0844 2.22913,0.38803 -0.14971,0.18038 -1.66192,0.98653 -3.35995,1.79084 -3.12521,1.48035 -4.21434,2.35035 -2.49447,1.99262 0.47814,-0.0995 1.21864,-0.34999 1.64597,-0.55653 0.42734,-0.20656 0.88586,-0.37546 1.01849,-0.37546 0.37553,0 2.62356,-1.06583 3.75685,-1.78125 0.91581,-0.57812 2.07056,-2.01573 2.07321,-2.58095 0.001,-0.39183 -1.83784,-0.98966 -3.04512,-0.98966 z m -19.92476,0.40133 -0.56987,0.84997 c -0.65398,0.97575 -0.9525,2.42525 -0.70363,3.41689 0.23092,0.9199 1.15611,0.91828 1.50631,-0.003 0.3478,-0.91481 0.34661,-0.91872 -0.30895,-0.91872 -0.60741,0 -0.60351,0.14379 -0.0805,-2.54251 z m -69.24373,0.93719 c -0.67195,0 -1.65687,1.31631 -1.85291,2.47673 l -0.18701,1.1057 -0.56541,-0.78789 c -1.00039,-1.39359 -2.19337,-2.49975 -2.49227,-2.31043 -0.1599,0.10118 -0.37402,0.68332 -0.47598,1.29342 -0.1579,0.94494 -0.0959,1.19293 0.41907,1.6726 0.61171,0.56991 0.84205,0.65518 1.58317,0.58685 0.27195,-0.025 0.57979,0.46155 0.91278,1.44125 0.54619,1.60685 1.2188,1.98676 1.2188,0.68886 0,-1.08074 0.53854,-3.5522 0.86178,-3.95421 0.1899,-0.23617 0.40871,-0.2517 0.7768,-0.0546 0.66406,0.3554 1.03697,0.10957 1.03697,-0.68367 0,-0.71281 -0.63848,-1.47452 -1.23579,-1.47451 z m 145.38328,0.0821 c -0.057,-0.0129 -0.15544,0.0479 -0.29713,0.16555 -0.49149,0.4079 -1.05645,2.77386 -0.83149,3.48266 0.22664,0.71406 1.1218,0.71103 1.34886,-0.004 0.11671,-0.36787 0.0241,-0.66615 -0.27568,-0.88545 -0.38582,-0.28213 -0.40936,-0.48559 -0.15965,-1.38509 0.2645,-0.95267 0.34056,-1.3439 0.21509,-1.37325 z m 16.769506,0.12858 c -0.120144,0.0262 -0.332629,0.26596 -0.6223,0.74872 -0.751926,1.25309 -0.911916,3.46229 -0.279391,3.86256 0.505266,0.31974 0.425443,0.33287 0.917233,-0.15891 0.532251,-0.53225 0.566932,-1.49165 0.0465,-1.29195 -0.647174,0.24835 -0.769686,-0.42491 -0.300822,-1.65264 0.382809,-1.00237 0.43906,-1.55149 0.238727,-1.50778 z m -146.169646,0.0569 c -0.41564,0 -1.07207,0.95613 -1.92906,2.81006 -0.76003,1.64416 -0.87392,2.18753 -0.93276,4.4568 -0.0369,1.42147 -0.1816,2.8059 -0.32149,3.07688 -0.88885,1.72159 -1.25249,3.56784 -1.25724,6.37995 -0.005,3.16854 0.29379,4.1488 1.65338,5.41913 1.9914,1.86063 4.53302,2.27257 7.57361,1.22691 4.68495,-1.61119 9.16168,-4.16457 10.31493,-5.88253 2.25537,-3.35979 1.77473,-4.74579 -2.04065,-5.87884 -0.72431,-0.21509 -1.31675,-0.47625 -1.31635,-0.58094 3.7e-4,-0.10462 0.741,-0.5842 1.64597,-1.06504 1.48453,-0.78877 1.68987,-0.83415 2.09462,-0.46785 0.59998,0.54296 0.80784,0.51111 0.80784,-0.12273 0,-0.62882 1.09977,-1.25756 2.62752,-1.50186 1.11797,-0.17876 1.38806,-0.52559 1.81007,-2.32891 0.14809,-0.63281 0.0129,-0.9016 -0.8884,-1.75834 -1.1849,-1.12717 -3.20428,-2.17739 -4.18702,-2.17739 -0.35398,0 -1.01744,0.34908 -1.47452,0.77605 -0.68657,0.64134 -0.83149,0.98131 -0.83149,1.95567 0,0.64869 0.17711,1.41353 0.39319,1.69922 0.56561,0.74778 0.52021,0.85428 -0.59349,1.39541 -1.81522,0.88199 -4.74491,2.67422 -5.19517,3.17816 -0.39681,0.4441 -0.60315,1.29064 -0.52108,2.13823 0.0348,0.35911 0.48648,0.56314 2.30454,1.03989 3.2518,0.85275 4.5715,1.26435 4.88918,1.52627 0.34014,0.28042 0.27477,0.33954 -1.95272,1.7428 -0.2907,0.18313 -1.63078,0.87991 -2.97784,1.54842 -6.39508,3.17374 -10.67178,2.96935 -12.49826,-0.59718 -0.9817,-1.91697 -0.13616,-7.40208 1.15152,-7.47014 0.74635,-0.0395 1.19959,-0.52006 1.58612,-1.68146 0.49556,-1.48894 0.41896,-1.67844 -0.5972,-1.48782 -0.74617,0.14002 -0.92243,0.0799 -1.03547,-0.35254 -0.23698,-0.90618 0.30055,-3.42226 1.12122,-5.25134 0.43553,-0.97071 0.6947,-1.76497 0.5765,-1.76497 z m 115.61067,0.54027 c -0.71173,0.0296 -1.60117,0.46967 -2.40504,1.25501 -0.51643,0.50449 -1.05773,0.42224 -1.25204,-0.18995 -0.23159,-0.72965 -0.57195,-0.67345 -1.49226,0.24687 -1.08907,1.08905 -1.0448,1.9216 0.0495,0.93125 0.59063,-0.53451 1.0414,-0.28107 1.0414,0.58612 0,0.57215 0.0712,0.62499 0.51812,0.38581 0.28467,-0.15236 0.95017,-0.27716 1.47968,-0.27716 2.09593,0 3.94151,-1.51218 3.09316,-2.5344 -0.24223,-0.29185 -0.6055,-0.42129 -1.03254,-0.40355 z m -0.0259,0.87954 c 0.15796,0.021 0.22911,0.14046 0.22911,0.3592 0,0.2611 -0.10526,0.36688 -0.36512,0.36955 -0.11228,10e-4 -0.35409,0.0765 -0.53806,0.16704 -0.33321,0.16391 -0.44503,0.18479 -0.63563,0.12115 -0.0552,-0.0185 -0.1396,-0.0455 -0.18773,-0.0606 -0.18232,-0.0574 0.25751,-0.48678 0.74575,-0.72802 0.34862,-0.17225 0.59371,-0.24945 0.75168,-0.22838 z m 51.715118,0.18552 c -0.244659,0 -0.357736,0.37775 -0.357736,1.19882 0,1.12244 0.123146,1.32711 1.937938,3.22915 1.612696,1.69022 2.387194,2.25618 4.6157,3.37105 2.744729,1.37309 4.417626,2.47449 4.417626,2.90911 0,0.74454 -9.055252,6.49927 -11.219598,7.13014 -1.315177,0.38336 -1.517625,0.38382 -2.140444,0.006 -0.56956,-0.34428 -0.701961,-0.64768 -0.768668,-1.76352 -0.04438,-0.74127 0.05439,-1.98387 0.219519,-2.76128 0.397994,-1.87254 0.441665,-2.48411 0.176639,-2.48411 -0.567579,0 -0.686555,-0.94213 -0.303779,-2.4117 0.221178,-0.84913 0.352923,-1.59315 0.292689,-1.65339 -0.06018,-0.0602 -0.424433,0.52184 -0.809301,1.29417 -0.773129,1.55146 -0.929868,3.45066 -0.326694,3.95126 0.318318,0.26418 0.318318,0.48925 0,1.54695 -0.204892,0.6808 -0.372164,2.21205 -0.371029,3.40282 0.0033,3.23403 0.888077,4.31151 3.300838,4.0163 0.565393,-0.0692 1.528469,-0.37971 2.140446,-0.69033 2.67569,-1.35805 8.572183,-5.41579 9.709607,-6.6815 0.908511,-1.01096 1.345654,-3.19918 0.943095,-4.72361 -0.39402,-1.49226 -0.854133,-1.90942 -3.518868,-3.19072 -1.103784,-0.53073 -2.65445,-1.38911 -3.44571,-1.90762 -1.299601,-0.85162 -1.383927,-0.96361 -0.869923,-1.15374 0.312953,-0.11572 0.569112,-0.33623 0.569112,-0.49003 0,-0.3017 -3.602124,-2.14561 -4.191459,-2.14561 z m -221.771918,0.004 c -0.14101,-0.003 -0.70644,0.43484 -1.25648,0.97193 l -1,0.97635 0.78788,1.14563 c 0.43345,0.62998 0.78789,1.2516 0.78789,1.38137 0,0.12972 -0.36115,0.50285 -0.80267,0.82928 -0.44151,0.32643 -0.80266,0.68862 -0.80266,0.80488 0,0.11628 0.43444,0.71911 0.96526,1.33926 0.6314,0.73766 1.0704,1.04698 1.27053,0.89505 0.16824,-0.12772 0.75537,-0.56568 1.30452,-0.9734 l 0.99853,-0.74132 -0.93127,-1.13674 c -0.51235,-0.62526 -0.932,-1.27168 -0.932,-1.43608 0,-0.16441 0.36113,-0.56566 0.80264,-0.89209 0.44153,-0.32643 0.80342,-0.69916 0.80342,-0.82853 0,-0.34543 -1.69556,-2.32995 -1.99559,-2.33559 z m 22.92777,0.0318 c -0.10721,-0.009 -0.25789,0.10043 -0.41538,0.36732 -1.23917,2.10044 -1.26344,4.41245 -0.0466,4.41245 0.16189,0 0.43832,-0.14416 0.61493,-0.32077 0.49681,-0.49682 0.37997,-1.20625 -0.22469,-1.36438 -0.44254,-0.11571 -0.51465,-0.28633 -0.38064,-0.90098 0.0909,-0.41695 0.29704,-1.02903 0.45751,-1.35995 0.23206,-0.47854 0.17363,-0.81932 -0.005,-0.83369 z m 95.52329,0.49887 c -0.4543,0 -2.16435,3.72195 -2.62456,5.71254 -0.45231,1.95643 -0.4566,2.18321 -0.0546,3.30084 0.31305,0.87054 0.36513,1.43171 0.18922,2.0451 -0.37116,1.29419 -0.28889,3.72661 0.17,5.02961 0.94352,2.67917 3.06787,4.6121 5.51593,5.01778 1.41007,0.23367 1.99806,0.21841 4.10573,-0.10645 1.19228,-0.18376 3.08851,-0.77778 3.81008,-1.19364 0.2593,-0.14945 0.77251,-0.39194 1.14042,-0.53882 0.36794,-0.14688 0.90765,-0.41805 1.19957,-0.60237 3.35139,-2.11607 4.96773,-3.53936 5.64824,-4.97344 0.2587,-0.54517 0.45134,-1.63562 0.46046,-2.60533 0.0129,-1.35396 -0.14468,-1.99353 -0.83667,-3.39914 -1.00487,-2.04116 -1.00868,-2.06727 -0.31706,-2.06727 0.79889,0 0.66932,-0.29549 -0.81746,-1.86255 -1.50701,-1.58839 -1.81012,-1.55437 -2.04953,0.23061 -0.10398,0.77547 -0.0282,1.24728 0.25203,1.57059 0.22037,0.25424 0.46934,0.82668 0.55285,1.272 0.0835,0.44529 0.58181,1.74066 1.10718,2.87806 0.52537,1.13742 0.95493,2.17832 0.95493,2.3134 0,0.8654 -5.57635,4.36948 -8.56251,5.38068 -2.08633,0.70649 -5.81676,0.98343 -7.41323,0.5499 -1.33713,-0.36313 -2.56386,-1.33749 -3.44867,-2.73912 -0.50515,-0.80022 -0.64449,-1.38591 -0.64449,-2.71473 0,-1.5538 0.0632,-1.74138 0.76497,-2.26018 0.49196,-0.36374 0.87057,-0.97848 1.05913,-1.72137 0.32042,-1.26234 0.063,-1.85846 -0.57427,-1.32965 -0.20835,0.17288 -0.57509,0.23896 -0.81451,0.14708 -0.82277,-0.31574 -0.42253,-2.71241 1.01112,-6.05475 0.4855,-1.13194 0.51074,-1.27939 0.2158,-1.27939 z m 87.0746,0 c -0.377039,0 -2.03917,2.17553 -2.03917,2.66892 0,0.2899 2.12628,1.54878 2.677776,1.58538 0.221807,0.0147 0.733079,-0.51947 1.136737,-1.18774 0.403647,-0.66827 0.733585,-1.36084 0.732444,-1.53883 -0.0032,-0.36786 -1.906412,-1.52773 -2.507787,-1.52773 z m -52.50669,0.86106 c 0.11799,-0.0114 0.20843,0.009 0.20843,0.0658 0,0.0196 -0.13761,0.20211 -0.30526,0.40575 -0.28844,0.35038 -0.30164,0.38491 -0.25056,0.64229 0.0821,0.41338 0.0648,0.95665 -0.0334,1.0547 -0.12486,0.12487 -1.21415,0.15861 -1.36661,0.0421 -0.22467,-0.17167 -0.45306,-0.55165 -0.45306,-0.75387 0,-0.23959 0.44343,-0.77262 0.64449,-0.77459 0.0687,-7.6e-4 0.25717,-0.0905 0.41907,-0.20031 0.1619,-0.10968 0.34249,-0.20062 0.40135,-0.20176 0.0588,-0.001 0.22083,-0.072 0.35992,-0.15742 0.11129,-0.0685 0.25749,-0.11128 0.37548,-0.12272 z m 23.18421,0.20918 c -0.32725,0 -2.23566,2.94841 -2.03698,3.14709 0.41097,0.41097 2.20348,1.35416 2.61717,1.37695 0.27099,0.0149 0.73413,-0.44772 1.13749,-1.136 0.89728,-1.53109 0.8592,-1.9038 -0.24538,-2.42794 -0.50885,-0.24146 -0.99723,-0.55671 -1.08575,-0.69993 -0.0886,-0.14323 -0.26238,-0.26017 -0.38655,-0.26017 z m -72.79585,1.07021 c -0.66639,0 -1.50206,1.11662 -1.72508,2.30528 l -0.18255,0.97265 -0.4235,-0.63563 c -0.71205,-1.06843 -2.0327,-2.37474 -2.40135,-2.37474 -0.33994,0 -0.48958,0.78826 -0.40578,2.13897 0.0477,0.77074 0.70489,1.34 1.54695,1.34 0.41547,0 0.67958,0.25195 0.90984,0.86917 0.76706,2.05605 0.83022,2.16168 1.12343,1.86846 0.15794,-0.1579 0.36937,-1.04933 0.46934,-1.98078 0.17641,-1.64376 0.62962,-2.89804 1.04731,-2.89804 0.11256,0 0.33807,0.13401 0.50187,0.29787 0.4444,0.4444 0.87953,0.0391 0.87953,-0.81967 0,-0.76585 -0.39229,-1.08354 -1.34001,-1.08354 z m -33.88719,0.12715 c 0.0831,0.004 0.17836,0.0175 0.28604,0.037 0.81355,0.14663 2.31783,0.8226 2.31783,1.04139 0,0.13559 -1.77748,0.95418 -2.07171,0.95418 -0.071,0 -0.3152,-0.331 -0.54249,-0.7354 -0.55404,-0.98577 -0.57115,-1.33046 0.01,-1.29714 z m -60.00194,0.14045 c -0.39233,0 -1.10054,1.75668 -1.10054,2.72952 0,1.6166 1.12417,2.05693 2.28605,0.89505 0.75098,-0.75097 0.89753,-2.28946 0.26756,-2.81229 -0.59781,-0.49613 -0.97452,-0.0706 -0.89062,1.00593 0.0583,0.74904 -0.0318,0.99482 -0.39246,1.06874 -0.37535,0.077 -0.46786,-0.0909 -0.46786,-0.84479 0,-0.51722 0.12044,-1.01475 0.26757,-1.10571 0.33097,-0.20455 0.35459,-0.93645 0.0303,-0.93645 z m 136.8333,0.26757 c -0.17373,0 -0.82282,0.36764 -1.44273,0.8167 l -1.12713,0.81672 0.54619,0.85587 c 1.19184,1.8675 1.25204,2.0859 0.68072,2.48118 -1.43371,0.99192 -1.51145,1.34926 -0.52476,2.41392 0.36792,0.39698 0.66889,0.82406 0.66889,0.94974 0,0.50396 0.99497,0.15859 1.98597,-0.68959 l 1.04954,-0.89801 -0.88619,-1.38138 c -0.85298,-1.32923 -0.86748,-1.39521 -0.38066,-1.74576 1.67514,-1.20621 1.62181,-1.00786 0.6386,-2.37696 -0.49072,-0.68331 -1.03472,-1.24243 -1.20844,-1.24243 z m 48.642677,0.83666 c -0.215717,-0.0217 -0.302337,0.0971 -0.444217,0.33704 -0.16227,0.27432 -0.56613,0.91053 -0.89728,1.4139 -0.68137,1.03578 -0.75256,1.41962 -0.26755,1.44199 0.18397,0.009 0.75544,0.3024 1.27052,0.65337 0.515105,0.35096 1.029779,0.64489 1.1434,0.65337 0.113696,0.009 0.565435,-0.54988 1.003698,-1.24095 0.438273,-0.69109 0.792117,-1.44386 0.786412,-1.67261 -0.0054,-0.22958 -0.623064,-0.71423 -1.377691,-1.08204 -0.657367,-0.32041 -1.00161,-0.48236 -1.217292,-0.50407 z m -34.416397,0.54915 c -0.9138,0.053 -1.60596,0.9336 -1.89062,2.46638 l -0.19366,1.04215 -0.5462,-0.89728 c -0.70306,-1.15609 -1.86993,-2.39099 -2.25943,-2.39099 -0.34083,0 -0.62493,0.85279 -0.63047,1.89285 -0.004,0.8045 0.9262,1.7671 1.83373,1.89654 0.48922,0.0697 0.75256,0.41041 1.15596,1.4952 0.28732,0.77266 0.62676,1.40429 0.75462,1.40429 0.12786,0 0.30736,-0.57146 0.39838,-1.27051 0.091,-0.69905 0.29428,-1.85678 0.45159,-2.57208 0.28307,-1.28709 0.29508,-1.29873 1.18848,-1.15374 0.87567,0.14217 0.9032,0.11928 0.9032,-0.75538 0,-0.66668 -0.13946,-0.9461 -0.53513,-1.07168 -0.15269,-0.0486 -0.30132,-0.0761 -0.44493,-0.085 -0.0628,-0.004 -0.12457,-0.004 -0.18552,-7.6e-4 z m -53.27094,0.80193 c -0.16163,0.0171 -0.52569,0.49425 -0.82409,1.20844 -0.47961,1.14787 -0.51504,2.53375 -0.0761,2.97268 0.39962,0.39961 0.36049,0.40372 0.86402,-0.0999 0.54716,-0.54716 0.53824,-1.18477 -0.0164,-1.18477 -0.44456,0 -0.42493,-0.68227 0.0672,-2.38289 0.10667,-0.36851 0.0822,-0.52399 -0.0146,-0.51367 z m 62.02416,0.74206 c -0.83651,-0.004 -1.34336,0.28191 -1.82117,0.90837 -0.89694,1.17595 -0.86261,1.33952 0.238,1.13304 1.18775,-0.22283 2.40146,0.0605 2.04731,0.4782 -0.1416,0.16703 -1.64153,0.96589 -3.33262,1.77533 -1.69108,0.80944 -3.13969,1.6224 -3.21953,1.80636 -0.2078,0.4788 0.16042,0.42318 2.46785,-0.37324 2.79519,-0.96477 4.82823,-2.09755 5.86112,-3.26536 1.19533,-1.3515 1.13182,-1.78522 -0.31413,-2.14932 -0.80424,-0.20251 -1.42492,-0.31073 -1.92683,-0.31338 z m -40.79339,0.21287 c -0.32259,-0.0129 -0.51003,0.12972 -0.5159,0.43163 -0.003,0.16823 -0.2414,0.60696 -0.52919,0.97487 -0.78572,1.00448 -0.65171,1.40117 0.73985,2.19145 0.69694,0.39582 1.28694,0.72649 1.31116,0.73541 0.0241,0.009 0.35489,-0.54019 0.73541,-1.221 0.38052,-0.68081 0.6918,-1.39667 0.6918,-1.59055 0,-0.19388 -0.49894,-0.64971 -1.10865,-1.01332 -0.54456,-0.32472 -1.00188,-0.49509 -1.32448,-0.50849 z m -34.61519,1.73762 c -0.0525,0.004 -0.14713,0.0909 -0.29418,0.238 -0.46536,0.46535 -0.81789,2.36467 -0.56246,3.03033 0.20951,0.54594 0.87682,0.53014 1.09019,-0.0259 0.0928,-0.24204 -0.015,-0.64316 -0.23947,-0.89136 -0.22463,-0.24821 -0.36541,-0.50155 -0.31264,-0.56321 0.0529,-0.0617 0.17619,-0.53196 0.27421,-1.04508 0.10215,-0.53436 0.13187,-0.75103 0.0444,-0.74281 z m 28.80066,0.72802 c -0.33415,-0.0469 -1.26331,1.35739 -1.71989,2.64379 -0.73984,2.0844 -0.56109,2.98997 0.73615,3.73395 0.69795,0.40029 0.66708,0.40336 1.64376,-0.19217 0.60116,-0.36658 0.96993,-0.90113 1.29344,-1.8751 0.43307,-1.30388 0.43087,-1.40028 -0.0532,-2.22915 -0.63231,-1.08268 -1.17503,-1.10641 -1.45752,-0.0635 -0.16078,0.59351 -0.11312,0.88013 0.18183,1.09978 0.95238,0.70931 -0.16771,1.79625 -1.374,1.33335 -0.55144,-0.21162 -0.3562,-1.69012 0.42424,-3.21732 0.29571,-0.57865 0.46816,-1.12038 0.38359,-1.20401 -0.0167,-0.0165 -0.0361,-0.0266 -0.0584,-0.0296 z m 82.906804,0.51958 c 0.484784,-0.005 0.980707,0.22192 1.441994,0.6689 0.387964,0.37593 0.462739,0.49558 0.374725,0.60164 -0.06038,0.0728 -0.221753,0.12357 -0.358462,0.11313 -0.136741,-0.01 -0.583604,-0.0339 -0.993365,-0.0518 -0.628423,-0.0274 -0.796013,-0.0707 -1.069485,-0.27938 -0.264581,-0.20182 -0.318916,-0.30155 -0.295623,-0.54029 0.02433,-0.24879 0.08751,-0.31256 0.421267,-0.42795 0.157364,-0.0543 0.317366,-0.0822 0.478949,-0.0842 z m -51.046994,0.31931 c -0.0867,-0.0156 -0.24419,0.10867 -0.4634,0.39616 -0.81227,1.06525 -1.14013,2.98512 -0.66225,3.87808 0.33587,0.62752 0.62188,0.65086 1.17592,0.0969 0.58374,-0.58375 0.52567,-1.1848 -0.11457,-1.1848 -0.65581,0 -0.70029,-0.69397 -0.13086,-2.05692 0.28823,-0.68984 0.3398,-1.10334 0.19511,-1.12935 z m -96.91871,1.12639 c -0.3579,3.9e-4 -0.57708,0.10581 -0.83741,0.34148 -0.78486,0.71029 -0.6264,1.14064 0.45382,1.23355 0.95296,0.082 0.93695,0.0972 -1.20254,1.15376 -1.19216,0.58867 -2.16812,1.17573 -2.16925,1.30449 -0.003,0.38702 1.56564,-0.0484 3.36218,-0.93273 2.87514,-1.41544 3.34955,-2.57346 1.22616,-2.99338 -0.3535,-0.07 -0.61823,-0.10742 -0.83296,-0.10709 z m 28.45106,0.14045 c 0.24131,0.0291 0.50276,0.35559 1.01701,0.92388 0.56993,0.62979 1.07994,1.31291 1.13379,1.51884 0.12874,0.49219 -0.58763,1.15646 -2.02883,1.88029 -1.1721,0.5887 -2.15036,0.71812 -2.53365,0.33483 -0.48941,-0.48943 -0.20475,-1.32279 1.08574,-3.1789 0.73869,-1.06245 1.01569,-1.51632 1.32594,-1.47894 z m -48.00111,1.44864 c 0.46289,-0.0307 0.9265,0.22142 1.47747,0.77238 1.1626,1.16258 0.77199,1.5822 -0.97414,1.04582 -0.44151,-0.13559 -1.04417,-0.43336 -1.33852,-0.6615 -0.52883,-0.40988 -0.52879,-0.41869 -0.0155,-0.79897 0.29558,-0.21899 0.57298,-0.33931 0.85071,-0.35773 z m 165.642872,0.45603 c 0.04639,-0.004 0.09569,0.0219 0.154458,0.0755 0.278972,0.25461 1.073478,0.391 2.277929,0.391 1.452272,0 2.008849,0.0976 2.704384,0.4745 1.157112,0.62698 1.223384,1.03288 0.269037,1.6371 -0.744068,0.47111 -1.01078,0.62719 -1.235051,0.72212 -0.130154,0.0551 -0.3497,0.16398 -0.487808,0.24167 -0.138162,0.0776 -0.308389,0.14089 -0.378417,0.14117 -0.07007,3.2e-4 -0.251912,0.0661 -0.404293,0.1456 -1.378143,0.71866 -4.006246,1.06025 -5.549213,0.72136 -0.810619,-0.17804 -1.471097,-0.49727 -1.72358,-0.83224 l -0.170733,-0.22616 0.420557,-0.18034 c 0.2313,-0.0991 0.448531,-0.22674 0.483362,-0.28308 0.03466,-0.0564 0.146407,-0.10204 0.247596,-0.10204 0.101071,0 0.342424,-0.0851 0.536578,-0.18921 0.194165,-0.10408 0.431213,-0.18921 0.526256,-0.18921 0.09515,0 0.405606,-0.11067 0.690336,-0.24538 0.508668,-0.24064 0.615475,-0.36666 0.989673,-1.17371 0.06038,-0.13 0.147193,-0.30036 0.192895,-0.37843 0.04574,-0.078 0.144825,-0.28025 0.220988,-0.44937 0.08902,-0.1975 0.157795,-0.2926 0.235046,-0.3008 z m -7.107991,0.46711 c 0.997627,7.6e-4 2.386168,0.1511 2.506312,0.27126 0.168009,0.16799 -0.03154,0.47165 -0.385069,0.58611 -0.192637,0.0624 -0.563208,0.22426 -0.823365,0.35992 -0.260167,0.13574 -0.495557,0.25838 -0.522552,0.27201 -0.02702,0.0142 -0.154706,-0.0476 -0.283816,-0.13602 -0.129153,-0.0885 -0.256659,-0.19243 -0.283826,-0.23134 -0.07567,-0.10846 -0.675569,-0.49566 -0.97116,-0.62676 -0.225595,-0.1001 -0.249425,-0.14451 -0.162606,-0.30674 0.08966,-0.16757 0.197427,-0.18911 0.926082,-0.18847 z M -286.25072,209.728 c -0.0325,-0.0305 -0.13917,0.0677 -0.34442,0.27274 -0.48022,0.47954 -1.25023,2.47497 -1.25648,3.25576 -0.01,1.20258 0.86598,1.88127 1.54769,1.19956 0.46712,-0.46714 0.39368,-1.28457 -0.11528,-1.28457 -0.35852,0 -0.40911,-0.20197 -0.28454,-1.13675 0.0834,-0.62547 0.24148,-1.43843 0.35106,-1.80636 0.0926,-0.3108 0.13444,-0.46986 0.10204,-0.50038 z m 67.81649,0.47525 c -0.50407,-0.0145 -0.70741,0.33519 -1.13525,1.22913 -0.35216,0.73585 -0.68401,1.38309 -0.73688,1.43829 -0.053,0.0552 -0.58751,-0.0959 -1.18849,-0.33628 l -1.09312,-0.43756 -0.64303,1.38878 c -0.35391,0.76388 -0.58268,1.48753 -0.5085,1.60754 0.16172,0.26167 2.25682,1.26628 2.66965,1.28014 0.16004,0.005 0.57062,-0.65252 0.91277,-1.46194 0.34218,-0.80944 0.66699,-1.47158 0.72139,-1.47158 0.0544,0 0.53077,0.1806 1.05912,0.40136 1.29062,0.53925 1.40174,0.5172 1.71029,-0.33483 0.14658,-0.40472 0.39827,-0.99453 0.55949,-1.31117 0.42259,-0.8298 0.21562,-1.16963 -0.98226,-1.61051 -0.63189,-0.23258 -1.04272,-0.37264 -1.34518,-0.38137 z m 62.01234,1.11679 c -0.10824,-0.006 -0.31642,0.15779 -0.58833,0.5181 -0.47869,0.63435 -1.06727,2.4586 -1.06727,3.30824 0,0.76284 0.52465,1.77164 0.92092,1.77164 0.21922,0 0.52319,-0.23272 0.67554,-0.51739 0.42479,-0.79372 0.33227,-1.27896 -0.2742,-1.43755 -0.47848,-0.12515 -0.52714,-0.27584 -0.36438,-1.14339 0.10311,-0.54968 0.34726,-1.30582 0.54175,-1.68072 0.26933,-0.51913 0.29517,-0.81039 0.15597,-0.81893 z m -114.86566,0.28899 c -0.0354,-0.015 -0.13459,0.0754 -0.32077,0.26163 -0.69393,0.69393 -1.10882,2.46139 -0.73985,3.15081 0.40459,0.75599 0.92425,0.58905 1.03327,-0.33187 0.0495,-0.41741 -0.0464,-0.7147 -0.22986,-0.7147 -0.3003,0 -0.25024,-0.51124 0.19363,-1.99485 0.0705,-0.23561 0.0988,-0.356 0.0636,-0.37102 z m 57.76763,1.32225 c -0.0447,-0.0181 -0.15889,0.0964 -0.34071,0.27051 -0.48275,0.46221 -0.8473,2.35218 -0.58538,3.03476 0.17841,0.46493 0.22764,0.47961 0.82263,0.2513 0.53601,-0.20568 0.54361,-0.74267 0.0164,-1.18034 -0.22407,-0.18598 -0.34446,-0.56163 -0.26755,-0.8352 0.31223,-1.11063 0.42937,-1.51067 0.35477,-1.54103 z m -12.90254,0.34073 c -0.0499,-3.9e-4 -0.13945,0.10312 -0.27937,0.28086 -0.56915,0.72302 -0.78441,2.13451 -0.42721,2.80193 0.3787,0.70758 0.71744,0.71534 1.08724,0.0243 0.22975,-0.42931 0.19912,-0.57363 -0.14932,-0.70732 -0.35328,-0.13559 -0.40503,-0.40518 -0.27124,-1.40061 0.0955,-0.70969 0.12314,-0.99852 0.0399,-0.99927 z" />
      </g>
    </g>
  </g>
</svg>
