<svg id="svg" version="1.1" width="344" height="474" xmlns="http://www.w3.org/2000/svg" xmlns:xlink="http://www.w3.org/1999/xlink" style="display: block;"><g id="svgg"><path id="path0" d="M89.602 71.822 L 60.800 100.444 60.800 177.119 L 60.800 253.794 85.698 278.497 L 110.595 303.200 122.806 303.200 L 135.016 303.200 136.400 305.312 C 137.772 307.407,137.846 307.420,145.292 306.976 C 152.267 306.560,152.800 306.635,152.800 308.033 C 152.800 309.986,149.777 312.793,147.088 313.337 C 145.927 313.572,143.767 314.836,142.288 316.146 C 140.810 317.455,138.418 319.578,136.973 320.863 C 135.528 322.149,134.088 323.212,133.773 323.227 C 131.802 323.318,129.297 326.567,130.625 327.310 C 132.258 328.224,131.221 330.828,127.719 334.600 L 125.676 336.800 94.198 336.800 C 70.782 336.800,62.474 337.046,61.760 337.760 C 60.436 339.084,60.378 411.316,61.699 413.784 C 62.193 414.708,73.443 426.385,86.699 439.734 L 110.800 464.005 197.200 463.992 L 283.600 463.979 308.600 439.113 L 333.600 414.248 333.600 336.369 L 333.600 258.491 331.920 257.314 C 330.996 256.667,326.046 252.076,320.920 247.114 C 306.586 233.235,296.237 223.313,289.051 216.557 L 282.501 210.400 254.051 210.400 C 223.204 210.400,222.376 210.280,222.411 205.800 C 222.450 200.840,223.949 199.898,228.240 202.135 C 236.028 206.196,264.398 208.293,266.080 204.933 C 266.594 203.906,267.416 202.664,267.907 202.173 C 269.016 201.064,269.094 191.476,268.000 190.800 C 267.560 190.528,267.200 189.607,267.200 188.753 C 267.200 187.899,266.711 187.200,266.113 187.200 C 264.641 187.200,257.600 180.928,257.600 179.618 C 257.600 177.715,259.841 177.600,296.865 177.600 L 333.600 177.600 333.581 139.000 L 333.562 100.400 305.381 71.769 L 277.200 43.138 197.802 43.169 L 118.404 43.200 89.602 71.822 M203.582 53.696 C 204.507 60.394,205.504 62.106,209.435 63.749 C 213.688 65.527,213.535 69.552,209.151 71.218 C 205.833 72.480,206.562 75.729,211.289 80.737 C 215.141 84.819,215.355 85.267,214.993 88.479 C 214.629 91.709,214.815 92.086,218.505 95.622 C 224.269 101.146,223.566 105.789,217.136 104.660 C 213.573 104.034,215.362 106.873,219.715 108.751 C 233.838 114.845,233.849 122.596,219.733 122.199 C 201.735 121.692,207.045 133.734,228.800 142.762 C 248.703 151.022,256.047 156.296,252.535 159.808 C 251.254 161.089,248.939 160.944,229.600 158.377 C 219.703 157.063,218.889 157.072,218.593 158.492 C 218.407 159.389,219.080 159.936,220.791 160.278 C 222.440 160.608,223.713 161.598,224.629 163.265 C 226.964 167.511,228.856 169.600,230.367 169.600 C 231.164 169.600,232.848 170.138,234.109 170.795 C 235.369 171.452,237.670 171.992,239.222 171.995 C 242.570 172.001,245.178 173.658,247.247 177.093 C 248.077 178.472,250.641 180.861,252.946 182.403 C 258.962 186.428,261.995 191.631,261.998 197.934 L 262.000 202.800 259.600 202.682 C 242.597 201.847,235.078 200.361,230.224 196.875 C 223.370 191.953,218.877 192.671,217.953 198.837 C 216.562 208.111,222.698 216.976,235.289 223.883 C 251.068 232.538,251.526 238.748,236.249 236.892 C 232.372 236.421,226.860 235.938,224.000 235.818 L 218.800 235.600 219.044 237.885 C 219.546 242.593,224.151 247.958,232.000 252.977 C 240.352 258.318,243.613 259.919,247.200 260.442 C 263.324 262.789,265.294 265.723,256.485 274.265 C 249.567 280.973,247.444 281.470,241.557 277.757 C 227.885 269.135,220.800 269.133,220.800 277.752 C 220.800 287.987,232.752 297.287,248.260 299.120 C 258.263 300.302,260.168 303.650,254.400 309.907 C 249.655 315.055,250.316 317.093,257.561 319.657 C 266.313 322.754,273.562 333.027,276.149 346.000 C 278.366 357.118,273.842 357.557,260.000 347.567 C 251.257 341.257,247.003 339.789,236.465 339.442 C 225.996 339.097,221.084 338.164,216.942 335.733 C 211.582 332.588,211.584 332.574,211.715 368.358 C 211.890 415.958,213.958 424.411,227.365 432.317 C 230.134 433.950,234.380 437.070,236.800 439.251 C 240.028 442.159,243.142 443.970,248.488 446.047 C 256.529 449.171,260.302 452.243,259.867 455.314 L 259.600 457.200 203.377 457.405 C 153.303 457.588,147.102 457.476,146.680 456.376 C 145.745 453.940,152.852 448.864,157.263 448.818 C 160.889 448.779,166.004 444.281,168.318 439.096 C 172.111 430.595,179.832 424.000,185.991 424.000 C 188.614 424.000,191.795 419.321,192.903 413.836 C 194.460 406.120,194.481 345.996,192.928 340.848 C 189.767 330.373,182.855 329.266,176.459 338.211 C 172.916 343.165,167.881 346.400,163.712 346.400 C 161.407 346.400,160.027 347.074,157.382 349.493 C 152.915 353.578,150.154 354.870,144.541 355.503 C 138.725 356.158,134.329 358.355,131.436 362.054 C 127.542 367.030,119.950 369.224,118.831 365.697 C 117.197 360.548,129.439 337.302,137.363 330.508 C 151.211 318.633,154.282 315.719,155.389 313.401 C 156.073 311.970,157.055 309.876,157.573 308.746 C 158.710 306.264,158.368 300.332,157.101 300.566 C 142.113 303.338,141.141 303.367,141.387 301.021 C 141.802 297.068,146.845 293.349,155.114 290.898 C 161.366 289.044,165.561 286.320,170.680 280.791 C 177.973 272.914,175.938 268.985,166.912 273.516 C 156.408 278.789,134.086 285.599,131.694 284.261 C 129.702 283.146,131.343 281.735,136.436 280.185 C 142.307 278.397,143.509 274.700,138.631 273.436 C 135.207 272.549,135.884 270.999,140.884 268.277 C 143.038 267.105,144.800 265.872,144.800 265.538 C 144.800 264.257,150.316 261.600,152.975 261.600 C 154.508 261.600,157.454 260.700,159.523 259.600 C 162.038 258.263,164.564 257.600,167.144 257.600 C 172.337 257.600,173.118 256.486,173.164 249.021 C 173.203 242.524,173.465 242.937,167.743 240.483 C 164.969 239.293,164.309 239.284,160.598 240.386 C 155.936 241.770,145.154 242.020,144.376 240.761 C 142.951 238.455,150.910 233.628,163.460 229.188 C 170.306 226.765,183.256 211.165,183.173 205.440 C 183.085 199.351,179.655 198.975,161.600 203.077 C 133.842 209.382,133.083 209.326,133.508 200.993 C 133.652 198.168,137.436 194.865,144.320 191.557 C 148.118 189.732,152.588 186.723,155.520 184.016 C 160.113 179.778,179.804 169.600,183.412 169.600 C 184.593 169.600,188.000 166.720,188.000 165.722 C 188.000 163.749,177.952 156.807,175.090 156.802 C 174.369 156.801,171.942 158.064,169.696 159.609 C 160.643 165.837,149.881 170.235,147.204 168.802 C 140.865 165.410,160.572 143.200,169.920 143.200 C 174.991 143.200,185.242 137.003,188.371 132.045 C 194.890 121.718,190.138 117.255,178.093 122.392 C 172.197 124.907,170.795 124.777,168.501 121.502 C 166.659 118.872,168.000 116.482,172.674 114.065 C 176.045 112.322,177.717 108.977,175.763 107.883 C 171.468 105.480,177.620 98.115,187.800 93.475 C 191.843 91.632,191.923 91.286,188.797 89.200 C 183.991 85.994,184.099 80.531,189.041 76.800 C 194.853 72.412,195.585 70.297,191.534 69.596 C 187.611 68.917,187.603 62.818,191.523 61.181 C 194.689 59.858,198.400 54.991,198.400 52.162 C 198.400 44.725,202.511 45.943,203.582 53.696 M194.113 51.606 C 194.815 53.436,192.237 56.800,190.132 56.800 C 185.495 56.800,182.951 62.988,185.012 69.251 L 186.207 72.880 183.532 76.082 C 179.909 80.418,179.139 85.197,181.203 90.531 C 181.582 91.510,180.524 92.744,177.210 95.193 C 171.593 99.342,169.567 102.525,169.731 106.944 C 169.838 109.819,169.485 110.600,167.219 112.507 C 161.040 117.706,161.670 124.081,168.726 127.761 C 170.665 128.772,172.105 129.647,171.926 129.705 C 171.747 129.763,167.460 130.033,162.400 130.305 L 153.200 130.800 152.800 139.200 C 152.410 147.391,151.718 149.910,149.309 151.909 C 140.166 159.497,139.630 172.200,148.400 173.444 L 152.400 174.012 152.646 177.402 C 152.952 181.622,151.149 183.496,142.721 187.718 C 130.055 194.063,125.864 201.174,130.403 208.620 C 132.651 212.306,134.548 212.773,142.000 211.473 C 151.484 209.818,152.316 210.043,152.800 214.400 L 153.200 218.000 160.793 218.233 C 164.968 218.360,168.681 218.761,169.042 219.122 C 170.144 220.224,165.213 224.414,161.499 225.530 C 147.328 229.791,140.000 235.440,140.000 242.104 C 140.000 246.871,140.683 247.048,154.070 245.768 C 168.579 244.379,169.600 244.578,169.600 248.787 C 169.600 252.623,168.174 253.600,162.577 253.600 C 159.664 253.600,158.274 254.014,157.200 255.200 C 156.256 256.243,154.736 256.800,152.833 256.800 C 150.032 256.800,143.339 260.233,142.039 262.337 C 141.735 262.828,139.725 264.123,137.572 265.214 C 132.865 267.599,131.660 269.554,132.327 273.722 C 132.767 276.477,132.609 276.912,130.936 277.548 C 127.910 278.699,126.400 280.717,126.400 283.612 C 126.400 290.293,135.243 290.292,153.600 283.609 C 161.136 280.865,163.200 280.398,163.200 281.435 C 163.200 282.582,157.047 285.394,153.200 286.005 C 148.459 286.759,141.760 290.393,138.828 293.800 L 136.247 296.800 125.123 296.796 L 114.000 296.792 91.000 273.839 L 68.000 250.886 68.000 177.493 L 68.000 104.100 94.448 77.867 C 108.995 63.439,121.325 51.362,121.848 51.030 C 123.885 49.735,193.608 50.291,194.113 51.606 M288.271 64.983 C 296.119 73.022,307.909 85.066,314.471 91.747 L 326.400 103.894 326.400 137.554 L 326.400 171.215 287.000 171.008 L 247.600 170.800 247.600 168.000 C 247.600 165.246,247.664 165.193,251.480 164.754 C 260.537 163.714,260.603 156.327,251.616 149.542 L 247.256 146.250 247.028 138.525 L 246.800 130.800 230.800 130.400 C 214.953 130.004,214.798 129.983,214.544 128.199 C 214.296 126.450,214.468 126.404,220.544 126.588 C 234.730 127.016,238.915 119.557,229.761 110.161 C 227.024 107.351,226.800 106.764,226.800 102.400 C 226.800 98.024,226.581 97.454,223.800 94.606 C 221.411 92.158,220.800 90.920,220.800 88.527 C 220.800 84.987,219.376 81.967,216.403 79.200 C 212.864 75.907,212.649 74.916,214.832 71.957 C 218.441 67.065,216.387 60.000,211.355 60.000 C 208.271 60.000,205.530 53.137,207.733 50.933 C 208.027 50.640,223.057 50.392,241.133 50.383 L 274.000 50.366 288.271 64.983 M186.400 126.343 C 186.400 128.865,184.176 130.401,180.543 130.388 C 176.608 130.373,174.423 129.374,176.084 128.348 C 182.023 124.677,186.400 123.827,186.400 126.343 M169.859 138.126 C 170.374 138.640,162.970 141.522,161.000 141.574 C 160.450 141.588,160.000 140.700,160.000 139.600 C 160.000 137.624,168.140 136.406,169.859 138.126 M239.555 138.328 C 240.223 139.408,239.182 141.600,238.002 141.600 C 236.283 141.600,230.371 138.696,230.937 138.130 C 231.739 137.328,239.041 137.496,239.555 138.328 M238.987 164.439 C 240.459 164.888,239.258 167.200,237.552 167.200 C 235.788 167.200,232.000 165.566,232.000 164.805 C 232.000 163.317,234.818 163.169,238.987 164.439 M168.800 168.746 C 168.800 170.151,162.828 174.400,160.853 174.400 C 158.301 174.400,160.139 170.259,163.324 168.834 C 166.423 167.446,168.800 167.408,168.800 168.746 M178.130 205.251 C 179.610 209.108,177.295 210.400,168.903 210.400 C 160.731 210.400,156.790 208.717,162.228 207.550 C 168.403 206.225,173.861 204.805,174.240 204.427 C 175.144 203.523,177.673 204.059,178.130 205.251 M290.025 227.816 C 295.319 232.977,305.669 242.913,313.025 249.896 L 326.400 262.592 326.378 337.096 L 326.357 411.600 303.640 434.600 L 280.923 457.600 274.127 457.600 C 265.686 457.600,264.971 457.324,264.313 453.816 C 263.595 449.992,258.881 445.569,253.505 443.675 C 246.506 441.209,243.037 439.222,238.800 435.249 C 236.600 433.187,232.509 430.280,229.709 428.790 C 220.507 423.892,217.709 416.774,216.821 396.000 C 216.447 387.249,216.513 381.631,216.996 381.016 C 217.553 380.307,222.389 379.972,234.285 379.816 L 250.800 379.600 251.200 364.410 C 251.670 346.574,251.573 346.718,259.380 352.245 C 272.696 361.673,281.383 361.164,281.073 350.975 C 280.666 337.569,271.518 321.206,262.166 317.154 C 256.610 314.748,256.527 314.575,259.252 311.134 C 265.832 302.827,260.641 295.356,247.765 294.600 C 239.099 294.091,232.460 290.428,226.964 283.124 C 220.566 274.623,227.482 273.628,239.265 281.355 C 247.107 286.498,251.578 285.510,260.200 276.730 C 271.263 265.464,267.592 259.053,248.572 256.423 C 239.644 255.188,220.085 240.012,228.081 240.523 C 229.136 240.590,233.622 240.905,238.048 241.222 C 255.791 242.492,256.794 229.784,239.610 221.435 C 233.940 218.680,235.714 218.399,258.647 218.416 L 280.400 218.433 290.025 227.816 M185.887 344.600 C 186.159 346.250,186.386 351.110,186.391 355.400 C 186.397 360.699,186.692 363.200,187.312 363.200 C 189.956 363.200,191.517 370.077,189.292 371.924 C 188.538 372.550,184.380 372.773,176.292 372.622 L 164.400 372.400 164.400 361.625 L 164.400 350.851 167.954 350.148 C 170.728 349.599,171.694 349.697,172.354 350.593 C 173.752 352.489,179.798 348.062,182.368 343.261 C 183.754 340.669,185.336 341.272,185.887 344.600 M241.967 343.987 L 244.038 344.775 243.819 358.587 L 243.600 372.400 230.907 372.621 C 222.226 372.772,217.864 372.551,217.107 371.923 C 215.833 370.866,215.608 365.937,216.800 365.200 C 217.261 364.915,217.600 360.658,217.600 355.153 C 217.600 345.689,218.863 342.618,221.200 346.400 C 222.078 347.821,234.372 347.403,234.936 345.933 C 235.360 344.828,237.705 343.403,239.348 343.251 C 239.649 343.223,240.828 343.554,241.967 343.987 M119.000 344.504 C 121.268 345.112,121.254 345.957,118.897 350.850 C 113.385 362.292,113.054 367.987,117.740 370.755 C 122.255 373.422,130.728 370.784,133.928 365.714 C 136.144 362.203,140.148 360.000,144.312 360.000 C 145.891 360.000,149.043 359.293,151.316 358.430 C 156.879 356.316,156.800 356.166,156.800 368.847 L 156.800 380.000 172.302 380.000 C 191.565 380.000,190.048 378.721,189.742 394.707 C 189.315 417.080,188.971 418.078,180.594 421.279 C 173.583 423.958,169.334 427.998,165.862 435.285 C 163.231 440.807,160.368 443.732,156.870 444.473 C 150.421 445.838,142.400 450.942,142.400 453.680 C 142.400 456.858,139.430 457.600,126.600 457.627 L 114.000 457.653 91.001 434.227 L 68.001 410.800 68.001 378.240 C 68.000 348.074,68.103 345.620,69.400 344.864 C 70.909 343.985,115.846 343.659,119.000 344.504 " stroke="none" fill="#ffffff" fill-rule="evenodd"></path><path id="path1" d="M115.800 32.357 C 114.590 32.989,113.600 33.297,113.600 33.043 C 113.600 32.790,103.731 42.480,91.670 54.579 C 79.608 66.677,69.168 76.795,68.470 77.063 C 67.771 77.331,67.198 78.011,67.195 78.575 C 67.192 79.139,65.932 80.456,64.395 81.503 C 62.858 82.550,61.600 83.900,61.600 84.503 C 61.600 85.106,61.251 85.600,60.825 85.600 C 59.808 85.600,52.685 92.704,51.393 95.007 C 50.601 96.418,50.390 114.010,50.408 177.177 L 50.430 257.552 56.015 263.271 C 59.087 266.417,61.600 269.269,61.600 269.609 C 61.600 269.948,62.469 270.445,63.532 270.711 C 64.639 270.989,65.918 272.222,66.527 273.598 C 67.112 274.919,67.852 276.000,68.172 276.000 C 68.491 276.000,76.953 284.138,86.976 294.084 C 96.999 304.030,105.920 312.651,106.800 313.243 C 108.356 314.289,142.836 315.160,144.538 314.196 C 144.902 313.990,146.107 313.605,147.216 313.342 C 149.868 312.711,152.800 309.923,152.800 308.033 C 152.800 306.635,152.267 306.560,145.292 306.976 C 137.846 307.420,137.772 307.407,136.400 305.312 L 135.016 303.200 122.806 303.200 L 110.595 303.200 85.698 278.497 L 60.800 253.794 60.800 177.119 L 60.800 100.444 89.602 71.822 L 118.404 43.200 197.802 43.169 L 277.200 43.138 305.381 71.769 L 333.562 100.400 333.581 139.000 L 333.600 177.600 296.865 177.600 C 253.042 177.600,253.938 177.440,261.321 183.940 L 265.042 187.215 303.921 187.008 L 342.800 186.800 342.800 140.649 L 342.800 94.498 337.910 89.714 C 335.221 87.082,332.802 84.360,332.535 83.665 C 332.269 82.969,331.589 82.396,331.025 82.390 C 330.461 82.385,329.187 81.125,328.193 79.590 C 327.199 78.056,325.840 76.800,325.173 76.800 C 324.506 76.800,323.618 75.900,323.200 74.800 C 322.782 73.700,322.078 72.800,321.636 72.800 C 321.194 72.800,319.296 71.129,317.416 69.087 C 315.537 67.046,310.288 61.556,305.751 56.887 C 301.213 52.219,296.371 47.230,294.989 45.800 C 293.607 44.370,292.190 43.200,291.839 43.200 C 291.487 43.200,291.200 42.891,291.200 42.514 C 291.200 41.856,283.224 33.388,282.400 33.171 C 282.180 33.113,280.987 32.646,279.748 32.133 C 276.069 30.609,118.739 30.824,115.800 32.357 M121.848 51.030 C 121.325 51.362,108.995 63.439,94.448 77.867 L 68.000 104.100 68.000 177.493 L 68.000 250.886 91.000 273.839 L 114.000 296.792 125.123 296.796 L 136.247 296.800 138.828 293.800 C 141.760 290.393,148.459 286.759,153.200 286.005 C 157.047 285.394,163.200 282.582,163.200 281.435 C 163.200 280.398,161.136 280.865,153.600 283.609 C 135.243 290.292,126.400 290.293,126.400 283.612 C 126.400 280.717,127.910 278.699,130.936 277.548 C 132.609 276.912,132.767 276.477,132.327 273.722 C 131.660 269.554,132.865 267.599,137.572 265.214 C 139.725 264.123,141.735 262.828,142.039 262.337 C 143.339 260.233,150.032 256.800,152.833 256.800 C 154.736 256.800,156.256 256.243,157.200 255.200 C 158.274 254.014,159.664 253.600,162.577 253.600 C 168.174 253.600,169.600 252.623,169.600 248.787 C 169.600 244.578,168.579 244.379,154.070 245.768 C 140.683 247.048,140.000 246.871,140.000 242.104 C 140.000 235.440,147.328 229.791,161.499 225.530 C 165.213 224.414,170.144 220.224,169.042 219.122 C 168.681 218.761,164.968 218.360,160.793 218.233 L 153.200 218.000 152.800 214.400 C 152.316 210.043,151.484 209.818,142.000 211.473 C 134.548 212.773,132.651 212.306,130.403 208.620 C 125.864 201.174,130.055 194.063,142.721 187.718 C 151.149 183.496,152.952 181.622,152.646 177.402 L 152.400 174.012 148.400 173.444 C 139.630 172.200,140.166 159.497,149.309 151.909 C 151.718 149.910,152.410 147.391,152.800 139.200 L 153.200 130.800 162.400 130.305 C 167.460 130.033,171.747 129.763,171.926 129.705 C 172.105 129.647,170.665 128.772,168.726 127.761 C 161.670 124.081,161.040 117.706,167.219 112.507 C 169.485 110.600,169.838 109.819,169.731 106.944 C 169.567 102.525,171.593 99.342,177.210 95.193 C 180.524 92.744,181.582 91.510,181.203 90.531 C 179.139 85.197,179.909 80.418,183.532 76.082 L 186.207 72.880 185.012 69.251 C 182.951 62.988,185.495 56.800,190.132 56.800 C 192.237 56.800,194.815 53.436,194.113 51.606 C 193.608 50.291,123.885 49.735,121.848 51.030 M207.733 50.933 C 205.530 53.137,208.271 60.000,211.355 60.000 C 216.387 60.000,218.441 67.065,214.832 71.957 C 212.649 74.916,212.864 75.907,216.403 79.200 C 219.376 81.967,220.800 84.987,220.800 88.527 C 220.800 90.920,221.411 92.158,223.800 94.606 C 226.581 97.454,226.800 98.024,226.800 102.400 C 226.800 106.764,227.024 107.351,229.761 110.161 C 238.915 119.557,234.730 127.016,220.544 126.588 C 214.468 126.404,214.296 126.450,214.544 128.199 C 214.798 129.983,214.953 130.004,230.800 130.400 L 246.800 130.800 247.028 138.525 L 247.256 146.250 251.616 149.542 C 260.603 156.327,260.537 163.714,251.480 164.754 C 247.664 165.193,247.600 165.246,247.600 168.000 L 247.600 170.800 287.000 171.008 L 326.400 171.215 326.400 137.554 L 326.400 103.894 314.471 91.747 C 307.909 85.066,296.119 73.022,288.271 64.983 L 274.000 50.366 241.133 50.383 C 223.057 50.392,208.027 50.640,207.733 50.933 M179.969 126.280 C 175.111 128.711,174.886 128.910,176.115 129.688 C 177.952 130.852,183.786 130.500,185.143 129.143 C 188.775 125.511,185.324 123.601,179.969 126.280 M160.000 139.600 C 160.000 141.962,160.649 142.014,166.192 140.099 C 171.293 138.337,170.843 137.600,164.667 137.600 C 160.222 137.600,160.000 137.695,160.000 139.600 M230.937 138.130 C 230.371 138.696,236.283 141.600,238.002 141.600 C 239.182 141.600,240.223 139.408,239.555 138.328 C 239.041 137.496,231.739 137.328,230.937 138.130 M232.494 163.772 C 231.224 165.043,234.407 167.200,237.552 167.200 C 239.258 167.200,240.459 164.888,238.987 164.439 C 236.531 163.691,232.944 163.323,232.494 163.772 M163.324 168.834 C 160.684 170.016,160.000 170.741,160.000 172.361 C 160.000 175.295,162.872 174.720,167.000 170.961 C 170.419 167.846,168.286 166.612,163.324 168.834 M268.502 200.934 C 265.756 206.567,265.382 206.807,259.531 206.680 C 245.649 206.380,232.801 204.514,228.240 202.135 C 223.949 199.898,222.450 200.840,222.411 205.800 C 222.376 210.280,223.204 210.400,254.051 210.400 L 282.501 210.400 289.051 216.557 C 296.237 223.313,306.586 233.235,320.920 247.114 C 326.046 252.076,330.996 256.667,331.920 257.314 L 333.600 258.491 333.600 336.369 L 333.600 414.248 308.600 439.113 L 283.600 463.979 197.200 463.992 L 110.800 464.005 86.699 439.734 C 73.443 426.385,62.193 414.708,61.699 413.784 C 60.378 411.316,60.436 339.084,61.760 337.760 C 62.474 337.046,70.782 336.800,94.198 336.800 L 125.676 336.800 127.719 334.600 C 130.211 331.915,132.115 328.381,131.435 327.701 C 130.422 326.689,52.384 327.136,51.360 328.160 C 50.637 328.883,50.400 340.007,50.400 373.313 L 50.400 417.506 54.280 421.553 C 56.414 423.779,57.944 425.606,57.680 425.612 C 57.416 425.619,57.737 425.964,58.392 426.378 C 60.587 427.766,96.000 463.432,96.000 464.255 C 96.000 464.701,96.200 464.867,96.444 464.623 C 96.688 464.378,99.050 466.388,101.693 469.089 L 106.498 474.000 197.461 474.000 L 288.423 474.000 292.612 469.789 C 294.915 467.474,296.800 465.224,296.800 464.789 C 296.800 464.355,297.250 463.983,297.800 463.962 C 298.350 463.941,308.700 454.053,320.800 441.989 L 342.800 420.054 343.200 337.974 C 343.463 283.984,343.326 255.411,342.800 254.485 C 342.360 253.710,339.512 250.764,336.471 247.938 C 333.431 245.112,329.683 241.450,328.143 239.800 C 326.603 238.150,324.861 236.800,324.271 236.800 C 323.682 236.800,323.200 236.530,323.199 236.200 C 323.197 235.178,319.465 231.200,318.507 231.200 C 318.008 231.200,317.600 230.930,317.599 230.600 C 317.598 229.802,313.962 225.600,313.273 225.600 C 312.975 225.600,308.241 221.100,302.753 215.600 C 297.265 210.100,292.420 205.600,291.987 205.600 C 291.554 205.600,291.189 205.150,291.175 204.600 C 291.084 200.973,270.135 197.586,268.502 200.934 M174.240 204.427 C 173.861 204.805,168.403 206.225,162.228 207.550 C 160.727 207.872,160.198 208.384,160.514 209.208 C 161.410 211.544,176.618 210.875,177.722 208.451 C 179.131 205.360,176.429 202.237,174.240 204.427 M236.487 219.060 C 236.262 219.423,237.668 220.491,239.610 221.435 C 256.794 229.784,255.791 242.492,238.048 241.222 C 233.622 240.905,229.136 240.590,228.081 240.523 C 220.085 240.012,239.644 255.188,248.572 256.423 C 267.592 259.053,271.263 265.464,260.200 276.730 C 251.578 285.510,247.107 286.498,239.265 281.355 C 227.482 273.628,220.566 274.623,226.964 283.124 C 232.460 290.428,239.099 294.091,247.765 294.600 C 260.641 295.356,265.832 302.827,259.252 311.134 C 256.527 314.575,256.610 314.748,262.166 317.154 C 271.518 321.206,280.666 337.569,281.073 350.975 C 281.383 361.164,272.696 361.673,259.380 352.245 C 251.573 346.718,251.670 346.574,251.200 364.410 L 250.800 379.600 234.285 379.816 C 222.389 379.972,217.553 380.307,216.996 381.016 C 216.513 381.631,216.447 387.249,216.821 396.000 C 217.709 416.774,220.507 423.892,229.709 428.790 C 232.509 430.280,236.600 433.187,238.800 435.249 C 243.037 439.222,246.506 441.209,253.505 443.675 C 258.881 445.569,263.595 449.992,264.313 453.816 C 264.971 457.324,265.686 457.600,274.127 457.600 L 280.923 457.600 303.640 434.600 L 326.357 411.600 326.378 337.096 L 326.400 262.592 313.025 249.896 C 305.669 242.913,295.319 232.977,290.025 227.816 L 280.400 218.433 258.647 218.416 C 246.683 218.407,236.711 218.697,236.487 219.060 M237.600 343.785 C 233.961 345.175,233.191 347.325,233.429 355.422 L 233.658 363.200 225.917 363.200 C 217.282 363.200,216.073 363.848,216.025 368.502 C 215.984 372.592,216.963 372.863,230.907 372.621 L 243.600 372.400 243.819 358.587 L 244.038 344.775 241.967 343.987 C 239.698 343.125,239.368 343.109,237.600 343.785 M69.400 344.864 C 68.103 345.620,68.000 348.074,68.001 378.240 L 68.001 410.800 91.001 434.227 L 114.000 457.653 126.600 457.627 C 139.430 457.600,142.400 456.858,142.400 453.680 C 142.400 450.942,150.421 445.838,156.870 444.473 C 160.368 443.732,163.231 440.807,165.862 435.285 C 169.334 427.998,173.583 423.958,180.594 421.279 C 188.971 418.078,189.315 417.080,189.742 394.707 C 190.048 378.721,191.565 380.000,172.302 380.000 L 156.800 380.000 156.800 368.847 C 156.800 356.166,156.879 356.316,151.316 358.430 C 149.043 359.293,145.891 360.000,144.312 360.000 C 140.148 360.000,136.144 362.203,133.928 365.714 C 130.728 370.784,122.255 373.422,117.740 370.755 C 113.054 367.987,113.385 362.292,118.897 350.850 C 121.254 345.957,121.268 345.112,119.000 344.504 C 115.846 343.659,70.909 343.985,69.400 344.864 M166.800 350.289 L 164.400 350.816 164.400 361.608 L 164.400 372.400 176.292 372.622 C 189.382 372.866,190.416 372.564,190.375 368.502 C 190.327 363.855,189.112 363.200,180.544 363.200 L 172.865 363.200 172.632 356.600 C 172.377 349.345,172.161 349.111,166.800 350.289 " stroke="none" fill="#8c1515" fill-rule="evenodd"></path><path id="path2" d="M113.967 32.053 C 113.157 33.363,113.804 33.435,116.000 32.278 C 117.918 31.267,117.928 31.223,116.247 31.212 C 115.283 31.205,114.257 31.584,113.967 32.053 M199.256 48.695 C 198.816 49.517,198.645 50.378,198.875 50.608 C 200.457 52.191,195.230 59.632,191.416 61.225 C 187.344 62.927,187.472 68.478,191.600 69.253 C 195.591 70.001,195.191 71.812,190.056 76.245 C 184.673 80.892,183.618 87.009,187.961 88.388 C 192.124 89.709,192.224 91.687,188.220 93.494 C 178.063 98.076,171.586 105.162,175.534 107.371 C 177.461 108.450,177.048 110.958,174.677 112.563 C 167.139 117.668,166.089 120.587,170.704 123.611 C 172.399 124.721,172.929 124.655,177.104 122.809 C 186.864 118.492,191.219 118.937,191.182 124.245 C 191.125 132.561,182.549 140.235,169.627 143.535 C 160.944 145.752,155.326 150.151,148.910 159.756 C 140.712 172.031,150.696 171.982,169.573 159.656 C 174.952 156.143,174.966 156.143,181.282 159.676 C 188.635 163.787,189.879 167.928,184.177 169.308 C 177.459 170.935,159.807 180.006,155.373 184.111 C 152.825 186.470,147.970 189.787,144.585 191.482 C 135.556 196.003,133.053 198.937,133.566 204.400 C 133.961 208.613,137.666 208.496,159.600 203.579 C 162.680 202.889,166.559 202.112,168.220 201.854 C 169.880 201.596,171.431 201.073,171.667 200.692 C 172.735 198.963,180.579 199.943,181.908 201.972 C 184.377 205.740,183.252 209.052,176.736 217.200 C 168.191 227.885,168.321 227.777,161.345 230.026 C 150.756 233.441,142.984 238.509,144.522 240.997 C 145.192 242.082,158.964 241.298,161.696 240.019 C 164.728 238.600,173.280 241.702,173.797 244.408 C 175.232 251.912,172.363 257.600,167.144 257.600 C 164.564 257.600,162.038 258.263,159.523 259.600 C 157.454 260.700,154.521 261.600,153.004 261.600 C 150.303 261.600,145.600 263.738,145.600 264.966 C 145.600 265.307,143.620 266.704,141.200 268.070 C 136.209 270.886,135.715 272.265,139.255 273.499 C 143.463 274.966,142.328 278.414,137.122 279.977 C 128.080 282.692,129.258 285.664,138.525 283.518 C 146.656 281.636,160.987 276.465,167.790 272.959 C 171.096 271.255,172.277 270.986,173.390 271.682 C 178.991 275.184,166.140 288.037,153.550 291.525 C 147.925 293.083,144.171 295.632,142.291 299.170 C 140.168 303.164,141.242 303.534,149.703 301.721 C 158.418 299.853,159.399 300.269,158.403 305.405 C 156.861 313.355,153.718 317.145,138.456 329.464 C 129.647 336.574,118.578 357.366,119.111 365.800 C 119.331 369.278,128.383 366.708,130.896 362.453 C 132.822 359.193,138.777 356.167,145.002 355.285 C 151.159 354.413,152.853 353.620,157.382 349.486 C 159.834 347.249,161.470 346.400,163.330 346.400 C 167.414 346.400,172.612 343.405,175.445 339.419 C 181.645 330.697,184.555 329.800,189.567 335.069 C 194.135 339.871,194.534 343.061,194.444 374.119 C 194.315 418.783,193.774 421.172,182.870 425.149 C 175.686 427.769,172.788 430.489,168.783 438.370 C 165.343 445.138,162.610 447.456,156.023 449.194 C 149.613 450.885,145.612 454.230,147.106 456.649 C 147.563 457.387,160.735 457.563,203.651 457.405 L 259.600 457.200 259.844 455.095 C 260.193 452.084,256.089 448.988,247.460 445.753 C 241.933 443.681,239.540 442.261,236.438 439.211 C 234.260 437.068,230.076 433.963,227.143 432.311 C 215.017 425.481,212.436 416.423,211.554 377.600 C 210.922 349.784,211.493 335.344,213.250 334.670 C 213.849 334.440,216.423 335.276,218.969 336.526 C 223.207 338.607,224.549 338.834,234.800 339.202 C 247.567 339.660,248.890 340.106,260.800 347.981 C 275.175 357.486,278.329 356.917,275.976 345.244 C 273.619 333.559,266.993 323.976,258.796 320.397 C 251.853 317.366,251.626 317.210,251.339 315.274 C 251.164 314.094,252.154 312.344,254.339 309.974 C 260.172 303.646,258.301 300.307,248.260 299.120 C 232.703 297.282,220.800 287.990,220.800 277.685 C 220.800 268.629,225.871 268.847,243.600 278.662 C 248.125 281.166,250.042 280.512,256.485 274.265 C 265.371 265.649,263.955 263.316,248.304 260.792 C 238.968 259.287,223.867 248.772,220.042 241.113 C 216.782 234.586,216.816 234.577,236.249 236.904 C 251.053 238.677,250.888 232.168,235.929 224.307 C 222.163 217.073,215.343 206.331,218.213 196.400 C 219.286 192.688,223.973 192.611,229.254 196.218 C 234.462 199.775,240.343 201.600,246.603 201.600 C 249.410 201.600,253.804 201.988,256.368 202.462 C 261.639 203.436,262.367 202.982,262.388 198.701 C 262.418 192.447,258.519 185.843,252.672 182.245 C 250.518 180.920,248.233 178.825,247.594 177.589 C 245.739 174.001,242.606 172.000,238.845 172.000 C 237.008 172.000,234.807 171.471,233.953 170.825 C 233.099 170.179,231.608 169.639,230.641 169.625 C 229.008 169.602,226.691 167.104,224.315 162.806 C 223.830 161.929,222.301 160.887,220.917 160.490 C 218.508 159.799,217.607 158.185,219.111 157.255 C 219.502 157.013,223.407 157.352,227.788 158.007 C 252.762 161.741,258.106 160.788,250.200 154.010 C 246.684 150.995,234.979 145.020,225.200 141.249 C 207.589 134.456,203.258 120.399,219.272 122.007 C 234.023 123.489,232.967 113.303,217.800 107.819 C 214.747 106.715,214.509 104.273,217.486 104.600 C 223.276 105.236,223.736 101.338,218.530 95.752 C 214.967 91.930,214.687 91.338,215.004 88.307 C 215.321 85.271,215.054 84.711,211.595 81.153 C 205.922 75.315,205.313 72.678,209.288 71.167 C 213.258 69.657,213.579 64.000,209.694 64.000 C 206.594 64.000,204.224 60.355,203.621 54.660 C 202.878 47.648,201.110 45.231,199.256 48.695 M304.526 56.000 C 305.702 57.320,306.968 58.400,307.339 58.400 C 307.710 58.400,306.982 57.320,305.720 56.000 C 304.459 54.680,303.193 53.600,302.907 53.600 C 302.621 53.600,303.350 54.680,304.526 56.000 M310.004 61.605 C 310.803 62.488,311.622 63.045,311.824 62.843 C 312.257 62.410,309.977 60.000,309.133 60.000 C 308.814 60.000,309.206 60.722,310.004 61.605 M316.800 68.408 C 318.780 70.587,320.490 72.527,320.600 72.718 C 320.710 72.910,320.958 72.909,321.150 72.717 C 321.575 72.292,317.928 68.198,315.187 66.023 C 314.094 65.155,314.820 66.229,316.800 68.408 M64.739 80.536 L 62.800 82.672 64.975 81.136 C 66.171 80.291,67.161 79.330,67.175 79.000 C 67.216 78.015,66.777 78.291,64.739 80.536 M342.800 140.877 C 342.800 165.475,343.070 185.600,343.400 185.600 C 343.730 185.600,344.000 165.641,344.000 141.247 C 344.000 116.853,343.730 96.728,343.400 96.524 C 343.070 96.320,342.800 116.279,342.800 140.877 M270.400 199.693 C 275.003 200.276,287.201 200.354,287.200 199.800 C 287.200 199.470,282.970 199.254,277.800 199.320 C 272.630 199.386,269.300 199.554,270.400 199.693 M293.000 206.058 C 294.210 206.714,295.200 207.600,295.200 208.026 C 295.200 208.451,295.623 208.800,296.139 208.800 C 296.656 208.800,296.233 207.900,295.200 206.800 C 294.167 205.700,292.754 204.814,292.061 204.832 C 291.304 204.851,291.680 205.341,293.000 206.058 M299.452 212.369 C 300.691 213.575,301.882 214.385,302.098 214.168 C 302.315 213.952,301.301 212.965,299.846 211.975 L 297.200 210.176 299.452 212.369 M307.200 220.000 C 308.613 221.320,309.978 222.400,310.234 222.400 C 310.490 222.400,309.665 221.320,308.400 220.000 C 307.135 218.680,305.770 217.600,305.366 217.600 C 304.962 217.600,305.787 218.680,307.200 220.000 M343.396 336.535 C 343.288 380.609,342.967 417.329,342.682 418.135 C 342.302 419.211,342.409 419.376,343.086 418.756 C 343.773 418.128,343.955 397.307,343.800 337.156 L 343.592 256.400 343.396 336.535 M87.346 295.400 C 90.029 297.931,91.563 298.710,89.661 296.576 C 88.594 295.379,87.398 294.400,87.003 294.400 C 86.609 294.400,86.763 294.850,87.346 295.400 M62.013 430.200 C 62.976 431.598,95.539 463.928,95.761 463.706 C 95.983 463.484,62.897 430.269,61.988 429.800 C 61.775 429.690,61.786 429.870,62.013 430.200 M97.600 465.875 C 97.600 465.999,98.739 467.158,100.130 468.450 C 102.656 470.796,102.658 470.797,101.130 468.634 C 99.855 466.830,97.600 465.067,97.600 465.875 " stroke="none" fill="#005a46" fill-rule="evenodd"></path></g></svg>