<svg id="svg" version="1.1" width="400" height="230" xmlns="http://www.w3.org/2000/svg" xmlns:xlink="http://www.w3.org/1999/xlink" style="display: block;"><g id="svgg"><path id="path0" d="M0.000 113.507 L 0.000 227.015 200.000 227.015 L 400.000 227.015 400.000 113.507 L 400.000 0.000 200.000 0.000 L 0.000 0.000 0.000 113.507 M398.020 1.868 C 398.835 2.545,398.947 224.052,398.133 225.033 C 397.525 225.766,2.527 225.981,2.074 225.249 C 1.487 224.299,1.786 2.116,2.375 1.743 C 3.313 1.151,397.305 1.275,398.020 1.868 M199.319 18.014 C 186.460 20.094,172.170 26.814,171.354 31.165 C 171.104 32.497,170.529 33.150,168.074 34.892 C 155.946 43.493,146.513 53.723,148.054 56.602 C 148.620 57.660,148.448 58.154,145.651 63.491 C 141.438 71.528,139.142 77.184,137.144 84.440 C 135.945 88.795,135.948 88.836,137.619 90.396 L 139.028 91.713 137.399 97.502 C 135.575 103.984,134.336 109.731,133.005 117.893 C 131.956 124.322,132.174 125.325,134.853 126.397 C 136.269 126.963,136.605 127.358,136.869 128.767 C 137.677 133.072,141.789 141.721,146.094 148.168 C 149.370 153.075,150.387 153.798,152.863 152.981 C 157.747 151.369,169.787 166.874,171.158 176.539 C 171.406 178.290,171.842 180.234,172.127 180.859 C 172.512 181.704,172.514 182.371,172.134 183.460 C 170.662 187.683,174.202 190.026,177.850 187.243 C 179.232 186.189,179.537 186.123,180.722 186.614 C 182.270 187.255,183.981 186.921,185.806 185.621 C 186.795 184.917,187.484 184.768,188.700 184.997 C 190.506 185.335,193.306 183.976,195.116 181.882 C 195.737 181.164,196.607 180.704,197.343 180.704 C 199.136 180.704,201.831 177.661,202.663 174.696 C 204.449 168.337,204.463 167.999,203.162 162.559 C 201.706 156.472,201.338 156.921,207.086 157.772 C 213.375 158.702,213.099 158.550,212.828 160.947 C 212.687 162.197,212.838 163.424,213.224 164.169 C 214.989 167.571,211.412 174.942,206.446 178.139 C 200.326 182.078,197.202 187.359,197.406 193.417 C 197.679 201.500,200.475 205.257,204.096 202.408 L 205.364 201.411 206.087 202.466 C 209.052 206.793,212.073 207.338,213.514 203.807 L 214.075 202.432 215.664 204.825 C 218.118 208.519,221.971 208.721,222.370 205.176 C 222.894 200.516,223.358 200.127,224.781 203.153 C 227.558 209.063,231.781 209.197,232.700 203.405 C 233.079 201.021,233.693 199.716,235.513 197.432 C 236.241 196.520,238.532 191.820,240.606 186.990 C 246.534 173.179,247.288 171.661,248.447 171.218 C 250.705 170.354,252.791 166.084,257.787 152.100 C 260.543 144.382,262.774 131.873,263.191 121.797 L 263.478 114.876 264.982 113.989 C 267.001 112.797,267.146 111.893,266.526 104.333 C 265.613 93.187,263.618 83.402,260.094 72.782 C 257.935 66.278,257.845 65.823,258.527 64.849 C 261.021 61.289,249.966 45.926,238.025 36.355 C 236.452 35.094,236.095 34.529,236.095 33.300 C 236.095 29.746,219.435 21.588,205.675 18.403 C 202.762 17.729,201.542 17.655,199.319 18.014 M209.567 22.271 C 221.862 25.908,234.716 32.434,232.989 34.162 C 232.055 35.096,232.412 35.656,235.301 37.784 C 240.945 41.941,248.747 50.436,253.872 58.004 C 256.838 62.383,256.887 62.559,255.452 63.722 L 254.245 64.699 255.643 68.104 C 260.020 78.773,263.580 95.598,263.899 107.128 L 264.018 111.418 262.312 111.906 L 260.605 112.393 260.442 120.328 C 260.080 138.016,251.638 168.052,246.894 168.533 C 245.559 168.669,245.392 168.984,239.913 181.754 C 236.019 190.832,233.808 195.412,232.691 196.716 C 231.806 197.751,230.858 199.423,230.584 200.433 C 229.576 204.151,229.428 204.540,229.020 204.540 C 228.059 204.540,226.561 200.470,226.561 197.861 C 226.561 194.792,226.351 194.696,224.291 196.822 C 223.443 197.696,222.377 198.411,221.920 198.411 C 220.972 198.411,220.420 199.611,219.961 202.672 C 219.359 206.689,216.592 202.924,216.580 198.070 C 216.571 194.783,216.380 194.678,214.302 196.822 C 213.455 197.696,212.499 198.411,212.178 198.411 C 211.858 198.411,211.489 198.922,211.359 199.546 C 211.230 200.170,211.014 201.206,210.880 201.848 C 210.329 204.488,207.491 200.198,207.491 196.726 C 207.491 194.554,207.128 194.396,204.994 195.638 C 204.124 196.145,203.391 197.117,202.964 198.333 C 201.729 201.846,200.330 199.597,200.171 193.847 C 200.013 188.115,203.421 182.567,208.778 179.834 C 213.226 177.565,219.766 162.997,216.337 162.997 C 215.859 162.997,215.669 162.127,215.570 159.478 L 215.437 155.959 211.805 155.643 C 207.411 155.260,203.536 154.561,200.346 153.578 C 197.224 152.616,197.235 152.580,199.052 158.050 C 200.867 163.514,201.615 167.221,201.074 168.074 C 200.866 168.403,200.692 169.653,200.688 170.851 C 200.681 173.129,199.851 175.238,198.292 176.944 C 197.176 178.164,196.595 177.907,196.595 176.192 C 196.595 173.489,195.430 173.718,194.635 176.578 C 194.046 178.698,193.494 179.593,191.978 180.891 C 189.873 182.692,189.128 182.537,189.735 180.422 C 190.154 178.963,189.326 176.163,188.476 176.163 C 188.232 176.163,187.710 177.236,187.316 178.547 C 186.540 181.126,185.671 182.375,183.802 183.600 C 182.342 184.557,181.905 184.024,182.575 182.102 C 183.016 180.838,182.926 180.451,181.799 178.758 L 180.524 176.844 180.112 178.434 C 179.334 181.444,178.717 182.661,177.200 184.177 C 175.026 186.351,174.729 186.157,175.074 182.793 C 175.309 180.492,175.218 179.668,174.632 178.833 C 174.226 178.252,173.893 177.093,173.893 176.256 C 173.893 167.627,157.008 146.367,152.728 149.608 C 151.277 150.706,150.883 150.414,148.008 146.116 C 143.701 139.677,141.072 134.007,139.415 127.582 C 138.726 124.912,138.512 124.584,137.166 124.142 C 136.348 123.873,135.522 123.399,135.330 123.090 C 134.587 121.887,137.709 105.803,140.372 97.117 C 142.681 89.582,142.696 89.396,141.015 88.936 C 139.070 88.404,138.942 87.848,139.941 84.279 C 141.953 77.088,146.323 67.182,150.340 60.705 C 152.877 56.615,152.852 56.704,151.646 55.951 C 150.070 54.967,150.605 54.083,156.073 48.645 C 160.573 44.169,165.442 40.187,173.782 34.162 C 175.081 33.224,175.197 32.976,174.739 32.120 C 173.029 28.924,194.371 20.026,202.302 20.628 C 203.569 20.724,206.838 21.464,209.567 22.271 M199.955 30.345 C 197.449 32.166,193.224 36.848,190.804 40.487 C 188.438 44.046,188.363 44.078,180.614 44.873 C 177.942 45.147,174.979 45.716,174.030 46.137 L 172.304 46.903 176.795 47.501 C 179.264 47.830,181.986 48.330,182.842 48.612 C 184.020 49.001,185.125 48.989,187.385 48.563 C 189.480 48.167,191.740 48.112,194.958 48.378 C 197.482 48.587,200.670 48.732,202.043 48.701 C 205.827 48.615,217.467 48.568,219.523 48.631 C 222.321 48.716,230.647 47.116,230.647 46.493 C 230.647 44.927,218.809 36.261,212.040 32.873 C 204.139 28.917,202.415 28.557,199.955 30.345 M227.242 51.668 C 226.493 51.742,224.756 52.134,223.383 52.539 C 218.440 53.997,185.416 53.946,180.547 52.473 C 177.587 51.577,170.698 51.594,169.794 52.499 C 168.705 53.589,168.703 59.932,169.792 59.932 C 170.011 59.932,170.431 59.204,170.724 58.315 C 171.561 55.780,176.600 54.500,175.977 56.981 C 175.820 57.605,175.861 58.116,176.068 58.116 C 178.290 58.116,178.157 59.437,175.672 62.048 C 172.732 65.137,170.977 67.981,169.502 72.044 C 168.123 75.842,168.148 76.277,169.737 76.277 L 171.030 76.277 171.317 81.614 C 171.837 91.299,175.079 100.698,177.072 98.297 C 177.999 97.179,179.041 97.544,180.359 99.450 C 181.869 101.632,182.279 101.678,183.243 99.773 C 185.864 94.591,186.969 94.573,187.028 99.711 C 187.163 111.397,193.074 118.760,202.270 118.696 C 211.397 118.632,216.307 112.363,217.280 99.530 C 217.645 94.713,218.227 94.634,220.488 99.092 C 221.822 101.723,222.587 101.799,223.936 99.436 C 225.066 97.458,225.812 97.209,227.107 98.381 C 229.419 100.474,232.917 89.455,232.917 80.077 L 232.917 76.277 234.279 76.277 C 237.332 76.277,233.515 66.930,228.355 61.769 C 225.742 59.156,225.737 59.142,227.289 58.552 C 228.259 58.183,228.421 57.899,228.189 56.974 C 227.930 55.944,228.035 55.846,229.390 55.852 C 232.047 55.863,232.848 56.300,233.411 58.050 C 234.462 61.313,235.100 60.663,235.155 56.273 C 235.204 52.402,232.966 51.099,227.242 51.668 M196.520 59.558 C 197.617 59.898,198.588 59.873,200.039 59.467 C 201.601 59.030,202.469 59.025,203.973 59.444 C 205.551 59.885,206.395 59.854,208.608 59.276 C 212.342 58.301,213.029 58.347,212.855 59.556 C 212.730 60.423,213.069 60.629,215.676 61.268 C 220.704 62.502,223.254 64.926,219.523 64.926 C 217.134 64.926,217.162 64.824,218.607 68.331 C 220.431 72.760,219.922 80.599,217.791 80.903 C 215.718 81.199,213.974 87.085,213.420 95.655 C 213.007 102.036,212.862 102.609,211.664 102.614 C 211.242 102.615,210.544 103.236,210.113 103.993 C 207.685 108.261,196.569 108.279,194.052 104.019 C 193.595 103.244,192.878 102.611,192.459 102.611 C 191.357 102.611,191.174 101.811,190.704 94.943 C 190.156 86.939,188.102 80.320,186.372 80.984 C 184.460 81.718,183.873 71.758,185.604 67.933 C 186.929 65.006,186.906 64.926,184.757 64.926 C 180.808 64.926,184.736 61.674,189.477 61.017 C 191.524 60.734,191.649 60.641,191.387 59.599 C 191.082 58.384,192.698 58.371,196.520 59.558 M239.565 59.086 C 239.470 59.426,239.026 61.286,238.578 63.217 L 237.763 66.730 239.444 70.314 C 242.415 76.644,243.106 82.179,240.925 82.179 C 239.646 82.179,239.274 82.914,239.274 85.437 C 239.274 90.590,236.152 100.803,232.949 106.129 C 231.611 108.354,231.188 108.467,229.785 106.973 L 228.764 105.886 225.125 109.579 C 222.441 112.303,221.185 113.989,220.339 116.001 C 219.008 119.168,217.960 120.795,215.736 123.147 C 211.809 127.300,218.995 123.782,223.522 119.335 C 226.940 115.978,227.410 115.760,228.271 117.140 C 229.157 118.557,229.939 118.255,233.148 115.253 C 235.074 113.451,236.292 112.614,236.575 112.897 C 238.381 114.704,240.848 139.160,240.559 152.402 C 240.390 160.134,240.605 160.942,241.903 157.466 C 250.749 133.796,253.919 101.902,249.430 81.761 C 247.144 71.506,240.416 56.042,239.565 59.086 M208.400 61.561 C 208.400 61.697,208.617 62.215,208.884 62.712 C 209.335 63.556,209.261 63.597,207.770 63.317 C 204.506 62.705,201.645 66.502,203.162 69.434 C 204.084 71.218,205.276 71.960,208.586 72.813 C 212.432 73.804,212.716 74.218,212.697 78.793 C 212.677 83.412,212.649 83.400,214.383 79.576 C 217.145 73.486,216.755 69.096,213.130 65.472 C 211.777 64.119,210.670 62.862,210.670 62.680 C 210.670 62.497,210.159 62.115,209.535 61.831 C 208.910 61.546,208.400 61.425,208.400 61.561 M191.775 64.635 C 187.670 68.863,187.002 72.530,189.255 78.459 C 191.009 83.074,191.623 83.297,191.310 79.205 C 190.966 74.687,191.508 73.857,195.460 72.856 C 201.386 71.355,203.171 67.801,199.729 64.358 C 198.579 63.208,198.123 63.038,196.778 63.256 C 195.356 63.487,195.217 63.421,195.468 62.631 C 195.994 60.972,194.594 61.732,191.775 64.635 M161.312 73.439 C 159.403 76.416,157.287 82.198,156.837 85.669 L 156.531 88.024 158.515 88.166 L 160.499 88.309 160.781 93.984 C 161.058 99.575,161.036 99.754,159.310 106.016 C 158.346 109.512,157.142 114.366,156.636 116.803 L 155.715 121.234 161.084 126.565 C 172.184 137.585,178.297 150.472,180.412 167.310 L 180.982 171.850 183.000 171.826 C 185.547 171.795,189.528 169.992,192.019 167.742 C 194.800 165.230,194.880 164.938,193.835 161.122 C 190.288 148.173,182.902 135.958,172.386 125.649 L 167.403 120.765 169.447 116.342 C 173.072 108.493,173.011 109.685,170.085 103.854 C 167.284 98.272,165.517 92.163,164.932 86.042 C 164.591 82.467,164.566 82.410,163.224 82.168 C 161.573 81.870,161.520 80.012,163.011 74.659 C 164.378 69.751,163.897 69.406,161.312 73.439 M197.316 75.130 C 193.420 75.834,192.797 76.519,193.114 79.757 C 193.484 83.544,195.233 85.546,195.233 82.182 C 195.233 79.692,196.012 78.416,197.331 78.747 C 198.161 78.956,198.671 78.818,199.065 78.280 C 199.770 77.316,204.686 77.228,205.271 78.170 C 205.477 78.502,206.208 78.774,206.895 78.774 C 208.191 78.774,208.211 78.808,209.219 82.633 L 209.638 84.222 210.381 82.534 C 211.276 80.500,211.355 77.035,210.522 76.343 C 208.698 74.829,202.256 74.237,197.316 75.130 M197.973 83.058 C 196.824 85.205,198.195 93.228,199.973 94.757 C 202.498 96.929,205.343 95.091,205.916 90.917 C 206.079 89.732,206.413 87.969,206.659 86.999 C 207.558 83.448,205.439 80.964,203.258 83.012 C 201.962 84.230,201.508 84.244,200.786 83.087 C 200.065 81.933,198.583 81.917,197.973 83.058 M195.344 96.849 C 196.209 104.809,208.886 104.555,208.843 96.579 L 208.833 94.665 207.946 95.800 C 207.457 96.425,207.053 97.074,207.048 97.243 C 207.042 97.411,205.923 98.188,204.560 98.967 C 201.591 100.666,200.494 100.342,197.099 96.765 L 195.106 94.665 195.344 96.849 M203.103 111.685 C 207.063 111.692,207.372 112.091,204.779 113.848 C 202.861 115.147,201.220 115.142,199.276 113.832 C 197.376 112.552,196.855 110.958,198.479 111.393 C 199.066 111.550,201.146 111.682,203.103 111.685 M205.481 128.892 C 205.372 129.068,206.694 130.589,208.419 132.273 C 210.144 133.956,212.498 136.654,213.650 138.268 C 215.967 141.516,216.148 141.603,217.827 140.282 C 219.693 138.814,220.336 140.528,221.576 150.284 C 222.276 155.790,222.396 156.208,222.978 155.171 C 224.537 152.394,224.640 134.983,223.125 130.212 C 222.756 129.047,222.170 129.185,219.406 131.089 L 216.951 132.779 214.151 131.732 C 212.611 131.156,210.074 130.209,208.515 129.628 C 206.955 129.048,205.589 128.716,205.481 128.892 M231.375 178.606 L 227.789 181.654 224.791 181.375 C 219.936 180.923,212.822 182.435,209.962 184.526 C 208.675 185.467,209.250 185.720,213.198 185.949 C 217.224 186.183,224.297 187.255,227.760 188.156 C 230.772 188.941,230.602 189.115,233.114 182.667 C 236.024 175.196,235.854 174.799,231.375 178.606 " stroke="none" fill="#fec329" fill-rule="evenodd"></path><path id="path1" d="M2.375 1.743 C 1.786 2.116,1.487 224.299,2.074 225.249 C 2.527 225.981,397.525 225.766,398.133 225.033 C 398.947 224.052,398.835 2.545,398.020 1.868 C 397.305 1.275,3.313 1.151,2.375 1.743 M205.675 18.403 C 219.435 21.588,236.095 29.746,236.095 33.300 C 236.095 34.529,236.452 35.094,238.025 36.355 C 249.966 45.926,261.021 61.289,258.527 64.849 C 257.845 65.823,257.935 66.278,260.094 72.782 C 263.618 83.402,265.613 93.187,266.526 104.333 C 267.146 111.893,267.001 112.797,264.982 113.989 L 263.478 114.876 263.191 121.797 C 262.774 131.873,260.543 144.382,257.787 152.100 C 252.791 166.084,250.705 170.354,248.447 171.218 C 247.288 171.661,246.534 173.179,240.606 186.990 C 238.532 191.820,236.241 196.520,235.513 197.432 C 233.693 199.716,233.079 201.021,232.700 203.405 C 231.781 209.197,227.558 209.063,224.781 203.153 C 223.358 200.127,222.894 200.516,222.370 205.176 C 221.971 208.721,218.118 208.519,215.664 204.825 L 214.075 202.432 213.514 203.807 C 212.073 207.338,209.052 206.793,206.087 202.466 L 205.364 201.411 204.096 202.408 C 200.475 205.257,197.679 201.500,197.406 193.417 C 197.202 187.359,200.326 182.078,206.446 178.139 C 211.412 174.942,214.989 167.571,213.224 164.169 C 212.838 163.424,212.687 162.197,212.828 160.947 C 213.099 158.550,213.375 158.702,207.086 157.772 C 201.338 156.921,201.706 156.472,203.162 162.559 C 204.463 167.999,204.449 168.337,202.663 174.696 C 201.831 177.661,199.136 180.704,197.343 180.704 C 196.607 180.704,195.737 181.164,195.116 181.882 C 193.306 183.976,190.506 185.335,188.700 184.997 C 187.484 184.768,186.795 184.917,185.806 185.621 C 183.981 186.921,182.270 187.255,180.722 186.614 C 179.537 186.123,179.232 186.189,177.850 187.243 C 174.202 190.026,170.662 187.683,172.134 183.460 C 172.514 182.371,172.512 181.704,172.127 180.859 C 171.842 180.234,171.406 178.290,171.158 176.539 C 169.787 166.874,157.747 151.369,152.863 152.981 C 150.387 153.798,149.370 153.075,146.094 148.168 C 141.789 141.721,137.677 133.072,136.869 128.767 C 136.605 127.358,136.269 126.963,134.853 126.397 C 132.174 125.325,131.956 124.322,133.005 117.893 C 134.336 109.731,135.575 103.984,137.399 97.502 L 139.028 91.713 137.619 90.396 C 135.948 88.836,135.945 88.795,137.144 84.440 C 139.142 77.184,141.438 71.528,145.651 63.491 C 148.448 58.154,148.620 57.660,148.054 56.602 C 146.513 53.723,155.946 43.493,168.074 34.892 C 170.529 33.150,171.104 32.497,171.354 31.165 C 172.170 26.814,186.460 20.094,199.319 18.014 C 201.542 17.655,202.762 17.729,205.675 18.403 M196.822 21.149 C 185.815 23.558,173.446 29.704,174.739 32.120 C 175.197 32.976,175.081 33.224,173.782 34.162 C 165.442 40.187,160.573 44.169,156.073 48.645 C 150.605 54.083,150.070 54.967,151.646 55.951 C 152.852 56.704,152.877 56.615,150.340 60.705 C 146.323 67.182,141.953 77.088,139.941 84.279 C 138.942 87.848,139.070 88.404,141.015 88.936 C 142.696 89.396,142.681 89.582,140.372 97.117 C 137.709 105.803,134.587 121.887,135.330 123.090 C 135.522 123.399,136.348 123.873,137.166 124.142 C 138.512 124.584,138.726 124.912,139.415 127.582 C 141.072 134.007,143.701 139.677,148.008 146.116 C 150.883 150.414,151.277 150.706,152.728 149.608 C 157.008 146.367,173.893 167.627,173.893 176.256 C 173.893 177.093,174.226 178.252,174.632 178.833 C 175.218 179.668,175.309 180.492,175.074 182.793 C 174.729 186.157,175.026 186.351,177.200 184.177 C 178.717 182.661,179.334 181.444,180.112 178.434 L 180.524 176.844 181.799 178.758 C 182.926 180.451,183.016 180.838,182.575 182.102 C 181.905 184.024,182.342 184.557,183.802 183.600 C 185.671 182.375,186.540 181.126,187.316 178.547 C 187.710 177.236,188.232 176.163,188.476 176.163 C 189.326 176.163,190.154 178.963,189.735 180.422 C 189.128 182.537,189.873 182.692,191.978 180.891 C 193.494 179.593,194.046 178.698,194.635 176.578 C 195.430 173.718,196.595 173.489,196.595 176.192 C 196.595 177.907,197.176 178.164,198.292 176.944 C 199.851 175.238,200.681 173.129,200.688 170.851 C 200.692 169.653,200.866 168.403,201.074 168.074 C 201.615 167.221,200.867 163.514,199.052 158.050 C 197.235 152.580,197.224 152.616,200.346 153.578 C 203.536 154.561,207.411 155.260,211.805 155.643 L 215.437 155.959 215.570 159.478 C 215.669 162.127,215.859 162.997,216.337 162.997 C 219.766 162.997,213.226 177.565,208.778 179.834 C 203.421 182.567,200.013 188.115,200.171 193.847 C 200.330 199.597,201.729 201.846,202.964 198.333 C 203.391 197.117,204.124 196.145,204.994 195.638 C 207.128 194.396,207.491 194.554,207.491 196.726 C 207.491 200.198,210.329 204.488,210.880 201.848 C 211.014 201.206,211.230 200.170,211.359 199.546 C 211.489 198.922,211.858 198.411,212.178 198.411 C 212.499 198.411,213.455 197.696,214.302 196.822 C 216.380 194.678,216.571 194.783,216.580 198.070 C 216.592 202.924,219.359 206.689,219.961 202.672 C 220.420 199.611,220.972 198.411,221.920 198.411 C 222.377 198.411,223.443 197.696,224.291 196.822 C 226.351 194.696,226.561 194.792,226.561 197.861 C 226.561 200.470,228.059 204.540,229.020 204.540 C 229.428 204.540,229.576 204.151,230.584 200.433 C 230.858 199.423,231.806 197.751,232.691 196.716 C 233.808 195.412,236.019 190.832,239.913 181.754 C 245.392 168.984,245.559 168.669,246.894 168.533 C 251.638 168.052,260.080 138.016,260.442 120.328 L 260.605 112.393 262.312 111.906 L 264.018 111.418 263.899 107.128 C 263.580 95.598,260.020 78.773,255.643 68.104 L 254.245 64.699 255.452 63.722 C 256.887 62.559,256.838 62.383,253.872 58.004 C 248.747 50.436,240.945 41.941,235.301 37.784 C 232.412 35.656,232.055 35.096,232.989 34.162 C 234.716 32.434,221.862 25.908,209.567 22.271 C 203.494 20.474,200.933 20.249,196.822 21.149 M205.384 29.944 C 213.313 32.672,230.647 44.027,230.647 46.493 C 230.647 47.116,222.321 48.716,219.523 48.631 C 217.467 48.568,205.827 48.615,202.043 48.701 C 200.670 48.732,197.482 48.587,194.958 48.378 C 191.740 48.112,189.480 48.167,187.385 48.563 C 185.125 48.989,184.020 49.001,182.842 48.612 C 181.986 48.330,179.264 47.830,176.795 47.501 L 172.304 46.903 174.030 46.137 C 174.979 45.716,177.942 45.147,180.614 44.873 C 188.363 44.078,188.438 44.046,190.804 40.487 C 194.226 35.341,200.528 29.058,202.267 29.058 C 202.565 29.058,203.968 29.457,205.384 29.944 M234.598 52.942 C 235.230 53.808,235.349 58.220,234.780 59.675 C 234.391 60.668,234.170 60.406,233.411 58.050 C 232.848 56.300,232.047 55.863,229.390 55.852 C 228.035 55.846,227.930 55.944,228.189 56.974 C 228.421 57.899,228.259 58.183,227.289 58.552 C 225.737 59.142,225.742 59.156,228.355 61.769 C 233.515 66.930,237.332 76.277,234.279 76.277 L 232.917 76.277 232.917 80.077 C 232.917 89.455,229.419 100.474,227.107 98.381 C 225.812 97.209,225.066 97.458,223.936 99.436 C 222.587 101.799,221.822 101.723,220.488 99.092 C 218.227 94.634,217.645 94.713,217.280 99.530 C 216.307 112.363,211.397 118.632,202.270 118.696 C 193.074 118.760,187.163 111.397,187.028 99.711 C 186.969 94.573,185.864 94.591,183.243 99.773 C 182.279 101.678,181.869 101.632,180.359 99.450 C 179.041 97.544,177.999 97.179,177.072 98.297 C 175.079 100.698,171.837 91.299,171.317 81.614 L 171.030 76.277 169.737 76.277 C 168.148 76.277,168.123 75.842,169.502 72.044 C 170.977 67.981,172.732 65.137,175.672 62.048 C 178.157 59.437,178.290 58.116,176.068 58.116 C 175.861 58.116,175.820 57.605,175.977 56.981 C 176.600 54.500,171.561 55.780,170.724 58.315 C 170.431 59.204,170.011 59.932,169.792 59.932 C 168.703 59.932,168.705 53.589,169.794 52.499 C 170.698 51.594,177.587 51.577,180.547 52.473 C 185.416 53.946,218.440 53.997,223.383 52.539 C 227.857 51.219,233.486 51.422,234.598 52.942 M191.387 59.599 C 191.649 60.641,191.524 60.734,189.477 61.017 C 184.736 61.674,180.808 64.926,184.757 64.926 C 186.906 64.926,186.929 65.006,185.604 67.933 C 183.873 71.758,184.460 81.718,186.372 80.984 C 188.102 80.320,190.156 86.939,190.704 94.943 C 191.174 101.811,191.357 102.611,192.459 102.611 C 192.878 102.611,193.595 103.244,194.052 104.019 C 196.569 108.279,207.685 108.261,210.113 103.993 C 210.544 103.236,211.242 102.615,211.664 102.614 C 212.862 102.609,213.007 102.036,213.420 95.655 C 213.974 87.085,215.718 81.199,217.791 80.903 C 219.922 80.599,220.431 72.760,218.607 68.331 C 217.162 64.824,217.134 64.926,219.523 64.926 C 223.254 64.926,220.704 62.502,215.676 61.268 C 213.069 60.629,212.730 60.423,212.855 59.556 C 213.029 58.347,212.342 58.301,208.608 59.276 C 206.395 59.854,205.551 59.885,203.973 59.444 C 202.469 59.025,201.601 59.030,200.039 59.467 C 198.588 59.873,197.617 59.898,196.520 59.558 C 192.698 58.371,191.082 58.384,191.387 59.599 M243.297 64.174 C 253.879 85.962,254.407 114.124,244.865 147.787 C 240.871 161.875,240.340 162.445,240.559 152.402 C 240.848 139.160,238.381 114.704,236.575 112.897 C 236.292 112.614,235.074 113.451,233.148 115.253 C 229.939 118.255,229.157 118.557,228.271 117.140 C 227.410 115.760,226.940 115.978,223.522 119.335 C 218.995 123.782,211.809 127.300,215.736 123.147 C 217.960 120.795,219.008 119.168,220.339 116.001 C 221.185 113.989,222.441 112.303,225.125 109.579 L 228.764 105.886 229.785 106.973 C 231.188 108.467,231.611 108.354,232.949 106.129 C 236.152 100.803,239.274 90.590,239.274 85.437 C 239.274 82.914,239.646 82.179,240.925 82.179 C 243.106 82.179,242.415 76.644,239.444 70.314 L 237.763 66.730 238.578 63.217 C 239.026 61.286,239.470 59.426,239.565 59.086 C 239.890 57.925,240.991 59.426,243.297 64.174 M210.670 62.680 C 210.670 62.862,211.777 64.119,213.130 65.472 C 216.755 69.096,217.145 73.486,214.383 79.576 C 212.649 83.400,212.677 83.412,212.697 78.793 C 212.716 74.218,212.432 73.804,208.586 72.813 C 205.276 71.960,204.084 71.218,203.162 69.434 C 201.645 66.502,204.506 62.705,207.770 63.317 C 209.261 63.597,209.335 63.556,208.884 62.712 C 208.176 61.389,208.274 61.256,209.535 61.831 C 210.159 62.115,210.670 62.497,210.670 62.680 M195.468 62.631 C 195.217 63.421,195.356 63.487,196.778 63.256 C 198.123 63.038,198.579 63.208,199.729 64.358 C 203.171 67.801,201.386 71.355,195.460 72.856 C 191.508 73.857,190.966 74.687,191.310 79.205 C 191.623 83.297,191.009 83.074,189.255 78.459 C 187.002 72.530,187.670 68.863,191.775 64.635 C 194.594 61.732,195.994 60.972,195.468 62.631 M163.905 71.140 C 163.905 71.312,163.503 72.895,163.011 74.659 C 161.520 80.012,161.573 81.870,163.224 82.168 C 164.566 82.410,164.591 82.467,164.932 86.042 C 165.517 92.163,167.284 98.272,170.085 103.854 C 173.011 109.685,173.072 108.493,169.447 116.342 L 167.403 120.765 172.386 125.649 C 182.902 135.958,190.288 148.173,193.835 161.122 C 194.880 164.938,194.800 165.230,192.019 167.742 C 189.528 169.992,185.547 171.795,183.000 171.826 L 180.982 171.850 180.412 167.310 C 178.297 150.472,172.184 137.585,161.084 126.565 L 155.715 121.234 156.636 116.803 C 157.142 114.366,158.346 109.512,159.310 106.016 C 161.036 99.754,161.058 99.575,160.781 93.984 L 160.499 88.309 158.515 88.166 L 156.531 88.024 156.837 85.669 C 157.287 82.198,159.403 76.416,161.312 73.439 C 162.773 71.160,163.905 70.157,163.905 71.140 M206.633 75.152 C 211.372 76.149,212.346 78.069,210.381 82.534 L 209.638 84.222 209.219 82.633 C 208.211 78.808,208.191 78.774,206.895 78.774 C 206.208 78.774,205.477 78.502,205.271 78.170 C 204.686 77.228,199.770 77.316,199.065 78.280 C 198.671 78.818,198.161 78.956,197.331 78.747 C 196.012 78.416,195.233 79.692,195.233 82.182 C 195.233 85.546,193.484 83.544,193.114 79.757 C 192.797 76.519,193.420 75.834,197.316 75.130 C 201.623 74.351,202.840 74.354,206.633 75.152 M200.786 83.087 C 201.508 84.244,201.962 84.230,203.258 83.012 C 205.439 80.964,207.558 83.448,206.659 86.999 C 206.413 87.969,206.079 89.732,205.916 90.917 C 204.640 100.209,197.689 95.672,197.527 85.441 C 197.480 82.496,199.504 81.034,200.786 83.087 M200.587 99.625 C 202.023 100.354,207.006 98.517,207.048 97.243 C 207.053 97.074,207.457 96.425,207.946 95.800 L 208.833 94.665 208.843 96.579 C 208.886 104.555,196.209 104.809,195.344 96.849 L 195.106 94.665 197.099 96.765 C 198.195 97.920,199.765 99.207,200.587 99.625 M197.574 111.951 C 198.046 114.404,202.304 115.525,204.779 113.848 C 207.372 112.091,207.063 111.692,203.103 111.685 C 201.146 111.682,199.066 111.550,198.479 111.393 C 197.609 111.160,197.441 111.264,197.574 111.951 M214.151 131.732 L 216.951 132.779 219.406 131.089 C 222.170 129.185,222.756 129.047,223.125 130.212 C 224.640 134.983,224.537 152.394,222.978 155.171 C 222.396 156.208,222.276 155.790,221.576 150.284 C 220.336 140.528,219.693 138.814,217.827 140.282 C 216.148 141.603,215.967 141.516,213.650 138.268 C 212.498 136.654,210.144 133.956,208.419 132.273 C 204.708 128.650,204.724 128.217,208.515 129.628 C 210.074 130.209,212.611 131.156,214.151 131.732 M233.114 182.667 C 230.602 189.115,230.772 188.941,227.760 188.156 C 224.297 187.255,217.224 186.183,213.198 185.949 C 209.250 185.720,208.675 185.467,209.962 184.526 C 212.822 182.435,219.936 180.923,224.791 181.375 L 227.789 181.654 231.375 178.606 C 235.854 174.799,236.024 175.196,233.114 182.667 " stroke="none" fill="#002d5f" fill-rule="evenodd"></path></g></svg>