<svg id="svg" version="1.1" width="400" height="240" viewBox="0 0 400 240" xmlns="http://www.w3.org/2000/svg" xmlns:xlink="http://www.w3.org/1999/xlink" ><g id="svgg"><path id="path0" d="M194.118 14.794 C 169.691 16.740,150.371 24.394,132.414 39.238 C 129.412 41.719,121.303 49.594,121.523 49.814 C 121.593 49.884,156.970 49.914,200.140 49.880 L 278.631 49.820 274.550 45.726 C 257.223 28.346,235.217 17.809,210.887 15.243 C 207.477 14.884,196.635 14.593,194.118 14.794 M108.194 68.249 C 94.778 91.521,91.093 121.794,98.471 148.121 C 117.302 215.318,194.629 246.211,254.220 210.345 C 301.760 181.732,319.005 121.061,293.604 71.789 C 291.096 66.925,291.503 67.230,288.791 68.175 C 275.313 72.871,262.758 79.621,253.601 87.094 C 250.674 89.483,250.754 88.916,253.054 90.990 L 254.968 92.716 258.637 91.865 C 266.052 90.146,273.383 89.113,279.620 88.907 L 283.970 88.764 284.947 91.741 C 286.353 96.025,288.115 102.998,288.115 104.280 C 288.115 104.543,286.890 104.636,281.813 104.758 C 262.665 105.219,250.241 108.081,240.704 114.226 L 239.031 115.304 238.423 114.594 C 231.272 106.237,228.479 103.249,228.115 103.563 C 225.577 105.745,223.157 107.899,223.108 108.020 C 223.074 108.104,224.857 110.229,227.069 112.742 C 231.409 117.672,233.133 119.695,233.133 119.857 C 233.133 119.914,232.458 120.655,231.633 121.505 C 226.991 126.282,223.441 131.255,220.567 137.007 C 219.296 139.551,219.277 139.496,221.382 139.496 L 222.997 139.496 224.829 137.218 L 226.661 134.940 228.397 136.398 C 240.641 146.691,259.411 136.091,256.683 120.425 C 256.335 118.423,255.879 118.726,260.532 117.864 C 270.494 116.018,287.563 114.950,289.293 116.063 C 289.679 116.313,289.543 124.563,289.076 129.172 C 288.575 134.107,287.073 141.643,285.709 146.059 L 285.251 147.542 276.899 147.541 C 264.457 147.539,258.088 148.608,251.861 151.742 C 238.678 158.377,232.016 177.070,234.927 199.256 C 235.142 200.893,235.231 202.310,235.126 202.403 C 233.677 203.683,219.466 207.866,214.964 208.337 L 213.722 208.467 206.960 201.772 C 203.241 198.090,200.104 195.078,199.990 195.078 C 199.876 195.078,196.725 198.117,192.988 201.832 L 186.194 208.585 183.794 208.150 C 178.214 207.138,172.192 205.418,166.867 203.316 C 164.504 202.383,164.621 202.653,165.102 199.255 C 165.714 194.931,165.720 183.464,165.113 179.592 C 162.290 161.595,153.965 151.702,139.160 148.748 C 133.827 147.685,131.898 147.540,123.099 147.541 L 114.746 147.542 114.160 145.620 C 111.875 138.112,110.768 130.875,110.522 121.825 C 110.396 117.210,110.427 116.244,110.708 116.063 C 112.434 114.951,129.506 116.018,139.438 117.858 C 144.033 118.710,143.870 118.639,143.503 119.633 C 143.341 120.073,143.217 121.656,143.217 123.289 C 143.217 138.387,161.131 146.118,172.298 135.841 L 173.287 134.930 174.348 136.192 C 174.931 136.887,175.765 137.914,176.200 138.475 L 176.991 139.496 178.612 139.496 C 180.767 139.496,180.753 139.616,178.994 136.162 C 176.356 130.983,173.247 126.622,168.916 122.029 L 166.823 119.809 167.477 119.028 C 167.837 118.599,168.698 117.599,169.392 116.807 C 170.085 116.014,172.070 113.747,173.803 111.768 C 175.535 109.789,176.925 108.106,176.892 108.029 C 176.839 107.908,172.973 104.450,171.893 103.557 C 171.566 103.287,170.823 104.040,166.279 109.246 C 163.398 112.546,161.013 115.246,160.979 115.246 C 160.944 115.246,159.989 114.664,158.855 113.952 C 149.374 108.000,137.044 105.212,118.187 104.758 C 112.135 104.612,111.885 104.587,111.885 104.135 C 111.885 102.706,114.212 93.808,115.535 90.180 L 116.052 88.764 120.391 88.907 C 126.607 89.112,133.962 90.148,141.367 91.860 L 145.038 92.710 146.954 90.983 C 149.195 88.962,149.317 89.382,145.645 86.470 C 136.530 79.243,124.496 72.840,111.325 68.212 C 108.717 67.295,108.744 67.295,108.194 68.249 M153.713 116.463 C 157.977 118.133,158.138 118.275,156.959 119.311 C 155.405 120.675,154.985 122.993,155.927 125.015 C 157.745 128.921,163.607 128.690,165.092 124.655 C 165.703 122.993,165.673 122.990,167.977 124.916 C 171.377 127.759,171.372 127.747,169.965 129.801 C 162.063 141.339,143.721 130.723,150.004 118.247 C 151.292 115.689,151.491 115.594,153.713 116.463 M249.578 117.436 C 256.407 129.088,240.370 141.076,231.201 131.172 C 228.435 128.185,228.471 127.908,232.001 124.941 C 234.496 122.844,234.394 122.868,234.778 124.304 C 235.213 125.933,236.756 127.362,238.462 127.716 C 243.480 128.758,246.717 122.708,243.007 119.223 C 242.184 118.449,242.106 118.245,242.557 118.047 C 248.375 115.487,248.433 115.482,249.578 117.436 M181.273 174.955 C 181.273 175.046,182.218 176.099,183.374 177.296 C 185.441 179.435,189.943 184.189,196.521 191.176 C 198.354 193.124,199.928 194.718,200.018 194.718 C 200.107 194.718,201.572 193.236,203.272 191.425 C 204.972 189.613,209.145 185.185,212.545 181.584 C 215.945 177.984,218.727 174.982,218.727 174.914 C 218.727 174.846,210.300 174.790,200.000 174.790 C 189.700 174.790,181.273 174.864,181.273 174.955 " stroke="none" fill="#000000" fill-rule="evenodd"></path><path id="path1" d="M0.000 39.376 L 0.000 78.752 49.237 78.752 L 98.474 78.752 99.349 76.771 C 123.597 21.900,185.026 -3.542,240.576 18.277 C 266.840 28.593,289.930 51.087,300.618 76.768 L 301.441 78.745 350.720 78.748 L 400.000 78.752 400.000 39.376 L 400.000 0.000 200.000 0.000 L 0.000 0.000 0.000 39.376 M151.112 116.267 C 150.285 117.669,150.232 117.788,150.653 117.287 C 151.140 116.706,151.561 115.966,151.403 115.966 C 151.340 115.966,151.209 116.101,151.112 116.267 M152.461 116.166 C 152.659 116.288,153.091 116.461,153.421 116.549 C 153.839 116.661,153.912 116.642,153.661 116.487 C 153.463 116.365,153.031 116.192,152.701 116.104 C 152.284 115.992,152.211 116.011,152.461 116.166 M246.699 116.335 C 246.098 116.624,246.078 116.657,246.579 116.535 C 247.259 116.369,248.024 115.979,247.659 115.985 C 247.527 115.986,247.095 116.144,246.699 116.335 M248.709 116.327 C 248.838 116.591,249.120 117.023,249.335 117.287 L 249.726 117.767 249.491 117.287 C 249.361 117.023,249.079 116.591,248.864 116.327 L 248.473 115.846 248.709 116.327 M155.822 117.527 C 156.152 117.716,156.531 117.870,156.663 117.870 C 156.795 117.870,156.633 117.716,156.303 117.527 C 155.972 117.338,155.594 117.184,155.462 117.184 C 155.330 117.184,155.492 117.338,155.822 117.527 M243.697 117.527 C 243.367 117.716,243.205 117.870,243.337 117.870 C 243.469 117.870,243.848 117.716,244.178 117.527 C 244.508 117.338,244.670 117.184,244.538 117.184 C 244.406 117.184,244.028 117.338,243.697 117.527 M156.792 119.201 L 155.960 120.168 156.790 119.448 C 157.247 119.052,157.659 118.707,157.707 118.682 C 157.754 118.658,157.755 118.547,157.708 118.436 C 157.661 118.325,157.249 118.670,156.792 119.201 M242.257 118.317 C 242.257 118.431,242.541 118.786,242.889 119.106 C 243.237 119.426,243.723 120.012,243.969 120.408 C 244.215 120.804,244.416 120.997,244.417 120.836 C 244.417 120.676,243.932 119.997,243.337 119.328 C 242.743 118.659,242.257 118.204,242.257 118.317 M149.619 118.978 C 149.465 119.315,149.344 119.720,149.349 119.879 C 149.354 120.038,149.518 119.801,149.713 119.351 C 150.123 118.406,150.036 118.061,149.619 118.978 M249.940 118.412 C 249.940 118.489,250.107 118.916,250.312 119.360 C 250.683 120.165,250.684 120.166,250.535 119.448 C 250.407 118.826,249.940 118.014,249.940 118.412 M155.621 120.899 C 155.468 121.236,155.346 121.641,155.352 121.800 C 155.357 121.959,155.520 121.721,155.715 121.272 C 156.126 120.327,156.039 119.982,155.621 120.899 M148.940 123.169 C 148.940 124.160,148.983 124.565,149.034 124.070 C 149.086 123.574,149.086 122.764,149.034 122.269 C 148.983 121.774,148.940 122.179,148.940 123.169 M250.983 123.289 C 250.984 124.346,251.026 124.748,251.076 124.183 C 251.127 123.619,251.126 122.754,251.075 122.263 C 251.023 121.771,250.982 122.233,250.983 123.289 M165.592 123.349 C 165.535 123.448,165.354 123.949,165.189 124.461 C 165.023 124.974,164.500 125.838,164.027 126.382 L 163.165 127.371 164.066 126.533 C 164.574 126.061,165.141 125.205,165.366 124.572 L 165.765 123.447 166.380 123.885 C 166.718 124.126,167.911 125.109,169.032 126.069 C 170.152 127.030,170.852 127.564,170.588 127.257 C 170.101 126.691,165.969 123.169,165.791 123.169 C 165.738 123.169,165.648 123.250,165.592 123.349 M232.001 124.941 C 230.841 125.916,229.676 126.962,229.412 127.265 C 229.148 127.568,229.848 127.030,230.968 126.069 C 232.089 125.109,233.288 124.121,233.634 123.875 L 234.263 123.427 234.545 124.368 C 234.700 124.886,234.911 125.362,235.014 125.426 C 235.117 125.489,235.033 125.009,234.828 124.358 C 234.358 122.871,234.500 122.842,232.001 124.941 M235.775 126.373 C 236.105 126.748,236.591 127.166,236.855 127.302 C 237.360 127.563,237.345 127.547,236.015 126.409 L 235.176 125.690 235.775 126.373 M242.857 126.665 C 241.775 127.561,239.914 128.041,238.633 127.753 C 237.287 127.450,237.100 127.617,238.395 127.966 C 239.982 128.393,242.433 127.645,243.446 126.424 C 243.886 125.894,243.691 125.974,242.857 126.665 M156.543 126.404 C 156.543 127.245,160.126 128.364,161.572 127.975 C 162.843 127.632,162.754 127.440,161.459 127.732 C 160.252 128.005,158.636 127.660,157.443 126.876 C 156.948 126.550,156.543 126.338,156.543 126.404 M149.483 127.011 C 149.694 127.850,150.787 129.841,151.232 130.196 C 151.435 130.359,151.359 130.146,151.062 129.722 C 150.765 129.299,150.254 128.380,149.927 127.681 C 149.600 126.982,149.400 126.681,149.483 127.011 M249.979 127.861 C 249.577 128.744,249.653 128.933,250.088 128.130 C 250.292 127.755,250.413 127.404,250.358 127.349 C 250.303 127.294,250.132 127.525,249.979 127.861 M170.140 129.232 L 169.708 130.012 170.203 129.412 C 170.642 128.879,170.837 128.451,170.640 128.451 C 170.602 128.451,170.377 128.803,170.140 129.232 M230.194 130.023 C 230.544 130.678,232.656 132.638,233.388 132.988 L 233.974 133.267 233.373 132.856 C 233.043 132.630,232.134 131.790,231.353 130.990 C 230.571 130.189,230.050 129.754,230.194 130.023 M168.427 131.281 C 167.767 131.907,166.957 132.602,166.627 132.824 C 166.297 133.046,166.149 133.234,166.299 133.241 C 166.449 133.248,167.314 132.556,168.220 131.703 C 169.126 130.850,169.814 130.150,169.748 130.148 C 169.682 130.145,169.088 130.655,168.427 131.281 M152.221 131.453 C 152.669 131.915,153.089 132.293,153.155 132.293 C 153.221 132.293,152.909 131.915,152.461 131.453 C 152.013 130.990,151.592 130.612,151.526 130.612 C 151.460 130.612,151.773 130.990,152.221 131.453 M247.526 131.513 L 246.699 132.413 247.599 131.586 C 248.437 130.815,248.610 130.612,248.426 130.612 C 248.386 130.612,247.981 131.017,247.526 131.513 M164.826 133.733 C 164.298 133.978,164.006 134.186,164.178 134.196 C 164.519 134.215,165.906 133.550,165.906 133.367 C 165.906 133.225,165.970 133.204,164.826 133.733 M234.094 133.386 C 234.094 133.579,235.576 134.240,235.823 134.157 C 235.964 134.110,235.633 133.896,235.087 133.682 C 234.540 133.467,234.094 133.334,234.094 133.386 M155.342 133.632 C 155.342 133.794,156.589 134.247,156.708 134.128 C 156.763 134.074,156.478 133.914,156.075 133.774 C 155.672 133.633,155.342 133.569,155.342 133.632 M243.818 133.862 C 243.214 134.153,243.195 134.185,243.697 134.064 C 244.028 133.985,244.400 133.824,244.526 133.707 C 244.837 133.416,244.666 133.453,243.818 133.862 M159.967 134.866 C 160.332 134.921,160.872 134.920,161.168 134.863 C 161.463 134.806,161.164 134.761,160.504 134.763 C 159.844 134.764,159.602 134.811,159.967 134.866 M239.076 134.863 C 239.373 134.921,239.859 134.921,240.156 134.863 C 240.453 134.806,240.210 134.759,239.616 134.759 C 239.022 134.759,238.779 134.806,239.076 134.863 M0.000 200.960 L 0.000 240.096 200.000 240.096 L 400.000 240.096 400.000 200.960 L 400.000 161.825 350.643 161.825 L 301.286 161.825 300.417 163.806 C 280.197 209.884,231.459 236.310,181.873 228.079 C 145.450 222.033,114.250 197.608,99.463 163.565 L 98.707 161.825 49.353 161.825 L 0.000 161.825 0.000 200.960 " stroke="none" fill="#0f6838" fill-rule="evenodd"></path><path id="path2" d="M192.557 10.711 C 150.341 14.333,116.271 38.479,99.349 76.771 L 98.474 78.752 49.237 78.752 L 0.000 78.752 0.000 120.288 L 0.000 161.825 49.353 161.825 L 98.707 161.825 99.463 163.565 C 114.250 197.608,145.450 222.033,181.873 228.079 C 231.459 236.310,280.197 209.884,300.417 163.806 L 301.286 161.825 350.643 161.825 L 400.000 161.825 400.000 120.288 L 400.000 78.752 350.720 78.748 L 301.441 78.745 300.618 76.768 C 285.849 41.282,251.826 16.052,212.125 11.145 C 209.162 10.779,195.340 10.473,192.557 10.711 M210.887 15.243 C 235.217 17.809,257.223 28.346,274.550 45.726 L 278.631 49.820 200.140 49.880 C 156.970 49.914,121.593 49.884,121.523 49.814 C 121.303 49.594,129.412 41.719,132.414 39.238 C 150.371 24.394,169.691 16.740,194.118 14.794 C 196.635 14.593,207.477 14.884,210.887 15.243 M111.325 68.212 C 124.496 72.840,136.530 79.243,145.645 86.470 C 149.317 89.382,149.195 88.962,146.954 90.983 L 145.038 92.710 141.367 91.860 C 133.962 90.148,126.607 89.112,120.391 88.907 L 116.052 88.764 115.535 90.180 C 114.212 93.808,111.885 102.706,111.885 104.135 C 111.885 104.587,112.135 104.612,118.187 104.758 C 137.044 105.212,149.374 108.000,158.855 113.952 C 159.989 114.664,160.944 115.246,160.979 115.246 C 161.013 115.246,163.398 112.546,166.279 109.246 C 170.823 104.040,171.566 103.287,171.893 103.557 C 172.973 104.450,176.839 107.908,176.892 108.029 C 176.925 108.106,175.535 109.789,173.803 111.768 C 172.070 113.747,170.085 116.014,169.392 116.807 C 168.698 117.599,167.837 118.599,167.477 119.028 L 166.823 119.809 168.916 122.029 C 173.247 126.622,176.356 130.983,178.994 136.162 C 180.753 139.616,180.767 139.496,178.612 139.496 L 176.991 139.496 176.200 138.475 C 175.765 137.914,174.931 136.887,174.348 136.192 L 173.287 134.930 172.298 135.841 C 161.131 146.118,143.217 138.387,143.217 123.289 C 143.217 121.656,143.341 120.073,143.503 119.633 C 143.870 118.639,144.033 118.710,139.438 117.858 C 129.506 116.018,112.434 114.951,110.708 116.063 C 110.427 116.244,110.396 117.210,110.522 121.825 C 110.768 130.875,111.875 138.112,114.160 145.620 L 114.746 147.542 123.099 147.541 C 145.531 147.538,155.789 152.776,161.887 167.347 C 165.211 175.292,166.576 188.839,165.102 199.255 C 164.621 202.653,164.504 202.383,166.867 203.316 C 172.192 205.418,178.214 207.138,183.794 208.150 L 186.194 208.585 192.988 201.832 C 196.725 198.117,199.876 195.078,199.990 195.078 C 200.104 195.078,203.241 198.090,206.960 201.772 L 213.722 208.467 214.964 208.337 C 219.466 207.866,233.677 203.683,235.126 202.403 C 235.231 202.310,235.142 200.893,234.927 199.256 C 232.016 177.070,238.678 158.377,251.861 151.742 C 258.088 148.608,264.457 147.539,276.899 147.541 L 285.251 147.542 285.709 146.059 C 287.073 141.643,288.575 134.107,289.076 129.172 C 289.543 124.563,289.679 116.313,289.293 116.063 C 287.563 114.950,270.494 116.018,260.532 117.864 C 255.879 118.726,256.335 118.423,256.683 120.425 C 259.411 136.091,240.641 146.691,228.397 136.398 L 226.661 134.940 224.829 137.218 L 222.997 139.496 221.382 139.496 C 219.277 139.496,219.296 139.551,220.567 137.007 C 223.441 131.255,226.991 126.282,231.633 121.505 C 232.458 120.655,233.133 119.914,233.133 119.857 C 233.133 119.695,231.409 117.672,227.069 112.742 C 224.857 110.229,223.074 108.104,223.108 108.020 C 223.157 107.899,225.577 105.745,228.115 103.563 C 228.479 103.249,231.272 106.237,238.423 114.594 L 239.031 115.304 240.704 114.226 C 250.241 108.081,262.665 105.219,281.813 104.758 C 286.890 104.636,288.115 104.543,288.115 104.280 C 288.115 102.998,286.353 96.025,284.947 91.741 L 283.970 88.764 279.620 88.907 C 273.383 89.113,266.052 90.146,258.637 91.865 L 254.968 92.716 253.054 90.990 C 250.754 88.916,250.674 89.483,253.601 87.094 C 262.758 79.621,275.313 72.871,288.791 68.175 C 291.503 67.230,291.096 66.925,293.604 71.789 C 319.005 121.061,301.760 181.732,254.220 210.345 C 194.629 246.211,117.302 215.318,98.471 148.121 C 91.093 121.794,94.778 91.521,108.194 68.249 C 108.744 67.295,108.717 67.295,111.325 68.212 M218.727 174.914 C 218.727 174.982,215.945 177.984,212.545 181.584 C 209.145 185.185,204.972 189.613,203.272 191.425 C 201.572 193.236,200.107 194.718,200.018 194.718 C 199.928 194.718,198.354 193.124,196.521 191.176 C 189.943 184.189,185.441 179.435,183.374 177.296 C 182.218 176.099,181.273 175.046,181.273 174.955 C 181.273 174.864,189.700 174.790,200.000 174.790 C 210.300 174.790,218.727 174.846,218.727 174.914 " stroke="none" fill="#ee1f23" fill-rule="evenodd"></path><path id="path3" d="M150.824 117.107 C 146.413 124.030,150.616 133.224,158.772 134.492 C 163.192 135.179,168.180 132.795,170.279 128.992 L 170.931 127.811 170.039 126.965 C 169.549 126.499,168.397 125.509,167.480 124.764 L 165.813 123.409 165.388 124.527 C 163.857 128.560,158.716 129.306,156.224 125.856 C 154.792 123.875,155.093 120.773,156.879 119.106 C 157.834 118.215,157.979 118.325,153.661 116.662 C 151.425 115.800,151.682 115.760,150.824 117.107 M245.268 117.073 C 243.821 117.664,242.590 118.194,242.532 118.252 C 242.474 118.310,242.862 118.830,243.395 119.408 C 245.639 121.842,245.022 125.693,242.115 127.396 C 239.309 129.041,235.587 127.528,234.513 124.306 L 234.206 123.385 231.929 125.275 C 228.764 127.902,228.896 127.617,230.033 129.357 C 235.437 137.628,247.665 135.815,250.576 126.312 C 251.394 123.642,250.784 119.631,249.176 117.107 C 248.305 115.740,248.527 115.742,245.268 117.073 " stroke="none" fill="#fae930" fill-rule="evenodd"></path></g></svg>