<?xml version="1.0" encoding="UTF-8" standalone="no"?>
<svg
   xmlns="http://www.w3.org/2000/svg"
   id="svg"
   version="1.1"
   width="240"
   height="228"
   style="display: block;">
  <g
     id="svgg">
    <path
       id="path0"
       d="m 7.7134218,6.5574064 c -0.16,0.159 -0.291,6.2240086 -0.291,13.4780096 l 0,13.188 4.6790002,0.123 4.679,0.124 0.111,39.703 0.112,39.702894 -5.117,0.123 -5.1160002,0.123 -0.116,13.168 -0.115,13.168 51.6930002,-0.11 51.692998,-0.111 0,-16.975 0,-16.975 -12.405,0 -12.403998,0 -0.126,3.809 -0.126,3.808 -18.917,0 -18.916,0 0,-12.83994 0,-12.839954 10.855,0 c 7.21,0 10.952,-0.156 11.143,-0.463 0.157,-0.255 0.143,-6.324 -0.033,-13.486 l -0.319,-13.022 -10.714,-0.116 -10.715,-0.116 0,-13.276 0,-13.275 18.808,-0.113 18.808,-0.114 0.126,3.813 0.126,3.813 12.621998,0 c 17.44458,2.96527 14.25257,-0.97012 12.736,-16.706 0.082,-11.970001 -0.026,-16.8750096 -0.379,-17.3020096 -0.528,-0.635 -101.7509982,-0.936 -102.3819982,-0.304 M 80.310422,53.817416 c -0.23616,14.02364 -0.0694,24.70478 0.018,39.718 l 11.968998,0 11.97,0 0.119,-7.29 0.119,-7.291 c 6.23333,0 12.46667,0 18.7,0 -2.54448,26.366024 -1.31233,52.619674 -0.222,78.998894 l -4.897,0.123 -4.896,0.123 0,12.997 c 0,11.45 0.081,13.028 0.688,13.261 1.465,0.562 48.426,0.294 48.78,-0.279 0.382,-0.619 0.717,-23.535 0.365,-25.028 -0.222,-0.942 -0.413,-0.979 -5.002,-0.979 -4.588,0 -4.78,-0.038 -5.008,-0.98 -0.13,-0.538 -0.183,-18.313 -0.117,-39.499 l 0.119,-38.519894 9.25,-0.118 9.249,-0.117 0.006,6.864 c 0.004,3.775 0.165,7.112 0.357,7.415 0.271,0.428 2.984,0.525 12.072,0.435 l 11.721,-0.116 0,-20.021 0,-20.022 -57.575,-0.111 c -45.831,-0.088 -57.617998,10e-4 -57.784998,0.436"
       style="fill:#ffb700;fill-rule:evenodd;stroke:none"/>
    <path
       id="path1"
       d="m 3.1744218,19.433416 0.113,17.954 4.632,0.123 c 4.3660002,0.116 4.6470002,0.179 4.8910002,1.088 0.34,1.27 0.337,67.703894 -0.004,68.973894 -0.253,0.945 -0.44,0.98 -5.3810002,0.98 -3.869,0 -5.243,0.149 -5.627,0.612 -0.592,0.713 -0.4959999,33.177 0.101,34.099 0.278,0.431 12.0540002,0.544 56.4740002,0.544 l 56.121998,0 0,-21.298 0,-21.29798 -0.953,-0.30299 c -1.259,-0.39899 -30.268998,-0.38099 -32.096998,0.02 l -1.421,0.31199 0.152,3.65598 c 0.156,3.753 -0.073,4.305 -1.486,3.579 -0.425,-0.219 -6.677,-0.338 -14.046,-0.268 l -13.279,0.127 0.118,-8.26994 0.118,-8.269954 10.378,-0.089 c 10.58,-0.091 11.669,-0.262 11.377,-1.78 -0.079,-0.408 -0.158,-8.231 -0.177,-17.383 l -0.033,-16.641 -10.773,-0.117 -10.772,-0.116 0,-9.082 0,-9.083 13.71,-0.075 c 16.915,-0.093 15.046,-0.61 14.877,4.115 l -0.14,3.897 16.970998,0 c 9.333,0 17.28,-0.119 17.658,-0.265 0.827,-0.317 1.19266,-42.62033 0.36866,-42.62033 -0.24,0 -0.55066,-0.0637 -0.55066,-0.4226701 0,-0.577 -6.481,-0.653 -55.716998,-0.653 l -55.7180002,0 0.114,17.9540001 M 110.09542,6.8614064 c 0.353,0.427 0.461,5.3320086 0.379,17.3020096 l -0.114,16.706 -12.622,0 -12.621998,0 -0.126,-3.813 -0.126,-3.813 -18.808,0.114 -18.808,0.113 0,13.275 0,13.276 10.715,0.116 10.714,0.116 0.319,13.022 c 0.176,7.162 0.19,13.231 0.033,13.486 -0.191,0.307 -3.933,0.463 -11.143,0.463 l -10.855,0 0,12.839954 0,12.83994 18.916,0 18.917,0 0.126,-3.808 0.126,-3.809 12.403998,0 12.405,0 0,16.975 0,16.975 -51.692998,0.111 -51.6930002,0.11 0.115,-13.168 0.116,-13.168 5.1160002,-0.123 5.117,-0.123 -0.112,-39.702894 -0.111,-39.703 -4.679,-0.124 -4.6790002,-0.123 0,-13.188 c 0,-7.254001 0.131,-13.3190096 0.291,-13.4780096 0.631,-0.632 101.8539982,-0.331 102.3819982,0.304 M 76.483422,49.212416 c -0.16,0.159 -0.29,11.226 -0.29,24.592 l 0,24.30098 16.321998,0 16.322,0 0,-7.39898 0,-7.399 4.98,0 c 2.85,0 5.095,0.186 5.248,0.435 0.148,0.239 0.062,0.435 -0.191,0.435 0.19629,9.18223 0.34642,23.818664 0.37936,34.058894 0.019,11.845 -0.121,18.172 -0.405,18.172 -0.24541,5.29076 1.20719,11.7886 0.15,16.757 -0.097,0.267 -2.03,0.378 -5.001,0.287 -3.704,-0.114 -4.929,-0.012 -5.212,0.435 -0.758,1.196 -0.466,35.062 0.305,35.358 1.795,0.689 57.972,0.28 58.242,-0.424 0.146,-0.379 0.264,-8.518 0.264,-18.086 l 0,-17.398 -5.041,0.075 -5.042,0.074 0.033,-34.953 c 0.019,-20.337914 0.197,-35.055894 0.426,-35.197894 0.217,-0.135 2.422,-0.148 4.9,-0.028 l 4.507,0.217 0.119,7.291 0.12,7.28998 16.746,0 16.747,0 0,-23.90798 c 0,-21.154 -0.079,-23.986 -0.684,-24.591 -0.714,-0.715 -123.233998,-1.104 -123.943998,-0.394 m 119.186998,24.302 0,20.021 -11.721,0.116 c -9.088,0.09 -11.801,-0.007 -12.072,-0.435 -0.192,-0.303 -0.353,-3.64 -0.357,-7.415 l -0.006,-6.864 -9.249,0.117 -9.25,0.118 -0.119,38.519894 c -0.066,21.186 -0.013,38.961 0.117,39.499 0.228,0.942 0.42,0.98 5.008,0.98 4.589,0 4.66534,-0.0777 4.88734,0.86434 0.352,1.493 0.13166,24.52366 -0.25034,25.14266 -0.354,0.573 -47.315,0.841 -48.78,0.279 -0.607,-0.233 -0.688,-1.811 -0.688,-13.261 l 0,-12.997 4.896,-0.123 4.897,-0.123 0.111,-39.499 0.111,-39.499894 -9.35,0 -9.35,0 -0.119,7.291 -0.119,7.29 -11.97,0 -11.968998,0 -0.114,-19.586 c -0.062,-10.773 -0.019,-19.832 0.096,-20.132 0.167,-0.435 11.953998,-0.524 57.784998,-0.436 l 57.575,0.111 0,20.022"
       style="fill:#000066;fill-rule:evenodd;stroke:none"/>
    </g>
</svg>
