<svg id="svg" version="1.1" width="400" height="330" xmlns="http://www.w3.org/2000/svg" xmlns:xlink="http://www.w3.org/1999/xlink" style="display: block;"><g id="svgg"><path id="path0" d="M182.003 9.833 C 168.283 11.328,153.609 15.492,140.800 21.526 C 137.095 23.271,131.090 26.533,128.668 28.116 C 127.531 28.859,125.520 30.172,124.200 31.032 C 115.359 36.798,107.637 43.758,97.829 54.800 C 83.531 70.899,72.680 96.009,69.136 121.200 C 67.731 131.190,68.547 151.635,70.822 163.399 C 73.316 176.304,81.493 197.116,87.508 205.870 C 87.935 206.492,89.072 208.260,90.035 209.800 C 96.402 219.988,107.544 232.295,117.800 240.471 C 122.687 244.367,131.930 250.800,132.640 250.800 C 132.763 250.800,133.795 251.417,134.932 252.172 C 141.926 256.812,158.445 263.532,168.800 265.950 C 170.890 266.438,173.680 267.102,175.000 267.425 C 188.078 270.625,215.922 270.717,226.200 267.593 C 226.860 267.392,229.470 266.750,232.000 266.166 C 246.522 262.812,265.444 254.305,275.223 246.734 C 275.980 246.148,277.438 245.068,278.462 244.334 C 290.330 235.834,302.207 222.662,310.862 208.400 C 314.711 202.060,318.960 193.352,320.817 188.000 C 321.542 185.910,322.260 184.020,322.412 183.800 C 323.945 181.584,328.061 162.478,328.823 154.048 C 329.422 147.412,329.073 129.832,328.234 124.400 C 326.991 116.357,323.951 103.294,322.602 100.200 C 322.314 99.540,321.330 96.968,320.415 94.485 C 299.959 38.985,241.668 3.334,182.003 9.833 M196.400 24.343 L 196.400 34.286 192.300 34.563 C 175.857 35.677,159.382 40.595,146.586 48.208 C 144.834 49.250,142.771 50.461,142.002 50.900 C 138.913 52.660,132.788 57.393,127.573 62.050 L 124.546 64.753 117.048 57.248 L 109.551 49.743 113.075 46.572 C 115.014 44.827,116.780 43.208,117.000 42.974 C 120.695 39.042,137.009 28.913,145.708 25.151 C 147.738 24.273,150.120 23.220,151.000 22.811 C 152.490 22.119,159.282 19.930,165.800 18.043 C 169.339 17.018,175.883 15.792,180.800 15.232 C 182.890 14.994,185.140 14.737,185.800 14.660 C 186.460 14.583,189.115 14.493,191.700 14.460 L 196.400 14.400 196.400 24.343 M210.602 15.004 C 216.977 15.745,224.055 17.005,227.339 17.983 C 228.693 18.386,231.997 19.373,234.683 20.175 C 251.402 25.170,270.391 36.278,283.779 48.895 L 284.959 50.007 278.282 56.643 L 271.606 63.279 269.503 61.567 C 268.346 60.626,266.745 59.241,265.944 58.490 C 263.232 55.945,248.950 46.400,247.855 46.400 C 247.718 46.400,245.841 45.527,243.683 44.460 C 237.260 41.285,228.112 38.169,220.600 36.599 C 218.180 36.093,216.470 35.588,216.800 35.478 C 217.130 35.367,217.730 35.169,218.133 35.038 C 219.976 34.439,217.187 32.880,214.200 32.839 C 213.320 32.827,211.815 33.174,210.856 33.609 C 209.478 34.234,208.243 34.400,204.956 34.400 L 200.800 34.400 200.800 24.400 L 200.800 14.400 203.102 14.400 C 204.369 14.400,207.744 14.672,210.602 15.004 M294.237 21.681 C 295.307 22.825,297.759 25.338,299.686 27.265 C 301.613 29.191,303.853 31.810,304.664 33.084 C 311.767 44.242,327.586 60.950,336.854 67.083 C 338.820 68.384,339.076 68.131,338.014 65.939 C 337.552 64.982,336.893 63.120,336.551 61.800 C 331.039 40.517,322.658 31.272,301.221 22.824 C 291.538 19.008,291.772 19.046,294.237 21.681 M94.593 24.166 C 73.129 32.859,65.193 41.061,60.144 59.772 C 59.368 62.647,58.281 66.138,57.728 67.528 C 56.408 70.847,56.647 70.920,59.728 68.137 C 61.151 66.852,63.518 64.810,64.988 63.600 C 72.808 57.162,77.464 52.485,80.717 47.800 C 83.952 43.141,87.169 38.595,87.528 38.175 C 87.727 37.942,88.690 36.665,89.668 35.337 C 92.267 31.806,95.377 28.270,98.983 24.745 C 100.734 23.034,102.081 21.548,101.977 21.443 C 101.872 21.339,98.550 22.564,94.593 24.166 M330.830 39.518 C 336.837 45.127,337.785 47.218,342.420 65.081 C 344.373 72.606,346.597 80.431,347.363 82.470 C 349.027 86.901,348.999 87.249,347.253 83.845 C 344.569 78.611,337.980 72.241,329.200 66.391 C 320.408 60.534,315.812 56.247,312.679 50.982 C 310.627 47.535,310.392 47.779,311.428 52.275 C 314.397 65.154,320.237 73.518,332.600 82.596 C 333.480 83.242,334.436 84.001,334.725 84.282 C 335.013 84.563,336.630 85.829,338.318 87.096 C 344.763 91.936,352.661 100.361,354.633 104.500 C 355.355 106.014,356.234 106.596,355.842 105.300 C 355.021 102.582,354.813 95.466,355.261 85.400 C 355.964 69.600,355.328 64.598,351.650 57.000 C 347.704 48.846,341.794 42.660,334.600 39.153 C 328.034 35.951,327.105 36.041,330.830 39.518 M63.306 40.168 C 58.287 42.033,53.562 45.595,49.059 50.908 C 42.003 59.232,40.051 66.669,40.636 83.000 C 40.825 88.280,40.933 96.065,40.877 100.300 C 40.820 104.535,40.851 108.000,40.945 108.000 C 41.040 108.000,41.712 107.055,42.440 105.900 C 46.381 99.644,52.029 93.696,59.000 88.460 C 72.708 78.164,81.566 66.588,83.531 56.400 C 84.753 50.067,84.514 48.511,82.861 52.035 C 80.133 57.848,76.346 61.424,62.400 71.353 C 56.808 75.334,52.327 80.157,48.900 85.884 C 47.020 89.026,45.918 89.901,47.386 87.087 C 48.962 84.065,51.883 73.751,53.812 64.400 C 56.301 52.333,58.367 47.649,63.471 42.500 C 67.027 38.914,67.018 38.789,63.306 40.168 M196.400 48.771 L 196.400 58.342 194.100 58.581 C 182.302 59.803,175.198 61.320,169.841 63.760 C 168.718 64.272,167.350 64.828,166.800 64.998 C 161.631 66.588,150.908 73.442,144.442 79.288 C 141.269 82.156,142.487 82.702,134.795 74.970 L 128.200 68.341 131.000 65.754 C 132.540 64.331,135.150 62.145,136.800 60.897 C 138.450 59.649,140.010 58.425,140.266 58.176 C 140.522 57.928,142.142 56.853,143.866 55.786 C 145.590 54.720,147.090 53.735,147.200 53.597 C 147.310 53.459,149.470 52.299,152.000 51.020 C 154.530 49.740,156.780 48.562,157.000 48.401 C 161.485 45.119,181.965 40.122,193.600 39.471 C 194.810 39.403,195.935 39.315,196.100 39.274 C 196.265 39.233,196.400 43.507,196.400 48.771 M205.076 40.800 C 205.454 40.800,205.598 40.572,205.455 40.200 C 204.791 38.468,219.974 41.071,230.000 44.407 C 240.268 47.825,241.116 48.406,236.717 49.011 C 232.071 49.650,232.212 50.704,237.701 56.365 C 239.625 58.351,241.200 60.244,241.200 60.573 C 241.200 60.903,241.734 61.780,242.386 62.523 C 243.038 63.266,243.754 64.352,243.976 64.937 C 244.441 66.161,244.866 66.223,247.176 65.408 L 248.852 64.817 250.826 66.663 C 252.979 68.677,253.221 69.200,252.000 69.200 C 250.832 69.200,251.020 69.821,252.500 70.847 C 253.215 71.343,254.790 72.589,256.000 73.616 C 257.210 74.642,258.402 75.553,258.648 75.641 C 258.894 75.728,258.049 76.838,256.771 78.107 L 254.445 80.413 251.923 78.155 C 250.535 76.913,248.835 75.515,248.145 75.048 C 247.455 74.582,246.285 73.718,245.545 73.129 C 243.389 71.413,235.529 67.034,231.712 65.423 C 229.781 64.608,227.650 63.693,226.978 63.389 C 223.402 61.773,209.823 58.800,206.016 58.800 C 205.189 58.800,203.677 58.686,202.656 58.546 L 200.800 58.291 200.800 48.760 L 200.800 39.228 202.633 40.014 C 203.641 40.446,204.741 40.800,205.076 40.800 M113.955 60.555 C 118.985 65.591,121.202 68.073,120.984 68.425 C 120.809 68.709,119.191 70.704,117.389 72.860 C 114.324 76.525,111.550 80.461,107.843 86.404 C 105.256 90.551,100.833 100.542,98.744 106.956 C 96.052 115.221,94.952 120.790,93.781 132.096 L 93.544 134.391 92.392 133.796 C 91.758 133.468,91.051 133.200,90.820 133.200 C 90.142 133.200,90.339 135.663,91.089 136.569 C 91.469 137.026,91.523 137.175,91.209 136.900 C 90.896 136.625,90.234 136.400,89.738 136.400 C 89.011 136.400,88.784 136.110,88.565 134.900 C 88.171 132.713,87.650 131.894,86.798 132.117 C 86.274 132.253,85.995 132.035,85.824 131.354 C 85.491 130.027,84.560 130.162,82.747 131.800 C 81.895 132.570,80.860 133.200,80.448 133.200 C 79.439 133.200,78.880 133.951,78.492 135.831 L 78.167 137.400 75.822 137.522 L 73.478 137.644 73.722 130.722 C 74.656 104.231,86.933 73.806,103.897 55.945 C 104.944 54.843,105.860 53.774,105.933 53.571 C 106.193 52.849,106.684 53.276,113.955 60.555 M290.847 56.200 C 310.392 77.639,324.000 110.246,324.000 135.642 L 324.000 138.000 314.061 138.000 L 304.122 138.000 303.859 133.396 C 302.504 109.671,293.193 87.514,276.630 68.599 L 274.660 66.349 281.226 59.774 C 284.838 56.157,287.906 53.243,288.044 53.299 C 288.181 53.354,289.443 54.660,290.847 56.200 M356.003 60.249 C 356.004 60.442,356.369 61.140,356.814 61.800 C 360.621 67.453,361.933 76.989,360.583 89.203 C 359.809 96.210,359.535 114.343,360.074 123.000 L 360.347 127.400 359.425 122.949 C 358.918 120.501,358.222 117.981,357.878 117.349 C 357.535 116.717,356.626 114.850,355.860 113.200 C 355.056 111.469,353.381 108.929,351.903 107.200 C 349.464 104.346,348.001 102.947,337.846 93.771 C 333.153 89.529,330.281 86.305,328.521 83.301 C 326.982 80.675,326.876 81.852,328.199 86.869 C 331.495 99.364,334.234 104.735,343.976 117.800 C 356.476 134.564,358.652 138.599,360.989 149.347 C 361.310 150.822,361.504 150.592,361.986 148.169 C 363.794 139.081,365.743 132.336,368.278 126.400 C 369.921 122.551,370.990 119.020,372.453 112.600 C 374.679 102.836,372.245 85.761,367.143 75.342 C 364.015 68.954,355.986 58.077,356.003 60.249 M265.372 64.705 C 267.338 66.551,267.880 67.271,267.432 67.443 C 266.313 67.873,260.400 62.454,260.400 60.999 C 260.400 60.481,262.694 62.191,265.372 64.705 M37.372 64.245 C 22.744 82.281,19.289 104.738,27.807 126.400 C 28.543 128.270,29.791 131.600,30.581 133.800 C 31.371 136.000,32.176 138.083,32.368 138.429 C 32.987 139.540,34.356 144.887,35.024 148.800 C 35.381 150.890,35.722 152.650,35.782 152.712 C 35.842 152.774,36.108 151.722,36.373 150.374 C 37.697 143.645,42.703 133.812,49.801 124.000 C 62.132 106.952,65.014 101.162,68.016 87.400 C 68.401 85.634,68.471 83.049,68.108 84.000 C 67.820 84.753,64.945 89.062,63.833 90.408 C 63.375 90.962,60.390 93.811,57.200 96.738 C 43.316 109.480,38.532 116.906,36.814 128.383 C 36.365 131.382,36.000 132.489,36.000 130.854 C 36.000 130.370,36.289 126.335,36.642 121.887 C 37.399 112.361,37.245 107.819,35.773 96.200 C 34.303 84.592,34.290 76.951,35.733 71.474 C 36.663 67.945,37.171 66.778,39.122 63.700 C 40.102 62.153,38.719 62.584,37.372 64.245 M196.400 72.353 L 196.400 81.507 195.500 81.748 C 195.005 81.881,194.039 81.992,193.352 81.995 C 184.171 82.035,168.635 88.727,160.568 96.117 L 158.135 98.345 151.643 91.843 L 145.150 85.341 147.692 83.110 C 153.438 78.065,159.992 73.664,165.506 71.148 C 167.428 70.271,169.720 69.221,170.600 68.813 C 175.398 66.592,188.434 63.682,195.500 63.254 L 196.400 63.200 196.400 72.353 M207.505 63.987 C 217.180 65.333,222.617 66.846,230.328 70.342 C 236.703 73.231,243.668 77.549,243.327 78.400 C 242.511 80.437,242.708 80.996,244.980 83.111 C 246.214 84.260,247.549 85.200,247.945 85.200 C 248.342 85.200,248.773 85.306,248.902 85.436 C 249.139 85.672,245.291 89.676,240.355 94.328 L 237.710 96.821 235.755 95.065 C 228.339 88.403,212.874 82.028,204.048 81.995 C 203.251 81.992,202.195 81.881,201.700 81.748 L 200.800 81.507 200.800 72.353 C 200.800 65.071,200.907 63.200,201.324 63.200 C 201.613 63.200,204.394 63.554,207.505 63.987 M272.197 71.265 C 273.319 72.454,273.331 72.499,272.395 72.012 C 270.903 71.235,270.384 70.749,270.628 70.355 C 270.922 69.879,270.847 69.835,272.197 71.265 M137.163 86.691 C 135.303 88.672,131.585 93.683,130.108 96.200 C 129.462 97.300,128.201 99.460,127.304 101.000 C 123.688 107.212,119.750 118.933,118.723 126.538 C 118.283 129.800,118.146 130.153,116.965 131.054 C 115.639 132.065,115.143 133.004,114.403 135.900 L 113.969 137.600 106.229 137.600 L 98.489 137.600 98.679 134.100 C 99.864 112.262,108.108 91.674,122.544 74.494 L 124.985 71.588 131.782 78.385 L 138.580 85.182 137.163 86.691 M267.200 80.755 C 269.538 81.939,271.541 83.370,273.614 85.338 C 278.213 89.704,278.280 89.747,279.641 89.183 C 280.279 88.919,280.800 88.423,280.800 88.080 C 280.800 86.968,281.748 84.800,282.234 84.800 C 283.199 84.800,288.585 94.389,290.865 100.168 C 291.292 101.250,291.975 102.870,292.382 103.768 C 295.272 110.144,298.232 123.816,298.992 134.300 L 299.260 138.000 289.677 138.000 L 280.095 138.000 279.822 134.500 C 278.350 115.618,271.533 99.325,259.290 85.432 L 257.556 83.464 260.277 80.723 C 262.375 78.608,263.089 78.102,263.399 78.508 C 263.619 78.797,265.330 79.808,267.200 80.755 M249.398 82.597 C 250.713 83.722,250.903 84.056,250.471 84.482 C 250.041 84.907,249.840 84.856,249.357 84.200 C 249.033 83.760,248.415 82.994,247.984 82.497 C 246.414 80.688,247.235 80.746,249.398 82.597 M196.400 97.162 L 196.400 107.925 194.300 108.200 C 191.384 108.583,186.735 110.196,183.333 112.006 C 180.369 113.583,180.000 113.613,180.000 112.280 C 180.000 108.868,177.216 106.000,173.904 106.000 C 172.941 106.000,171.804 105.736,171.376 105.413 C 170.949 105.090,170.124 104.820,169.543 104.813 C 168.961 104.806,168.382 104.530,168.255 104.199 C 168.115 103.835,167.508 103.597,166.712 103.595 C 163.715 103.587,163.216 103.469,162.371 102.569 L 161.485 101.626 163.599 99.713 C 171.739 92.346,185.030 86.746,195.100 86.440 L 196.400 86.400 196.400 97.162 M206.123 86.832 C 213.618 87.957,221.961 91.109,227.751 95.002 C 231.282 97.376,234.431 99.942,232.926 99.220 C 231.843 98.700,229.600 98.668,229.600 99.173 C 229.600 99.378,229.240 99.660,228.801 99.800 C 228.361 99.939,227.893 100.488,227.760 101.019 C 227.561 101.809,227.384 101.913,226.785 101.592 C 226.057 101.202,223.200 101.035,223.200 101.382 C 223.200 101.482,223.695 102.067,224.300 102.682 C 225.397 103.797,225.397 103.800,224.500 103.928 C 224.005 103.998,223.600 104.330,223.600 104.665 C 223.600 105.001,223.233 105.371,222.784 105.488 C 221.953 105.706,220.800 107.890,220.800 109.249 C 220.800 110.047,221.587 110.253,222.220 109.620 C 222.943 108.898,222.603 111.912,221.871 112.722 C 220.486 114.252,216.121 113.474,214.391 111.389 C 214.122 111.065,213.399 110.800,212.784 110.800 C 210.768 110.800,210.251 110.428,211.045 109.551 C 211.418 109.138,211.961 108.800,212.252 108.800 C 213.089 108.800,214.000 106.608,214.000 104.593 C 214.000 102.510,213.378 102.417,211.089 104.156 C 208.624 106.029,208.064 106.679,207.935 107.814 C 207.852 108.539,207.594 108.957,207.270 108.890 C 206.979 108.830,205.404 108.572,203.770 108.318 L 200.800 107.857 200.800 97.128 L 200.800 86.400 202.023 86.400 C 202.696 86.400,204.541 86.594,206.123 86.832 M255.379 88.608 C 255.969 89.382,256.911 90.507,257.471 91.108 C 259.290 93.059,260.634 95.372,260.487 96.300 C 260.317 97.374,260.420 97.361,258.391 96.550 C 256.220 95.681,256.012 96.064,257.644 97.927 C 258.390 98.778,259.309 99.858,259.687 100.326 C 260.654 101.526,262.257 101.854,263.159 101.037 C 263.988 100.287,264.231 100.478,265.412 102.800 C 265.918 103.796,265.962 104.076,265.562 103.770 C 265.060 103.386,262.103 102.400,261.454 102.400 C 261.314 102.400,261.200 102.645,261.200 102.945 C 261.200 103.318,260.867 103.425,260.138 103.286 C 258.586 102.989,259.088 105.370,260.899 106.896 C 263.234 108.863,265.998 111.765,266.229 112.490 C 266.714 114.020,268.366 113.356,268.660 111.513 L 268.930 109.826 269.844 112.213 C 271.285 115.975,271.062 119.616,269.409 119.300 C 268.243 119.077,268.013 119.479,267.590 122.472 C 267.204 125.204,266.865 125.753,265.813 125.350 C 265.168 125.102,265.119 124.720,265.347 121.754 L 265.602 118.436 264.063 116.818 C 261.677 114.309,260.540 114.599,260.064 117.835 C 259.752 119.957,259.327 120.091,258.072 118.464 C 257.211 117.347,257.200 117.275,257.927 117.465 C 258.357 117.578,258.836 117.466,258.989 117.217 C 259.399 116.555,258.446 115.600,257.375 115.600 C 256.710 115.600,256.031 115.006,254.975 113.500 C 253.265 111.063,250.857 109.224,248.974 108.918 C 247.877 108.740,247.343 108.236,245.818 105.943 C 244.808 104.424,243.325 102.455,242.522 101.566 L 241.062 99.950 246.225 94.775 C 249.065 91.929,251.616 89.600,251.894 89.600 C 252.172 89.600,252.400 89.389,252.400 89.131 C 252.400 88.602,253.572 87.200,254.015 87.200 C 254.174 87.200,254.788 87.833,255.379 88.608 M148.577 95.177 L 154.946 101.555 152.721 104.477 C 151.498 106.085,149.550 109.110,148.393 111.200 C 147.130 113.480,145.611 115.595,144.596 116.487 C 143.665 117.305,142.593 118.628,142.214 119.427 C 141.835 120.227,140.983 121.178,140.323 121.540 C 137.130 123.293,134.128 127.255,134.572 129.130 C 135.109 131.398,135.145 131.355,132.659 131.405 C 131.300 131.433,130.271 131.274,130.206 131.026 C 128.588 124.868,127.594 123.191,126.558 124.868 C 126.366 125.179,126.160 125.044,125.947 124.468 C 125.770 123.991,125.350 123.600,125.013 123.600 C 124.228 123.600,124.222 123.673,125.410 119.239 C 127.169 112.672,130.129 105.904,133.999 99.601 C 135.981 96.373,141.569 88.844,142.005 88.814 C 142.117 88.806,145.075 91.670,148.577 95.177 M232.000 102.086 C 232.000 103.240,228.262 106.400,226.897 106.400 C 226.000 106.400,225.229 106.735,224.539 107.424 C 223.161 108.803,222.978 108.457,224.205 106.794 C 224.752 106.052,225.200 105.238,225.200 104.986 C 225.200 104.443,226.913 103.600,228.019 103.600 C 228.448 103.600,228.800 103.339,228.800 103.020 C 228.800 102.701,229.115 102.256,229.500 102.032 C 230.471 101.466,232.000 101.499,232.000 102.086 M239.120 104.915 L 239.980 105.830 238.890 105.815 C 237.960 105.802,237.782 105.982,237.679 107.041 C 237.551 108.355,237.454 108.376,234.439 107.753 C 233.502 107.559,233.522 107.510,235.222 105.777 C 237.198 103.765,237.895 103.610,239.120 104.915 M159.200 105.800 C 159.741 106.451,159.611 106.533,158.633 106.157 C 158.285 106.024,158.000 105.754,158.000 105.557 C 158.000 105.004,158.648 105.135,159.200 105.800 M168.800 106.418 C 169.238 106.715,169.076 106.752,168.200 106.556 C 166.729 106.227,166.410 105.998,167.433 106.006 C 167.855 106.009,168.470 106.195,168.800 106.418 M248.826 106.776 C 248.140 107.209,248.900 108.400,249.862 108.400 C 250.659 108.400,251.027 107.189,250.358 106.766 C 249.662 106.325,249.537 106.326,248.826 106.776 M242.826 109.700 C 244.053 111.394,244.390 112.400,243.500 111.711 C 241.591 110.234,240.978 111.199,242.600 113.127 C 243.924 114.700,243.862 115.000,242.392 114.132 C 241.676 113.709,241.270 113.195,241.395 112.869 C 241.511 112.567,241.178 111.983,240.656 111.573 C 239.678 110.804,239.607 109.233,240.499 108.104 C 241.007 107.462,241.401 107.732,242.826 109.700 M376.652 109.100 C 377.914 115.666,375.804 128.759,372.220 136.594 C 371.711 137.707,370.633 140.215,369.825 142.166 C 369.017 144.118,367.753 146.994,367.015 148.557 C 366.277 150.121,365.021 153.560,364.224 156.200 C 363.426 158.840,362.606 161.540,362.401 162.200 C 362.195 162.860,361.385 166.370,360.599 170.000 C 358.921 177.760,358.412 179.746,358.167 179.500 C 358.068 179.401,358.385 177.718,358.871 175.760 C 360.489 169.251,359.956 157.955,357.797 153.000 C 356.015 148.908,353.428 143.597,352.634 142.400 C 345.757 132.030,339.600 119.990,339.600 116.910 C 339.600 116.604,339.420 116.464,339.200 116.600 C 337.461 117.675,339.902 136.079,343.817 151.413 C 345.721 158.872,347.034 163.281,350.607 174.219 C 352.014 178.528,352.460 186.202,351.798 194.717 C 351.488 198.703,351.176 198.833,355.000 193.386 C 357.109 190.382,361.280 184.881,364.999 180.200 C 369.505 174.527,372.996 169.748,374.056 167.800 C 382.092 153.031,384.335 130.343,379.368 114.057 C 378.346 110.704,377.002 107.600,376.574 107.600 C 376.458 107.600,376.494 108.275,376.652 109.100 M18.262 114.500 C 12.229 133.273,14.810 157.544,24.419 172.400 C 26.111 175.016,31.153 181.598,32.461 182.899 C 33.572 184.003,37.618 189.048,39.707 191.934 C 40.756 193.383,41.882 194.936,42.209 195.384 C 42.537 195.833,43.339 197.055,43.993 198.100 C 45.098 199.865,46.377 200.759,45.856 199.402 C 44.104 194.836,45.165 179.246,47.598 173.800 C 47.795 173.360,48.787 170.030,49.803 166.400 C 50.819 162.770,51.996 158.630,52.418 157.200 C 53.989 151.879,55.195 145.993,56.188 138.800 C 56.750 134.730,57.387 130.195,57.605 128.723 C 58.058 125.653,58.064 120.670,57.615 119.200 C 57.262 118.043,57.253 118.062,56.001 122.400 C 54.829 126.460,53.397 129.689,51.389 132.800 C 47.355 139.051,46.249 140.957,43.825 145.832 C 37.632 158.286,36.284 166.907,38.612 179.157 C 38.721 179.731,38.458 179.255,38.029 178.099 C 37.600 176.944,36.776 173.614,36.198 170.699 C 34.281 161.027,31.777 153.530,27.821 145.625 C 21.440 132.871,18.534 120.642,19.902 112.300 C 20.490 108.711,19.844 109.579,18.262 114.500 M198.647 113.770 C 198.994 114.520,198.972 114.857,198.544 115.284 C 197.661 116.168,198.284 120.720,199.448 121.884 C 200.677 123.113,202.383 123.122,202.446 121.900 C 202.481 121.229,202.539 121.177,202.675 121.696 C 202.775 122.079,203.429 122.548,204.129 122.738 C 204.828 122.929,205.349 123.309,205.286 123.584 C 205.079 124.494,205.615 125.511,206.413 125.719 C 206.950 125.860,207.200 126.268,207.200 127.001 C 207.200 129.277,208.749 130.908,209.857 129.800 C 210.680 128.977,211.235 129.048,211.486 130.008 C 211.652 130.644,211.816 130.719,212.249 130.359 C 213.257 129.523,212.818 130.321,211.600 131.538 C 210.888 132.251,210.400 133.157,210.400 133.769 C 210.400 134.892,210.769 135.071,211.526 134.314 C 211.907 133.933,211.974 134.126,211.833 135.214 C 211.735 135.976,211.642 136.825,211.627 137.100 C 211.612 137.375,211.130 137.600,210.554 137.600 C 209.279 137.600,206.400 139.157,206.400 139.847 C 206.400 140.121,206.040 140.460,205.600 140.600 C 203.991 141.111,204.803 141.627,206.800 141.362 C 208.008 141.202,208.800 141.251,208.800 141.485 C 208.800 141.914,211.429 142.800,212.704 142.800 C 213.150 142.800,213.618 143.070,213.745 143.400 C 213.877 143.744,214.474 144.000,215.145 144.000 C 215.815 144.000,216.413 144.256,216.545 144.600 C 216.671 144.930,216.575 145.200,216.332 145.200 C 215.878 145.200,214.836 146.363,214.813 146.895 C 214.799 147.221,216.934 148.211,219.400 149.021 L 221.000 149.546 219.500 149.573 C 218.675 149.588,218.000 149.793,218.000 150.029 C 218.000 150.264,217.734 150.723,217.409 151.048 C 217.084 151.373,216.542 152.033,216.205 152.514 C 215.682 153.261,215.478 153.316,214.802 152.894 C 213.858 152.304,212.800 152.247,212.800 152.786 C 212.800 152.998,213.205 153.381,213.700 153.636 C 215.335 154.479,216.400 155.723,216.400 156.790 C 216.400 157.367,216.588 158.028,216.817 158.257 C 217.572 159.012,216.221 159.746,215.140 159.168 L 214.230 158.681 215.115 158.353 C 217.517 157.465,215.604 154.876,212.366 154.634 C 211.175 154.545,209.930 154.379,209.600 154.266 C 206.264 153.118,205.949 153.788,205.675 162.620 C 205.581 165.663,204.664 166.125,198.756 166.104 C 187.550 166.065,176.969 158.422,173.692 148.000 C 172.291 143.545,172.291 143.552,173.716 142.328 C 174.796 141.399,174.904 141.158,174.400 140.812 C 173.867 140.446,173.867 140.356,174.400 140.006 C 175.248 139.450,175.600 139.507,175.600 140.200 C 175.600 140.530,175.825 140.827,176.100 140.861 C 176.997 140.970,177.389 141.073,178.111 141.386 C 178.615 141.604,179.090 141.404,179.748 140.694 C 181.448 138.859,183.973 137.412,184.516 137.961 C 184.895 138.344,184.848 138.535,184.300 138.845 C 183.915 139.062,183.600 139.491,183.600 139.798 C 183.600 140.434,179.630 143.200,178.717 143.200 C 177.257 143.200,174.220 147.580,175.083 148.443 C 175.268 148.628,176.070 148.581,176.863 148.337 C 178.038 147.977,178.549 148.016,179.615 148.547 C 181.486 149.481,181.715 149.408,183.444 147.326 C 184.300 146.295,185.431 145.035,185.959 144.526 C 186.639 143.869,186.974 143.016,187.110 141.591 C 187.217 140.487,187.460 139.486,187.652 139.368 C 188.711 138.713,187.674 136.400,186.320 136.400 C 185.339 136.400,185.416 135.916,186.600 134.638 C 187.559 133.603,187.933 132.400,187.296 132.400 C 187.129 132.400,186.994 131.832,186.996 131.138 C 187.000 129.797,186.159 129.086,185.934 130.240 C 185.811 130.871,185.757 130.873,185.259 130.272 C 184.789 129.705,184.854 129.558,185.754 129.148 C 186.323 128.889,187.051 128.276,187.372 127.787 C 187.769 127.181,188.533 126.811,189.767 126.626 C 191.674 126.340,194.000 124.211,194.000 122.752 C 194.000 122.385,194.282 121.978,194.626 121.846 C 194.970 121.713,195.195 121.272,195.126 120.864 C 195.057 120.456,195.200 119.870,195.445 119.561 C 196.322 118.454,196.453 116.870,195.702 116.434 C 195.066 116.065,195.112 115.935,196.200 115.049 C 196.860 114.512,197.269 113.939,197.108 113.777 C 196.706 113.372,193.767 115.374,192.964 116.599 C 192.603 117.150,192.087 117.600,191.816 117.600 C 191.545 117.600,190.998 117.960,190.600 118.400 C 190.202 118.840,189.388 119.200,188.792 119.200 C 188.196 119.200,187.250 118.840,186.691 118.400 C 186.131 117.960,185.477 117.600,185.237 117.600 C 182.750 117.600,189.416 114.225,193.513 113.410 C 197.509 112.615,198.132 112.658,198.647 113.770 M155.216 115.616 C 157.064 117.502,157.322 119.404,156.000 121.400 C 155.563 122.060,155.204 123.252,155.203 124.050 C 155.199 126.089,153.421 129.140,152.065 129.432 C 150.253 129.824,149.200 130.503,149.200 131.280 C 149.200 132.300,150.122 132.568,151.996 132.092 C 153.999 131.584,154.572 131.985,155.556 134.582 C 156.160 136.177,156.569 136.660,157.653 137.052 C 158.811 137.471,158.061 137.543,152.300 137.570 C 144.461 137.605,144.663 137.770,147.000 133.253 C 148.552 130.254,148.942 126.983,147.800 126.545 C 146.907 126.202,147.071 125.352,148.240 124.268 C 149.042 123.525,149.305 122.856,149.388 121.352 C 149.450 120.230,150.018 118.252,150.723 116.700 C 152.205 113.437,152.913 113.267,155.216 115.616 M274.148 128.673 C 274.507 131.133,274.800 134.238,274.800 135.573 L 274.800 138.000 268.896 138.000 C 261.493 138.000,260.124 136.337,264.558 132.730 C 265.315 132.114,265.339 131.940,264.853 130.596 C 264.214 128.828,265.342 127.200,267.206 127.200 C 268.103 127.200,268.349 126.947,268.748 125.617 C 269.557 122.916,270.000 123.317,270.000 126.753 C 270.000 131.363,270.782 131.485,271.635 127.008 C 272.657 121.643,273.173 121.985,274.148 128.673 M141.210 126.670 L 142.220 126.864 141.706 130.332 C 141.423 132.239,141.093 134.655,140.972 135.700 L 140.751 137.600 138.363 137.600 C 136.787 137.600,135.932 137.430,135.848 137.100 C 135.778 136.825,135.516 135.979,135.265 135.221 C 135.015 134.462,134.960 133.742,135.145 133.621 C 135.881 133.137,136.400 131.559,136.400 129.808 C 136.400 127.539,137.861 125.733,139.323 126.197 C 139.805 126.350,140.655 126.562,141.210 126.670 M147.015 129.062 C 146.635 131.084,146.317 130.460,146.654 128.354 C 146.808 127.390,147.012 126.836,147.107 127.122 C 147.203 127.409,147.161 128.282,147.015 129.062 M177.277 131.900 C 178.224 133.002,178.402 133.901,177.776 134.420 C 176.855 135.185,177.030 136.538,178.018 136.280 C 179.312 135.941,180.981 136.952,180.199 137.601 C 179.693 138.021,179.442 137.981,178.772 137.375 C 177.976 136.655,177.937 136.664,176.958 137.819 C 176.195 138.720,176.062 138.785,176.397 138.092 C 177.039 136.766,176.595 136.400,174.345 136.400 L 172.336 136.400 172.610 135.100 C 173.180 132.387,176.022 130.439,177.277 131.900 M185.572 133.697 C 185.367 134.411,185.200 135.041,185.200 135.097 C 185.200 135.154,185.065 135.200,184.900 135.200 C 184.735 135.200,184.600 134.767,184.600 134.238 C 184.600 133.709,184.735 133.360,184.900 133.462 C 185.065 133.564,185.200 133.367,185.200 133.024 C 185.200 132.681,185.367 132.400,185.572 132.400 C 185.802 132.400,185.802 132.897,185.572 133.697 M182.400 135.200 C 181.032 135.638,179.981 135.638,181.000 135.200 C 181.440 135.011,182.160 134.862,182.600 134.868 C 183.243 134.877,183.204 134.943,182.400 135.200 M76.767 143.500 C 76.307 145.482,76.307 150.421,76.767 152.523 C 76.969 153.445,77.358 155.235,77.631 156.500 C 78.307 159.629,78.800 159.391,78.800 155.935 C 78.800 153.138,79.849 148.660,80.422 149.014 C 80.580 149.111,80.932 148.923,81.204 148.596 C 81.927 147.724,82.368 147.861,82.830 149.100 C 83.840 151.809,86.242 156.393,86.653 156.396 C 87.167 156.400,87.586 155.120,87.595 153.524 C 87.604 151.624,88.275 151.954,88.905 154.169 C 89.446 156.068,92.276 160.370,93.219 160.725 C 93.402 160.794,93.614 160.074,93.690 159.125 C 93.823 157.466,93.841 157.498,94.173 159.965 C 94.441 161.959,94.772 162.797,95.659 163.725 C 96.287 164.381,96.800 165.207,96.801 165.559 C 96.808 170.004,108.407 195.507,112.143 199.292 C 112.418 199.572,113.377 200.880,114.272 202.200 C 115.168 203.520,117.257 206.149,118.914 208.041 L 121.926 211.482 115.238 218.162 L 108.549 224.842 106.775 222.915 C 87.705 202.200,75.571 173.979,73.748 146.100 L 73.480 142.000 75.298 142.000 L 77.116 142.000 76.767 143.500 M112.176 142.587 C 111.289 143.258,109.939 143.375,109.380 142.829 C 109.171 142.624,108.370 142.383,107.600 142.293 C 106.830 142.202,107.719 142.099,109.576 142.064 C 112.624 142.006,112.877 142.057,112.176 142.587 M140.948 142.900 C 141.081 143.395,141.199 144.430,141.210 145.200 C 141.333 153.230,146.973 167.394,153.082 175.012 C 155.708 178.287,156.144 177.284,148.993 184.430 L 143.000 190.419 142.117 189.325 C 140.962 187.893,140.270 186.447,138.990 182.800 C 138.412 181.150,137.580 179.125,137.143 178.300 C 136.706 177.475,136.495 176.799,136.674 176.799 C 137.929 176.793,138.662 171.604,137.607 170.200 C 136.069 168.155,135.550 164.628,136.027 159.476 C 136.407 155.367,136.402 153.874,136.001 152.203 C 135.681 150.869,135.597 149.170,135.771 147.551 C 135.923 146.148,136.105 144.460,136.176 143.800 C 136.247 143.140,136.327 142.465,136.353 142.300 C 136.486 141.454,140.708 142.006,140.948 142.900 M163.855 143.100 C 164.566 143.983,164.841 144.102,165.250 143.700 C 166.666 142.311,167.076 142.897,168.591 148.478 C 169.478 151.746,170.613 154.228,172.445 156.913 C 173.742 158.814,173.956 159.371,173.566 159.841 C 173.208 160.272,159.982 173.443,159.001 174.345 C 158.401 174.896,153.114 167.192,150.941 162.600 C 148.120 156.636,145.608 147.464,145.602 143.100 L 145.600 142.000 154.285 142.000 L 162.970 142.000 163.855 143.100 M324.171 146.300 C 323.885 151.860,322.873 161.460,322.410 163.000 C 322.212 163.660,321.752 165.730,321.387 167.600 C 320.437 172.475,318.449 179.887,317.579 181.800 C 317.379 182.240,316.688 184.040,316.044 185.800 C 313.317 193.251,304.364 210.475,302.424 212.000 C 302.285 212.110,301.198 213.550,300.009 215.200 C 297.564 218.594,294.538 222.250,291.189 225.857 L 288.907 228.315 281.440 220.840 L 273.973 213.366 276.122 210.983 C 292.436 192.887,302.254 170.099,303.822 146.689 L 304.107 142.430 307.554 142.297 C 309.449 142.224,314.013 142.127,317.696 142.082 L 324.392 142.000 324.171 146.300 M274.800 144.249 C 274.800 153.520,267.189 177.274,263.944 178.129 C 263.583 178.224,262.430 179.964,261.380 181.996 C 259.174 186.267,257.766 188.100,256.848 187.892 C 256.492 187.811,255.024 188.324,253.587 189.033 L 250.974 190.322 249.150 188.599 L 247.326 186.875 248.470 186.646 C 249.099 186.520,250.401 186.525,251.362 186.657 C 253.743 186.983,254.567 185.613,257.552 176.369 C 259.216 171.218,258.013 167.115,255.523 169.448 L 254.293 170.600 255.297 169.000 C 255.848 168.120,256.707 166.210,257.204 164.755 C 257.857 162.846,258.650 161.540,260.055 160.060 C 261.321 158.725,262.000 157.659,262.000 157.005 C 262.000 156.126,262.173 156.000,263.377 156.000 C 265.013 156.000,269.836 153.148,270.213 151.958 C 270.633 150.637,269.172 148.220,267.864 148.070 C 266.707 147.938,265.683 146.311,264.986 143.500 L 264.713 142.400 269.757 142.400 L 274.800 142.400 274.800 144.249 M298.928 145.500 C 297.789 162.284,290.727 183.475,282.651 194.340 L 281.655 195.681 281.047 193.740 C 279.622 189.190,279.315 188.604,278.290 188.478 C 276.783 188.293,276.147 189.262,275.877 192.156 C 275.723 193.807,275.256 195.482,274.616 196.685 C 273.403 198.964,273.368 199.392,274.345 200.077 C 276.473 201.571,275.280 204.970,271.400 208.467 L 270.200 209.548 268.920 208.315 C 267.699 207.138,267.667 207.031,268.220 205.961 C 269.081 204.296,268.945 203.249,267.800 202.727 C 267.250 202.477,266.800 202.120,266.800 201.936 C 266.800 201.751,266.282 201.600,265.650 201.600 C 261.495 201.600,261.337 201.132,263.367 194.838 C 264.118 192.507,264.962 189.430,265.240 188.000 C 265.576 186.281,266.207 184.742,267.104 183.457 C 270.857 178.082,274.432 169.698,277.750 158.494 C 278.379 156.373,279.345 150.095,279.811 145.100 L 280.064 142.400 289.601 142.400 L 299.138 142.400 298.928 145.500 M269.754 146.977 C 269.362 147.998,269.783 149.000,270.605 149.000 C 271.209 149.000,271.430 148.688,271.525 147.700 C 271.660 146.306,270.234 145.724,269.754 146.977 M340.619 161.500 C 336.413 173.360,335.727 177.118,334.208 196.654 C 333.093 210.984,332.977 212.117,332.151 216.600 C 330.346 226.398,329.104 230.648,326.564 235.727 C 324.025 240.804,324.166 241.267,327.500 238.799 C 328.985 237.700,331.459 235.964,332.997 234.941 C 337.184 232.156,348.374 224.834,350.200 223.684 C 362.370 216.018,374.697 201.326,379.151 189.179 C 382.243 180.749,383.647 168.868,382.246 163.000 L 381.768 161.000 381.264 164.000 C 379.709 173.250,374.255 181.686,361.683 194.286 C 358.437 197.539,355.072 201.100,354.205 202.200 C 353.337 203.300,352.510 204.290,352.367 204.400 C 352.224 204.510,350.288 207.210,348.064 210.400 C 343.586 216.824,339.855 221.998,339.698 221.999 C 339.642 222.000,340.396 220.515,341.374 218.700 C 346.279 209.599,347.585 198.272,345.214 185.400 C 342.497 170.650,341.951 166.678,342.075 162.550 C 342.225 157.580,342.053 157.456,340.619 161.500 M194.800 161.600 C 194.800 163.040,194.900 163.200,195.800 163.200 C 197.055 163.200,197.159 161.959,196.000 160.800 C 194.901 159.701,194.800 159.769,194.800 161.600 M55.130 165.099 C 55.273 169.879,54.855 173.474,53.328 180.600 C 52.762 183.240,52.051 186.570,51.749 188.000 C 49.332 199.425,51.750 214.587,57.290 222.758 C 58.298 224.244,58.362 224.446,57.620 223.800 C 57.114 223.360,55.792 221.650,54.682 220.000 C 53.572 218.350,52.549 216.910,52.408 216.800 C 52.267 216.690,51.479 215.482,50.657 214.117 C 48.227 210.078,44.293 205.427,37.198 198.200 C 22.076 182.797,17.882 176.726,16.058 167.600 L 15.299 163.800 14.991 166.196 C 14.037 173.633,15.539 185.273,18.365 192.333 C 24.758 208.301,33.691 217.298,59.510 233.772 C 61.209 234.856,64.913 237.254,67.739 239.099 C 70.566 240.945,72.961 242.373,73.061 242.272 C 73.161 242.172,72.323 240.158,71.199 237.797 C 66.291 227.495,65.550 223.963,63.605 201.600 C 63.156 196.430,62.613 191.030,62.398 189.600 C 62.184 188.170,61.630 184.480,61.166 181.400 C 60.356 176.026,58.270 167.048,57.635 166.204 C 57.467 165.982,56.919 164.675,56.416 163.300 C 55.163 159.870,54.980 160.126,55.130 165.099 M179.653 164.609 C 180.920 165.604,183.271 167.040,184.878 167.800 C 187.469 169.024,189.124 169.533,194.900 170.881 C 196.712 171.304,197.100 173.700,195.600 175.200 C 194.688 176.112,194.569 177.204,195.300 177.951 C 195.705 178.365,195.590 178.367,194.689 177.961 C 193.839 177.579,193.468 177.572,193.109 177.931 C 192.851 178.189,192.316 178.400,191.920 178.400 C 191.524 178.400,191.200 178.558,191.200 178.750 C 191.200 178.942,191.088 179.662,190.950 180.350 L 190.700 181.600 192.545 181.600 C 194.292 181.600,194.422 181.522,195.004 180.129 C 195.446 179.070,195.740 178.780,196.053 179.093 C 196.366 179.406,196.280 179.890,195.744 180.821 C 195.168 181.822,195.118 182.155,195.521 182.297 C 195.906 182.433,195.854 182.624,195.321 183.028 C 194.643 183.542,194.653 183.575,195.500 183.587 C 196.478 183.601,196.685 184.355,195.920 185.120 C 195.547 185.493,195.547 185.707,195.920 186.080 C 197.045 187.205,196.512 189.685,195.200 189.432 C 191.274 188.673,191.237 188.683,190.576 190.600 C 189.390 194.039,172.484 187.177,164.277 179.924 L 161.945 177.863 169.468 170.332 C 173.606 166.189,177.073 162.800,177.171 162.800 C 177.270 162.800,178.387 163.614,179.653 164.609 M216.800 167.986 C 216.800 168.198,216.395 168.584,215.900 168.844 C 215.005 169.314,215.004 169.312,215.762 168.458 C 216.609 167.505,216.800 167.418,216.800 167.986 M212.400 169.000 C 212.674 169.330,213.326 169.600,213.849 169.600 C 214.513 169.600,214.800 169.827,214.800 170.351 C 214.800 170.764,215.086 171.339,215.435 171.629 C 216.006 172.103,215.985 172.188,215.229 172.468 C 214.502 172.736,214.422 172.994,214.640 174.358 C 214.884 175.889,214.843 175.962,213.273 176.763 C 212.383 177.217,211.562 177.737,211.450 177.919 C 210.778 179.006,207.800 178.191,207.800 176.920 C 207.800 175.125,206.943 174.336,206.150 175.400 C 205.583 176.160,205.591 176.701,206.201 178.648 C 206.414 179.329,206.264 179.547,205.445 179.753 C 204.883 179.894,204.239 180.353,204.014 180.774 C 203.015 182.641,200.870 183.671,201.389 182.034 C 201.523 181.612,201.445 181.152,201.216 181.010 C 200.266 180.423,200.702 171.319,201.693 171.060 C 202.803 170.769,203.080 171.050,203.335 172.721 C 203.704 175.140,204.752 175.760,206.188 174.411 L 207.028 173.623 208.330 175.611 C 209.046 176.705,209.784 177.600,209.970 177.600 C 211.510 177.600,212.399 171.815,211.110 170.176 C 210.423 169.303,210.377 169.060,210.840 168.767 C 211.613 168.278,211.827 168.310,212.400 169.000 M83.600 169.329 C 83.600 169.620,83.856 170.655,84.169 171.629 C 84.482 172.603,84.847 174.062,84.982 174.871 C 85.116 175.681,85.592 176.761,86.041 177.271 L 86.856 178.200 86.659 175.919 C 86.386 172.757,83.600 166.755,83.600 169.329 M253.053 173.732 C 252.764 174.881,251.508 175.772,249.668 176.132 C 247.922 176.474,248.136 175.650,250.029 174.743 C 250.783 174.382,251.744 173.706,252.164 173.241 C 253.075 172.233,253.386 172.405,253.053 173.732 M237.200 175.376 C 237.200 175.693,237.032 176.056,236.828 176.183 C 236.352 176.477,235.874 175.728,236.200 175.200 C 236.568 174.605,237.200 174.716,237.200 175.376 M232.088 180.010 C 231.489 180.619,230.484 181.686,229.853 182.381 C 228.118 184.292,226.957 183.958,227.139 181.600 C 227.311 179.360,228.031 178.484,229.522 178.703 C 230.231 178.807,230.843 178.631,231.180 178.224 C 231.671 177.632,231.774 177.634,232.445 178.241 C 233.148 178.877,233.135 178.944,232.088 180.010 M163.844 185.620 C 170.851 191.035,182.961 196.057,191.000 196.882 C 192.123 196.998,192.072 197.051,190.200 197.710 C 189.100 198.098,187.930 198.767,187.600 199.198 C 187.178 199.749,186.193 200.094,184.273 200.364 C 182.773 200.575,181.333 200.908,181.073 201.105 C 180.813 201.301,179.751 201.776,178.713 202.159 C 176.942 202.813,176.830 202.941,176.878 204.238 C 176.916 205.236,176.634 205.929,175.865 206.732 C 174.411 208.250,174.524 209.168,176.393 210.993 C 178.563 213.112,178.393 213.111,172.745 210.969 C 162.828 207.210,152.716 201.083,147.412 195.621 L 145.824 193.986 152.186 187.614 L 158.549 181.242 160.019 182.521 C 160.827 183.224,162.549 184.619,163.844 185.620 M237.200 184.005 C 237.200 184.448,237.425 185.181,237.700 185.634 C 238.139 186.356,238.064 186.563,237.090 187.328 C 236.480 187.808,235.100 188.947,234.023 189.859 C 232.040 191.539,229.023 192.907,226.167 193.420 C 224.355 193.745,223.200 194.612,223.200 195.648 C 223.200 196.544,222.231 197.087,220.400 197.217 C 212.130 197.804,210.074 196.468,216.344 194.582 C 221.191 193.123,229.038 189.085,233.135 185.941 C 237.018 182.961,237.200 182.875,237.200 184.005 M111.400 185.828 C 113.894 188.544,118.093 190.547,119.126 189.514 C 119.508 189.132,120.795 190.250,125.106 194.704 C 128.128 197.827,131.005 200.524,131.500 200.699 C 132.339 200.996,132.168 201.248,128.980 204.409 L 125.560 207.800 123.535 205.600 C 119.235 200.928,112.818 191.607,109.919 185.822 L 108.705 183.400 109.853 184.396 C 110.484 184.944,111.180 185.588,111.400 185.828 M215.600 187.868 C 218.783 188.185,219.554 188.427,218.575 188.802 C 217.031 189.394,212.400 188.437,212.400 187.526 C 212.400 187.291,212.701 187.238,213.100 187.401 C 213.485 187.559,214.610 187.769,215.600 187.868 M242.800 188.600 C 244.283 190.130,244.042 190.308,241.250 189.750 C 240.198 189.540,240.000 189.318,240.000 188.350 C 240.000 186.746,241.098 186.844,242.800 188.600 M210.400 189.800 C 210.950 190.114,211.850 190.392,212.400 190.416 C 213.297 190.456,213.256 190.516,212.000 191.000 C 209.964 191.784,209.600 191.720,209.600 190.576 C 209.600 189.996,209.427 189.660,209.200 189.800 C 208.980 189.936,208.800 190.386,208.800 190.800 C 208.800 191.812,208.472 191.963,205.626 192.260 L 203.183 192.516 203.536 191.558 C 203.802 190.838,204.277 190.546,205.445 190.382 C 206.300 190.262,207.360 189.952,207.800 189.694 C 208.829 189.090,209.183 189.105,210.400 189.800 M328.563 197.148 C 327.082 198.823,322.031 205.856,317.710 212.258 C 315.439 215.623,311.873 223.538,309.808 229.800 C 302.226 252.781,298.602 260.143,291.231 267.537 C 288.573 270.203,288.375 270.695,290.245 269.982 C 292.594 269.086,299.670 267.471,309.400 265.610 C 320.849 263.420,321.905 263.165,326.000 261.602 C 346.620 253.734,364.981 234.689,369.555 216.424 C 370.680 211.931,370.695 209.810,369.584 212.311 C 364.797 223.087,355.790 230.308,332.800 241.802 C 321.871 247.266,315.758 251.217,310.200 256.410 C 306.554 259.817,304.492 260.685,307.704 257.462 C 318.232 246.895,321.796 238.935,324.569 219.800 C 326.443 206.864,327.893 200.736,330.020 196.762 C 330.884 195.148,330.161 195.339,328.563 197.148 M66.800 197.891 C 66.800 198.073,67.048 198.577,67.351 199.011 C 69.011 201.391,71.206 210.725,73.451 224.962 C 75.978 240.981,79.536 248.505,88.966 257.772 C 91.839 260.595,92.265 261.146,91.000 260.401 C 88.553 258.961,87.328 258.073,83.129 254.700 C 78.001 250.581,72.966 247.634,61.400 241.983 C 41.093 232.063,34.400 226.793,28.402 216.000 L 26.735 213.000 26.956 214.800 C 28.521 227.527,41.598 245.888,55.660 255.104 C 57.057 256.019,58.644 257.090,59.186 257.484 C 64.792 261.553,73.163 264.427,85.600 266.553 C 94.974 268.155,102.383 269.583,105.667 270.419 C 107.353 270.849,108.838 271.200,108.965 271.200 C 109.093 271.200,107.729 269.715,105.936 267.900 C 99.220 261.105,95.154 253.420,89.798 237.400 C 86.012 226.078,84.930 223.468,81.502 217.400 C 77.229 209.834,66.800 195.996,66.800 197.891 M143.711 201.400 C 145.299 202.170,146.880 202.800,147.226 202.800 C 147.772 202.800,149.286 203.801,153.127 206.700 C 162.522 213.793,182.071 220.358,193.900 220.393 L 196.400 220.400 196.400 230.061 L 196.400 239.722 191.900 239.463 C 186.533 239.154,178.483 237.901,174.600 236.771 C 168.705 235.054,161.688 232.744,160.176 232.022 C 148.814 226.598,145.396 224.649,139.329 220.134 C 136.685 218.167,131.326 213.723,129.210 211.743 C 128.697 211.264,129.356 210.453,134.204 205.596 C 140.530 199.258,139.883 199.543,143.711 201.400 M266.200 212.000 C 267.156 213.057,266.148 214.394,264.616 214.101 C 263.666 213.919,263.661 213.898,264.300 212.558 C 265.055 210.977,265.228 210.926,266.200 212.000 M126.822 216.245 C 128.659 218.171,134.424 223.001,136.769 224.579 C 137.804 225.276,139.269 226.310,140.025 226.878 C 150.977 235.105,173.075 242.976,188.600 244.181 C 190.360 244.317,192.835 244.530,194.100 244.654 L 196.400 244.879 196.400 254.891 L 196.400 264.903 192.700 264.635 C 163.484 262.519,136.124 250.647,114.349 230.636 L 111.699 228.200 118.345 221.500 C 125.952 213.832,125.052 214.390,126.822 216.245 M283.902 233.000 C 263.290 252.132,231.473 264.800,204.031 264.800 L 200.800 264.800 200.800 254.800 C 200.800 249.300,200.954 244.800,201.142 244.800 C 208.703 244.800,221.440 242.618,230.584 239.757 C 234.029 238.678,237.174 238.901,238.286 240.302 C 240.822 243.499,257.698 233.098,261.397 226.059 C 262.460 224.036,263.612 222.553,265.123 221.265 C 266.326 220.239,268.051 218.733,268.955 217.917 L 270.600 216.433 278.113 223.917 L 285.626 231.400 283.902 233.000 M215.000 221.407 L 215.000 223.399 217.665 224.045 C 222.915 225.319,224.751 227.239,222.819 229.439 C 220.486 232.097,221.175 233.605,225.248 234.753 L 227.759 235.461 225.180 236.160 C 218.004 238.104,208.412 239.598,203.100 239.600 L 200.800 239.600 200.800 230.000 L 200.800 220.400 203.500 220.366 C 204.985 220.347,207.910 220.100,210.000 219.816 C 215.185 219.113,215.000 219.054,215.000 221.407 M302.993 235.470 C 302.117 236.058,301.310 236.651,301.200 236.788 C 301.090 236.925,299.830 237.917,298.400 238.992 C 294.649 241.813,289.531 246.516,278.407 257.366 C 267.903 267.612,265.837 269.335,260.700 272.132 C 256.881 274.212,244.891 278.400,242.756 278.400 C 241.354 278.400,241.610 279.165,243.089 279.392 C 248.809 280.270,254.884 281.507,261.800 283.202 C 286.175 289.177,297.553 289.592,310.784 284.986 C 314.787 283.593,322.578 279.605,325.200 277.608 C 325.970 277.021,327.593 275.799,328.808 274.893 C 332.364 272.239,338.254 265.758,340.691 261.818 C 343.859 256.697,343.826 256.099,340.551 259.234 C 331.023 268.354,322.737 271.111,298.600 273.194 C 285.557 274.319,282.205 274.728,275.265 276.040 C 267.004 277.602,265.418 277.522,270.874 275.819 C 282.591 272.161,289.606 265.518,295.356 252.636 C 298.600 245.368,301.497 239.744,303.395 237.028 C 305.421 234.130,305.357 233.882,302.993 235.470 M93.250 236.900 C 93.513 237.395,94.135 238.430,94.632 239.200 C 96.345 241.855,97.640 244.211,99.359 247.800 C 109.108 268.152,113.974 272.958,129.400 277.463 C 132.300 278.310,130.863 278.766,127.681 278.009 C 119.962 276.172,114.188 275.429,101.200 274.603 C 76.793 273.051,67.105 270.148,57.500 261.505 C 55.795 259.970,54.400 258.802,54.400 258.907 C 54.400 260.137,59.881 267.693,63.471 271.412 C 67.052 275.121,76.105 282.000,77.406 282.000 C 77.531 282.000,78.120 282.357,78.716 282.794 C 79.312 283.231,81.690 284.297,84.000 285.163 C 100.243 291.250,114.101 290.560,143.800 282.184 C 145.780 281.626,149.375 280.902,151.790 280.575 C 157.089 279.858,157.583 279.519,154.300 278.853 C 152.925 278.574,149.820 277.705,147.400 276.921 C 135.195 272.967,132.583 271.192,116.900 256.200 C 106.363 246.127,103.253 243.421,97.105 238.978 C 95.403 237.747,93.908 236.574,93.782 236.370 C 93.281 235.560,92.795 236.044,93.250 236.900 M172.930 279.238 C 162.666 280.434,150.312 284.603,132.227 292.972 C 119.152 299.023,100.280 298.481,88.262 291.710 C 86.537 290.737,85.036 290.031,84.926 290.140 C 84.493 290.574,91.615 297.158,94.807 299.277 C 112.480 311.001,131.924 312.144,149.995 302.518 C 153.805 300.489,164.717 293.533,165.200 292.825 C 167.522 289.427,179.842 284.000,185.234 284.000 C 191.712 284.000,191.684 284.312,184.878 287.899 C 173.959 293.654,162.385 302.065,153.700 310.556 C 149.916 314.256,149.886 314.341,151.900 315.721 C 152.725 316.287,154.210 317.487,155.200 318.390 C 158.052 320.990,158.196 321.022,159.480 319.340 C 167.813 308.424,184.419 294.465,195.455 289.099 L 199.584 287.091 204.092 289.612 C 206.571 290.999,209.320 292.646,210.200 293.273 C 219.320 299.766,225.716 305.251,234.310 313.946 L 240.738 320.450 243.869 317.680 C 248.985 313.155,248.804 313.627,246.322 311.286 C 243.347 308.480,237.615 303.607,234.894 301.571 C 233.632 300.626,231.610 299.112,230.400 298.206 C 226.655 295.401,220.468 291.599,214.082 288.177 C 207.084 284.428,207.085 284.400,214.215 284.400 C 221.326 284.400,222.804 285.013,232.800 292.112 C 262.364 313.108,289.033 313.235,309.939 292.478 C 313.955 288.490,314.391 287.554,311.315 289.523 C 303.969 294.226,295.615 296.214,284.600 295.881 C 275.292 295.600,268.165 293.528,253.800 286.924 C 240.152 280.649,233.099 279.029,219.400 279.023 C 209.946 279.018,205.105 279.602,201.542 281.178 C 199.830 281.936,199.586 281.949,197.559 281.387 C 189.024 279.024,180.875 278.312,172.930 279.238 " stroke="none" fill="#ffffff" fill-rule="evenodd"></path></g></svg>
