<?xml version="1.0" encoding="UTF-8" standalone="no"?>
<svg
   xmlns="http://www.w3.org/2000/svg"
   id="svg3737"
   preserveAspectRatio="xMidYMid meet"
   viewBox="0 0 12180 10240"
   height="1024px"
   width="1218px"
   version="1.0">
  <defs
     id="defs3784" />
  <g
     id="layer1"
     stroke="none"
     fill="#ffffff">
    <path
       d="M7175 9837 c-8 -12 -44 -65 -80 -117 -213 -314 -245 -350 -408 -473 -118 -88 -292 -204 -357 -237 -75 -38 -176 -71 -235 -77 -73 -7 -136 6 -270 53 -285 101 -455 212 -672 437 -122 127 -166 181 -250 310 -35 53 -66 97 -69 97 -15 0 -214 -83 -219 -91 -4 -5 8 -36 26 -69 35 -66 110 -138 409 -394 232 -199 387 -314 527 -392 29 -16 53 -32 53 -36 0 -16 -61 -23 -200 -23 -123 1 -161 5 -250 27 -146 37 -201 59 -461 186 -482 235 -610 272 -949 272 -175 0 -250 -8 -465 -50 -236 -45 -434 -138 -755 -353 -213 -143 -241 -208 -63 -149 48 16 129 46 178 67 159 66 199 76 467 115 235 35 491 41 633 16 244 -43 407 -90 658 -190 202 -80 264 -99 424 -130 232 -45 491 -58 660 -35 157 21 372 69 467 104 54 19 114 35 132 35 18 0 126 -18 240 -40 323 -63 366 -67 556 -48 90 9 287 35 438 58 151 22 361 52 465 66 200 26 400 59 602 100 190 37 309 47 518 41 285 -7 328 -19 809 -222 114 -48 161 -64 169 -56 22 22 -84 112 -373 318 -193 137 -328 226 -380 250 -63 29 -171 59 -265 74 -121 20 -501 13 -684 -12 -80 -11 -179 -24 -220 -29 -41 -6 -119 -26 -175 -46 -498 -181 -794 -268 -996 -295 -77 -10 -280 -2 -280 11 0 4 105 85 233 180 177 132 260 201 351 294 110 112 247 272 291 339 26 40 20 44 -162 116 l-52 20 -16 -22z"
       id="path3740" />
    <path
       d="M8530 8685 c-283 -35 -444 -48 -694 -54 -243 -6 -276 -14 -199 -47 121 -51 175 -83 290 -170 70 -52 140 -110 156 -127 15 -18 61 -100 102 -183 41 -83 98 -186 127 -230 63 -95 290 -327 405 -413 45 -33 106 -91 135 -127 167 -208 251 -295 269 -277 6 6 -3 35 -28 84 -21 41 -53 106 -70 144 -17 39 -43 95 -56 125 -30 66 -46 127 -86 328 -38 188 -54 221 -199 397 -126 154 -188 242 -178 253 11 10 291 11 406 0 124 -11 321 -52 440 -93 249 -85 445 -156 476 -173 10 -6 70 -36 133 -67 63 -31 146 -78 184 -105 94 -66 110 -55 61 43 -45 88 -107 168 -221 278 -130 127 -192 175 -299 228 -162 80 -422 166 -598 196 -124 21 -333 17 -556 -10z"
       id="path3742" />
    <path
       d="M3115 8684 c-117 -12 -271 -38 -360 -59 -108 -26 -166 -49 -290 -120 -44 -24 -86 -48 -94 -51 -20 -10 -178 -105 -241 -146 -69 -45 -229 -200 -306 -298 -119 -152 -157 -207 -150 -219 10 -15 43 0 176 78 180 106 257 147 372 195 209 88 370 131 653 175 423 67 478 73 553 66 39 -4 72 -9 72 -12 0 -4 -44 -52 -98 -107 -139 -143 -139 -142 -267 -616 -78 -289 -146 -454 -251 -611 -100 -149 -99 -182 3 -132 89 43 247 202 434 438 129 163 266 390 426 708 96 190 111 214 177 280 123 125 322 235 493 271 17 4 37 13 43 21 20 24 -18 32 -180 39 -224 10 -358 23 -426 40 -137 35 -612 73 -739 60z"
       id="path3744" />
    <path
       d="M8884 8276 c-4 -9 35 -83 99 -188 171 -283 170 -279 187 -543 10 -168 45 -363 81 -462 23 -61 218 -468 270 -563 81 -147 140 -296 213 -541 29 -96 45 -119 67 -93 23 28 16 579 -10 810 -22 193 -50 338 -80 413 -43 104 -111 312 -111 338 0 26 153 -56 280 -149 63 -46 169 -118 235 -160 246 -157 272 -174 375 -252 156 -118 273 -229 364 -345 146 -186 167 -216 181 -247 17 -42 32 -49 46 -23 77 145 -327 1003 -575 1223 -153 135 -287 231 -445 319 -46 26 -85 47 -87 47 -2 0 -53 25 -115 55 -122 60 -214 96 -311 120 -70 18 -216 61 -355 107 -51 16 -109 40 -129 54 -29 20 -129 75 -166 92 -5 2 -11 -3 -14 -12z"
       id="path3746" />
    <path
       d="M2960 7965 c-36 -13 -123 -33 -195 -45 -208 -34 -413 -79 -507 -110 -94 -31 -272 -118 -365 -176 -336 -213 -484 -339 -618 -529 -169 -238 -227 -357 -309 -635 -35 -117 -46 -197 -31 -210 15 -12 60 37 180 200 139 188 378 399 570 504 141 78 268 161 383 250 70 55 147 112 172 128 48 31 146 65 156 55 7 -7 -25 -175 -61 -317 -41 -162 -47 -243 -40 -540 11 -494 11 -528 -14 -595 -19 -53 -19 -61 -6 -74 13 -14 17 -13 34 4 93 96 250 409 316 631 21 73 71 393 95 609 25 229 51 334 126 500 61 136 90 184 172 288 73 93 62 105 -58 62z"
       id="path3748" />
    <path
       d="M5005 7190 c-335 -60 -445 -85 -775 -175 -182 -50 -405 -127 -625 -217 -219 -89 -632 -306 -708 -372 l-27 -24 2 -618 c2 -404 6 -618 13 -621 6 -2 91 62 190 143 163 131 303 234 319 234 3 0 5 -134 4 -297 l-3 -298 -252 -5 c-225 -4 -254 -7 -270 -23 -17 -16 -18 -51 -21 -457 -3 -432 -3 -439 17 -459 20 -20 32 -21 252 -21 140 0 238 -4 250 -10 18 -10 19 -24 19 -310 0 -165 -2 -300 -5 -300 -24 0 -213 145 -370 284 -66 58 -125 106 -132 106 -7 0 -16 -8 -21 -17 -5 -10 -13 -284 -17 -609 -7 -666 -11 -628 68 -682 23 -16 74 -46 112 -67 39 -20 75 -41 80 -45 20 -15 392 -199 495 -245 157 -70 358 -147 515 -198 171 -55 434 -127 468 -127 47 0 33 -9 537 333 275 187 518 353 660 452 292 203 295 205 337 205 47 0 57 -6 344 -211 206 -147 322 -229 634 -449 77 -54 151 -107 165 -117 298 -215 328 -232 397 -233 70 0 471 110 693 191 47 17 114 41 150 54 64 23 139 54 270 110 99 44 442 219 502 258 60 38 115 96 123 130 10 42 1 1210 -10 1214 -6 2 -60 -38 -120 -87 -187 -154 -370 -290 -390 -290 -3 0 -5 135 -5 300 l0 300 248 0 c245 0 249 0 269 23 21 21 21 35 28 462 l8 440 -23 20 c-20 18 -40 20 -261 25 -148 3 -242 9 -249 16 -7 7 -9 106 -8 303 l3 292 77 -53 c43 -29 128 -97 190 -150 240 -206 246 -210 266 -170 5 9 10 285 11 614 l3 596 -34 36 c-18 19 -76 61 -128 92 -100 61 -469 250 -580 298 -457 198 -972 346 -1498 431 -169 28 -205 27 -220 -3 -5 -9 -11 -230 -13 -489 -2 -260 -5 -473 -6 -473 -3 0 -196 141 -497 362 -175 129 -277 198 -293 198 -35 0 -64 -17 -254 -152 -94 -68 -204 -145 -243 -172 -39 -28 -125 -89 -191 -136 l-120 -87 -3 480 c-1 334 -6 484 -13 494 -18 21 -107 14 -334 -27z m169 -177 c4 -9 4 -164 0 -345 -6 -282 -9 -330 -23 -342 -15 -12 -35 -17 -131 -31 -247 -36 -310 -51 -342 -82 l-28 -27 0 -208 c0 -164 -3 -215 -15 -237 -8 -16 -54 -56 -102 -90 -182 -129 -390 -273 -458 -318 -38 -25 -74 -51 -80 -58 -8 -9 -125 -93 -259 -185 -11 -8 -48 -34 -81 -57 -32 -24 -63 -43 -67 -43 -4 0 -8 179 -8 397 0 483 6 464 -123 398 -38 -19 -83 -46 -100 -59 -65 -47 -197 -136 -205 -136 -4 -1 -23 -14 -42 -30 -19 -17 -40 -30 -47 -30 -11 0 -13 72 -11 389 l3 390 29 30 c17 17 64 50 105 73 80 45 322 166 381 191 231 97 319 130 505 192 44 15 89 31 100 35 11 5 31 11 45 13 14 3 102 25 195 49 208 55 254 65 455 103 47 9 101 20 120 24 19 5 67 9 106 10 59 1 73 -2 78 -16z m2299 -49 c196 -40 400 -88 482 -114 217 -69 358 -116 392 -131 24 -10 46 -19 50 -19 30 0 500 -215 585 -267 21 -13 62 -36 90 -52 91 -49 130 -72 154 -89 l23 -17 1 -407 c0 -238 -4 -408 -9 -408 -5 0 -33 19 -63 43 -29 23 -67 51 -83 63 -186 130 -329 215 -364 217 l-26 2 -3 -417 c-1 -297 -5 -418 -13 -418 -12 0 -106 66 -124 86 -9 10 -67 51 -169 120 -17 12 -106 77 -197 145 -213 158 -252 187 -374 272 -176 124 -175 121 -175 385 0 197 0 201 -24 229 -19 23 -37 31 -97 41 -211 37 -347 66 -369 77 l-25 14 0 341 c0 292 2 342 15 350 19 13 59 7 323 -46z m-1271 -402 c14 -9 77 -56 140 -103 62 -47 181 -134 263 -194 83 -60 191 -138 240 -175 124 -91 309 -228 367 -270 27 -19 107 -78 179 -130 72 -52 170 -124 218 -160 49 -36 124 -91 167 -123 44 -32 165 -122 271 -200 593 -440 584 -434 708 -483 11 -4 120 -8 243 -8 187 -1 224 -3 232 -16 6 -9 10 -136 10 -296 0 -241 -2 -283 -15 -294 -13 -10 -174 -12 -803 -6 -1242 10 -1610 17 -1622 31 -7 8 -9 116 -8 301 l3 289 147 5 c117 4 151 8 163 21 17 17 1 29 -295 233 -30 20 -101 70 -157 109 -56 40 -163 115 -238 167 -75 52 -159 112 -188 133 -77 56 -95 53 -240 -46 -67 -46 -246 -167 -397 -269 -401 -269 -435 -293 -435 -309 0 -11 30 -15 153 -19 121 -4 155 -8 162 -20 6 -8 10 -136 10 -292 0 -277 0 -278 -22 -292 -20 -12 -184 -13 -1213 -4 -776 7 -1194 14 -1202 20 -10 8 -13 80 -13 300 0 251 2 289 15 295 9 3 127 6 263 7 l247 1 70 47 c83 56 121 82 325 228 85 60 193 137 240 170 47 33 137 97 202 142 64 46 212 151 330 234 258 183 717 508 928 658 85 60 184 130 220 154 36 25 98 69 137 99 72 54 125 82 153 83 8 0 27 -8 42 -18z m-973 -416 c-8 -8 -411 -286 -415 -286 -7 0 -4 205 4 216 10 16 41 24 192 49 124 21 229 31 219 21z m2041 -41 c80 -14 155 -30 167 -36 32 -17 46 -71 40 -146 -2 -35 -7 -67 -10 -69 -3 -3 -29 12 -59 33 -29 22 -116 84 -193 138 -168 118 -170 120 -125 111 19 -4 100 -18 180 -31z m-1038 -926 c40 -28 138 -94 218 -148 80 -54 151 -105 158 -113 9 -12 12 -115 10 -461 l-3 -446 -170 115 c-93 63 -192 131 -219 150 -51 36 -99 44 -151 24 -14 -5 -70 -41 -123 -79 -78 -55 -170 -114 -294 -187 -10 -7 -10 840 1 867 5 15 69 65 161 129 83 58 181 126 217 153 41 29 76 47 94 47 17 0 55 -19 101 -51z m16 -1119 c48 -32 119 -81 157 -109 39 -27 140 -97 225 -156 145 -99 427 -293 565 -388 33 -22 94 -64 135 -92 41 -27 95 -65 120 -83 98 -72 153 -102 167 -90 11 9 13 81 13 382 -1 204 1 379 5 388 4 9 14 20 23 23 19 8 914 7 952 -1 47 -10 70 -27 79 -58 4 -17 6 -205 3 -417 -5 -403 -3 -429 37 -429 10 0 24 7 31 15 7 8 16 15 21 15 18 0 233 138 419 269 20 13 20 8 20 -384 l0 -397 -36 -33 c-20 -18 -61 -47 -93 -64 -31 -17 -69 -38 -86 -47 -50 -28 -58 -32 -115 -60 -77 -37 -168 -79 -215 -99 -22 -9 -58 -25 -80 -35 -42 -18 -148 -59 -280 -108 -73 -27 -210 -70 -340 -107 -27 -8 -81 -24 -120 -35 -38 -12 -104 -24 -145 -27 -64 -5 -82 -2 -116 15 -22 11 -47 28 -54 37 -8 10 -23 21 -35 26 -11 5 -46 28 -78 52 -32 23 -99 71 -150 106 -50 36 -127 91 -169 123 -42 32 -80 58 -83 58 -3 0 -23 13 -43 29 -38 29 -366 264 -407 291 -41 27 -136 94 -198 141 -168 124 -211 149 -259 149 -40 -1 -90 -31 -385 -236 -299 -207 -300 -207 -452 -312 -140 -96 -315 -215 -355 -242 -13 -8 -41 -27 -64 -42 -23 -16 -46 -28 -51 -28 -6 0 -14 -6 -18 -13 -8 -13 -99 -77 -109 -77 -3 0 -21 -12 -39 -26 -50 -38 -95 -40 -210 -9 -55 15 -113 30 -130 35 -16 4 -82 25 -145 45 -63 20 -126 40 -140 45 -38 11 -308 119 -370 147 -72 32 -449 220 -475 236 -56 35 -102 63 -120 72 -43 23 -45 40 -45 453 0 215 3 392 6 392 6 0 100 -63 209 -141 166 -118 302 -196 328 -186 16 6 17 44 17 441 0 389 2 436 16 451 15 15 60 16 498 10 324 -5 489 -11 506 -19 13 -6 27 -22 31 -36 4 -14 7 -185 8 -381 1 -412 -1 -402 78 -348 58 40 461 310 484 324 30 19 104 67 249 164 80 53 153 101 162 106 9 6 122 80 250 166 128 86 240 159 248 162 37 13 67 3 148 -53z m-708 -107 c0 -5 -86 -64 -191 -133 -105 -69 -270 -178 -367 -242 l-177 -117 -3 227 c-1 125 0 237 3 250 l5 22 365 0 c201 0 365 -3 365 -7z m1914 -38 c4 -14 6 -129 6 -255 l-1 -230 -172 117 c-95 65 -195 133 -223 153 -29 19 -101 68 -160 109 -60 41 -127 87 -148 103 l-39 28 365 0 366 0 6 -25z"
       id="path3750" />
    <path
       d="M1963 6853 c-230 -244 -246 -258 -343 -309 -65 -34 -148 -95 -239 -177 -36 -32 -103 -83 -147 -112 -147 -96 -305 -311 -433 -590 -83 -180 -109 -277 -121 -449 -10 -139 -8 -255 5 -276 11 -18 24 -1 67 83 58 116 171 300 233 380 131 168 600 660 694 726 l30 22 10 -38 c5 -21 12 -74 16 -118 24 -313 48 -454 101 -588 29 -74 77 -303 99 -477 22 -170 36 -190 82 -121 25 37 35 71 88 291 43 182 54 292 56 570 1 186 -2 215 -24 310 -86 360 -80 320 -73 500 6 172 18 250 62 412 25 90 27 128 5 128 -5 0 -80 -75 -168 -167z"
       id="path3752" />
    <path
       d="M9944 7005 c-3 -8 13 -92 36 -187 57 -236 76 -481 46 -613 -8 -33 -35 -150 -61 -260 -44 -187 -48 -212 -55 -390 -10 -262 0 -394 48 -586 42 -168 60 -214 81 -214 14 0 38 76 71 225 27 122 58 203 122 310 64 109 78 153 107 340 52 334 60 380 68 394 12 22 126 -85 308 -289 410 -462 517 -610 619 -861 12 -28 26 -52 31 -54 32 -9 55 178 35 290 -40 228 -129 511 -216 683 -136 273 -374 516 -731 748 -100 65 -257 213 -403 382 -46 53 -88 97 -92 97 -5 0 -11 -7 -14 -15z"
       id="path3754" />
    <path
       d="M1494 5704 c-81 -125 -205 -290 -324 -429 -282 -331 -372 -488 -443 -770 -64 -253 -76 -385 -52 -610 21 -203 38 -288 76 -372 38 -85 47 -97 65 -82 10 8 14 39 14 110 0 172 39 375 106 556 43 113 262 642 300 722 l26 55 41 -65 c22 -35 61 -109 85 -164 54 -120 189 -348 317 -534 148 -216 225 -359 266 -491 27 -87 42 -111 61 -92 9 9 13 52 12 145 0 108 -6 159 -31 282 -18 83 -39 189 -48 238 -21 119 -62 231 -155 427 -114 242 -197 464 -242 648 -25 105 -27 272 -5 402 13 71 13 87 2 99 -12 12 -23 0 -71 -75z"
       id="path3756" />
    <path
       d="M10586 5611 c-4 -6 -11 -79 -16 -163 -17 -300 -55 -414 -216 -654 -121 -182 -206 -350 -262 -519 -62 -187 -86 -304 -87 -424 0 -122 10 -135 51 -64 71 125 299 434 403 549 33 36 91 122 138 206 96 169 183 277 183 227 0 -10 79 -161 215 -409 76 -140 111 -219 153 -345 47 -144 59 -192 72 -310 17 -149 32 -239 43 -253 21 -26 60 34 95 149 26 85 38 324 23 464 -19 181 -119 541 -188 680 -73 146 -129 223 -248 345 -125 128 -150 164 -254 365 -78 149 -94 174 -105 156z"
       id="path3758" />
    <path
       d="M1286 4468 c-2 -7 -13 -51 -24 -98 -19 -81 -38 -130 -207 -525 -40 -93 -76 -181 -80 -195 -4 -14 -11 -29 -15 -35 -35 -47 -80 -288 -80 -428 0 -293 103 -622 288 -917 91 -145 110 -130 77 65 -31 181 -35 244 -25 404 20 307 81 831 100 854 14 16 40 -8 151 -135 93 -107 149 -159 305 -284 199 -160 229 -189 331 -320 82 -105 130 -151 144 -137 10 10 -36 204 -68 281 -84 205 -223 413 -405 607 -217 232 -376 506 -424 730 -32 151 -30 145 -49 145 -9 0 -17 -6 -19 -12z"
       id="path3760" />
    <path
       d="M10677 4281 c-45 -50 -54 -68 -68 -132 -23 -108 -101 -246 -190 -340 -24 -25 -85 -80 -135 -122 -109 -92 -183 -175 -321 -361 -102 -137 -151 -223 -172 -301 -36 -137 -61 -269 -53 -277 6 -6 55 36 128 109 129 129 403 372 499 444 79 59 191 129 207 129 8 0 31 -57 57 -143 68 -218 89 -307 112 -471 40 -280 14 -474 -113 -839 -33 -96 -10 -113 66 -46 159 140 343 574 377 890 14 131 6 429 -14 539 -19 101 -60 234 -118 385 -23 61 -77 214 -119 340 -50 147 -83 231 -92 233 -8 2 -31 -15 -51 -37z"
       id="path3762" />
    <path
       d="M1434 3295 c-4 -8 2 -79 11 -157 19 -158 18 -174 -27 -423 -29 -163 -30 -178 -24 -360 6 -203 32 -403 64 -496 30 -85 116 -252 173 -337 69 -102 222 -302 279 -365 43 -49 232 -197 250 -197 24 0 17 24 -19 72 -140 188 -266 487 -325 771 -25 121 -46 358 -46 530 l0 67 31 0 c35 0 117 -34 300 -125 265 -131 363 -216 500 -433 74 -118 85 -49 19 125 -22 60 -65 152 -96 207 -114 205 -226 329 -417 464 -290 206 -347 249 -416 315 -82 80 -140 164 -194 280 -35 76 -52 92 -63 62z"
       id="path3764" />
    <path
       d="M10370 3038 c-50 -60 -128 -138 -190 -188 -58 -48 -132 -113 -165 -144 -33 -32 -91 -83 -130 -114 -117 -94 -172 -151 -299 -307 -222 -274 -257 -331 -301 -481 -47 -163 -32 -176 61 -51 114 153 280 312 422 405 122 80 259 152 362 191 30 12 57 21 59 21 10 0 -9 -393 -23 -452 -25 -106 -102 -312 -168 -446 -68 -139 -110 -196 -322 -440 -185 -212 -183 -210 -163 -217 33 -13 275 141 402 257 159 144 285 292 405 474 78 117 115 191 148 294 42 129 89 454 78 529 -4 20 -20 197 -36 395 -17 197 -33 362 -36 367 -3 5 -8 9 -12 9 -4 0 -46 -46 -92 -102z"
       id="path3766" />
    <path
       d="M1904 2186 c-3 -8 10 -56 29 -108 20 -51 47 -133 61 -183 31 -111 67 -207 106 -285 42 -84 203 -321 270 -399 156 -181 681 -563 721 -524 9 9 2 29 -28 85 -22 40 -66 123 -98 183 -326 618 -341 642 -507 783 -50 42 -132 118 -182 167 -97 96 -337 295 -356 295 -6 0 -13 -6 -16 -14z"
       id="path3768" />
    <path
       d="M9860 2079 c-198 -153 -268 -222 -395 -392 -87 -116 -121 -173 -214 -360 -120 -244 -174 -330 -258 -415 -30 -32 -90 -97 -132 -147 -42 -49 -84 -98 -94 -108 -28 -29 -8 -42 40 -27 42 14 243 117 339 173 114 68 228 159 344 276 291 292 399 491 525 970 34 130 36 152 12 150 -7 0 -82 -54 -167 -120z"
       id="path3770" />
  </g>
  <g
     id="layer2"
     transform="translate(5.857864,-12.7922)"
     style="fill:#ffcc00;stroke:none">
    <path
       d="m 6113,6585 c -18,-7 -68,-40 -112,-72 -44,-32 -146,-105 -228,-163 -81,-57 -193,-136 -248,-175 -55,-40 -278,-197 -495,-350 -217,-153 -422,-298 -455,-322 -33,-24 -121,-86 -195,-138 -74,-52 -168,-119 -208,-147 -40,-29 -136,-98 -214,-153 -78,-55 -169,-120 -202,-143 -34,-24 -92,-65 -131,-90 l -70,-47 -253,-1 c -227,-2 -255,-3 -272,-19 -19,-17 -20,-33 -20,-305 0,-284 0,-287 23,-307 22,-21 28,-21 1212,-31 1259,-10 1232,-11 1249,33 3,9 6,140 6,290 0,346 16,318 -184,325 l -146,5 72,49 c 40,27 197,132 348,234 151,102 330,223 397,269 145,99 163,102 241,46 28,-21 84,-60 123,-88 40,-27 131,-91 203,-142 175,-123 267,-187 418,-292 149,-103 150,-101 -43,-101 -109,0 -128,-2 -142,-18 -15,-16 -17,-53 -17,-309 0,-290 0,-291 23,-305 26,-18 332,-24 1632,-34 l 801,-7 17,26 c 15,23 17,59 17,306 0,260 -1,280 -19,302 -19,24 -20,24 -243,25 -122,0 -232,4 -243,8 -124,49 -123,48 -705,481 -229,170 -642,473 -835,613 -40,29 -204,149 -370,272 -49,37 -157,115 -240,175 -163,118 -177,128 -305,226 -127,97 -131,99 -187,74 z"
       id="path3773"/>
  </g>
  <g
     id="layer3"
     stroke="none"
     fill="#ff0000">
    <path
       d="M4990 7039 c-19 -4 -73 -15 -120 -24 -201 -38 -247 -48 -455 -103 -93 -24 -181 -46 -195 -49 -14 -2 -34 -8 -45 -13 -11 -4 -56 -20 -100 -35 -185 -62 -287 -101 -505 -192 -70 -30 -317 -154 -397 -201 -44 -26 -94 -62 -110 -81 l-28 -35 0 -395 0 -396 25 -3 c18 -2 34 6 55 28 16 16 32 30 37 30 4 0 43 24 85 53 165 114 185 127 239 152 31 15 62 24 70 21 12 -4 14 -71 14 -411 0 -457 -3 -442 73 -388 23 17 60 43 83 59 67 47 291 206 358 254 35 25 132 92 215 150 311 216 354 249 368 281 9 22 13 89 13 239 0 234 -1 231 80 249 53 12 189 34 347 57 24 4 53 16 66 28 24 22 24 23 31 352 4 216 3 340 -3 357 -10 26 -13 27 -88 26 -43 -1 -94 -5 -113 -10z"
       id="path3776" />
    <path
       d="M7139 7021 l-24 -19 -3 -340 -3 -340 34 -26 c19 -14 42 -26 53 -26 10 0 71 -11 134 -24 63 -13 149 -29 190 -36 113 -19 110 -13 110 -252 0 -266 1 -269 178 -394 225 -158 305 -216 452 -326 183 -137 165 -124 295 -219 142 -104 142 -104 155 -80 6 13 10 163 10 426 l0 406 22 -7 c55 -17 258 -148 406 -261 46 -34 87 -63 91 -63 29 0 31 30 31 431 l0 407 -49 36 c-27 20 -52 36 -55 36 -4 0 -23 11 -44 23 -85 54 -305 168 -452 234 -88 40 -264 113 -273 113 -4 0 -26 9 -50 19 -34 15 -175 62 -392 131 -82 26 -286 74 -482 114 -300 60 -305 61 -334 37z"
       id="path3778" />
    <path
       d="M6095 4131 c-17 -7 -339 -217 -423 -277 -13 -9 -81 -54 -150 -100 -70 -45 -147 -97 -172 -114 -25 -17 -164 -109 -310 -205 -146 -96 -278 -184 -294 -197 -32 -25 -84 -58 -91 -58 -2 0 -5 168 -7 374 l-3 374 -24 26 c-13 14 -38 28 -55 30 -17 3 -241 8 -498 11 l-467 7 -26 -26 -25 -25 0 -431 c0 -309 -3 -430 -11 -430 -15 0 -184 95 -234 132 -218 160 -280 200 -295 191 -13 -9 -15 -61 -15 -416 l0 -406 29 -30 c17 -17 33 -31 37 -31 5 0 27 -12 51 -27 24 -16 52 -34 63 -40 27 -17 405 -205 475 -236 62 -28 332 -136 370 -147 14 -5 77 -25 140 -45 63 -20 129 -41 145 -45 17 -5 75 -20 130 -35 62 -17 114 -25 137 -22 26 4 84 36 184 104 80 54 157 105 169 113 32 20 192 129 356 242 152 105 153 105 452 312 300 208 345 235 387 236 46 0 65 -12 332 -203 79 -57 252 -180 462 -330 45 -31 106 -74 136 -95 92 -64 313 -222 457 -327 40 -29 86 -58 103 -65 41 -17 154 -8 245 20 39 11 93 27 120 35 130 37 267 80 340 107 132 49 238 90 280 108 22 10 58 26 80 35 72 31 251 115 285 134 8 5 32 17 52 27 95 49 168 97 197 129 l31 36 0 404 c0 222 -3 406 -7 408 -5 3 -42 -19 -83 -49 -82 -59 -284 -189 -340 -220 -19 -10 -43 -25 -52 -33 -10 -7 -25 -11 -34 -7 -15 6 -16 38 -12 399 3 215 1 406 -4 424 -10 38 -49 68 -98 76 -19 4 -238 7 -485 8 -472 2 -482 1 -506 -42 -7 -14 -10 -139 -9 -395 1 -367 0 -375 -19 -365 -10 6 -52 33 -92 61 -41 28 -110 75 -154 104 -44 30 -123 84 -175 120 -52 37 -158 109 -235 162 -77 52 -178 122 -225 155 -47 33 -121 84 -165 114 -44 29 -105 71 -135 94 -30 22 -66 48 -80 57 -14 10 -57 39 -97 66 -70 47 -98 55 -138 39z"
       id="path3780" />
  </g>
</svg>
